SplineFontDB: 3.0
FontName: Lavi-Bold
FullName: Lavi Bold
FamilyName: Lavi
Weight: Bold
Copyright: A creation by Ruben Holthuijsen aka Rholt (2009).\nMaintainance and modification by David Revoy for the webcomic www.peppercarrot.com.\nCorrection by Solve Svartskogen.\nAdaptation for Cyrillic glyph imported from a derivative done by Gleki "lagleki" Arxokuna ( https://github.com/lagleki ).\nGNU GPL V3 ( https://www.gnu.org/copyleft/gpl.html)\nRepository and sources available here: https://github.com/Deevad/peppercarrot_fonts/\n
Version: 2.0
ItalicAngle: 0
UnderlinePosition: -240
UnderlineWidth: 120
Ascent: 1638
Descent: 410
InvalidEm: 0
LayerCount: 2
Layer: 0 1 "Back" 1
Layer: 1 1 "Fore" 0
XUID: [1021 91 1847977381 15115260]
StyleMap: 0x0020
FSType: 0
OS2Version: 2
OS2_WeightWidthSlopeOnly: 0
OS2_UseTypoMetrics: 1
CreationTime: 1231154524
ModificationTime: 1541084417
PfmFamily: 65
TTFWeight: 700
TTFWidth: 5
LineGap: 122
VLineGap: 0
Panose: 3 0 8 0 0 0 0 0 0 0
OS2TypoAscent: 1556
OS2TypoAOffset: 0
OS2TypoDescent: -410
OS2TypoDOffset: 0
OS2TypoLinegap: 122
OS2WinAscent: 2200
OS2WinAOffset: 0
OS2WinDescent: 410
OS2WinDOffset: 0
HheadAscent: 2200
HheadAOffset: 0
HheadDescent: -410
HheadDOffset: 0
OS2SubXSize: 1434
OS2SubYSize: 1331
OS2SubXOff: 0
OS2SubYOff: 293
OS2SupXSize: 1434
OS2SupYSize: 1331
OS2SupXOff: 0
OS2SupYOff: 928
OS2StrikeYSize: 102
OS2StrikeYPos: 512
OS2CapHeight: 1434
OS2XHeight: 1300
OS2Vendor: 'RL  '
OS2CodePages: 20000007.00000000
OS2UnicodeRanges: 800002af.0000000b.00000000.00000000
Lookup: 258 0 0 "'kern' Horizontal Kerning in Latin lookup 0" { "'kern' Horizontal Kerning in Latin lookup 0 subtable"  } ['kern' ('latn' <'dflt' > ) ]
MarkAttachClasses: 1
DEI: 91125
TtTable: prep
PUSHW_1
 0
CALL
SVTCA[y-axis]
PUSHW_3
 1
 4
 7
CALL
PUSHW_1
 0
DUP
RCVT
RDTG
ROUND[Black]
RTG
WCVTP
EndTTInstrs
TtTable: fpgm
PUSHW_1
 0
FDEF
MPPEM
PUSHW_1
 9
LT
IF
PUSHB_2
 1
 1
INSTCTRL
EIF
PUSHW_1
 511
SCANCTRL
PUSHW_1
 68
SCVTCI
PUSHW_2
 9
 3
SDS
SDB
ENDF
PUSHW_1
 1
FDEF
DUP

StartChar: .notdef
Encoding: 65536 -1 0
Width: 1556
Flags: W
LayerCount: 2
Fore
SplineSet
216.032546226 1.61326961846 m 1,0,-1
 278.032546226 1537.61326962 l 1,1,-1
 279.582010604 1576 l 1,2,-1
 318 1576 l 1,3,-1
 1324 1576 l 1,4,-1
 1365.64715606 1576 l 1,5,-1
 1363.96745377 1534.38673038 l 1,6,-1
 1301.96745377 -1.61326961846 l 1,7,-1
 1300.4179894 -40 l 1,8,-1
 1262 -40 l 1,9,-1
 256 -40 l 1,10,-1
 214.352843937 -40 l 1,11,-1
 216.032546226 1.61326961846 l 1,0,-1
425.984396337 168 m 1,12,-1
 1095.89060366 168 l 1,13,-1
 1154.01560366 1368 l 1,14,-1
 484.109396337 1368 l 1,15,-1
 425.984396337 168 l 1,12,-1
EndSplineSet
Validated: 1
EndChar

StartChar: exclam
Encoding: 33 33 4
Width: 699
GlyphClass: 2
Flags: W
LayerCount: 2
Fore
SplineSet
210 143 m 0,0,1
 210 173 210 173 222 200 c 128,-1,2
 234 227 234 227 254 247 c 128,-1,3
 274 267 274 267 301 279 c 128,-1,4
 328 291 328 291 359 291 c 0,5,6
 391 291 391 291 418 279 c 0,7,8
 432 273 432 273 443.5 264.5 c 128,-1,9
 455 256 455 256 464 246 c 0,10,11
 470 239 470 239 475 232 c 128,-1,12
 480 225 480 225 484.5 216.5 c 128,-1,13
 489 208 489 208 493 200 c 0,14,15
 504 173 504 173 504 146 c 2,16,-1
 504 143 l 2,17,18
 504 115 504 115 493 87 c 0,19,20
 484 62 484 62 464 40 c 0,21,22
 444 17 444 17 417 6 c 0,23,24
 389 -6 389 -6 359 -6 c 0,25,26
 328 -6 328 -6 301 6 c 128,-1,27
 274 18 274 18 254 37.5 c 128,-1,28
 234 57 234 57 222 84 c 0,29,30
 210 112 210 112 210 143 c 0,0,1
658 1468 m 2,31,-1
 658 1434 l 1,32,-1
 658 1433 l 1,33,-1
 658 1432 l 1,34,-1
 628 943 l 2,35,36
 628 936 628 936 627 930 c 128,-1,37
 626 924 626 924 624 913 c 0,38,39
 621 893 621 893 618 871 c 0,40,41
 614 848 614 848 613 840 c 0,42,43
 609 818 609 818 607 808 c 0,44,45
 598 752 598 752 597 744 c 0,46,47
 586 685 586 685 586 682 c 128,-1,48
 586 679 586 679 583 664 c 128,-1,49
 580 649 580 649 580 647 c 0,50,51
 580 643 580 643 577 631 c 0,52,53
 576 627 576 627 574 612 c 0,54,55
 572 604 572 604 571 597 c 0,56,57
 568 586 568 586 568 583 c 0,58,59
 566 560 566 560 550 521 c 0,60,61
 537 488 537 488 511 465 c 0,62,63
 481 438 481 438 429 438 c 0,64,65
 414 438 414 438 409 439 c 0,66,67
 402 440 402 440 390 444 c 0,68,69
 383 446 383 446 372 451 c 0,70,71
 363 455 363 455 355 461 c 0,72,73
 345 469 345 469 340 474 c 0,74,75
 323 493 323 493 314 516 c 0,76,77
 305 538 305 538 305 565 c 2,78,-1
 305 587 l 1,79,-1
 305 590 l 1,80,-1
 305 593 l 1,81,-1
 370 1019 l 1,82,-1
 402 1510 l 2,83,84
 405 1560 405 1560 444 1591 c 0,85,86
 480 1620 480 1620 524 1620 c 0,87,88
 588 1620 588 1620 623 1578 c 128,-1,89
 658 1536 658 1536 658 1468 c 2,31,-1
EndSplineSet
Validated: 1
EndChar

StartChar: numbersign
Encoding: 35 35 6
Width: 1421
GlyphClass: 2
Flags: W
LayerCount: 2
Fore
SplineSet
94 78 m 0,0,1
 94 137.288011867 94 137.288011867 118.293174586 193.393676983 c 0,2,3
 139.763322122 242.979493912 139.763322122 242.979493912 164.796830084 292.535621917 c 0,4,5
 176.748603721 316.195255443 176.748603721 316.195255443 187.843187675 340.091282367 c 0,6,7
 198.93777163 363.987309292 198.93777163 363.987309292 209.176728725 388.121993874 c 0,8,9
 218.955023027 411.170830443 218.955023027 411.170830443 223.362326314 435 c 1,10,-1
 102 435 l 2,11,12
 73.8218840185 435 73.8218840185 435 51.7243575566 451.332954341 c 0,13,14
 34.4504282051 464.100641253 34.4504282051 464.100641253 22.0212154411 483.110025481 c 0,15,16
 10.2041971046 501.183112348 10.2041971046 501.183112348 4.53904209437 521.011154884 c 0,17,18
 -1 540.397802214 -1 540.397802214 -1 558 c 0,19,20
 -1 565.998517681 -1 565.998517681 0.00874807502133 574.234069751 c 0,21,22
 1.01749615004 582.469621821 1.01749615004 582.469621821 2.95251759264 591.177218313 c 0,23,24
 7.02073198165 609.484183063 7.02073198165 609.484183063 15.22291236 625.88854382 c 0,25,26
 22.2016619618 639.846043024 22.2016619618 639.846043024 33.388134071 657.185074793 c 0,27,28
 38.3960078904 664.947279213 38.3960078904 664.947279213 44.7669828985 671.4078906 c 0,29,30
 51.1379579065 677.868501987 51.1379579065 677.868501987 59.255954825 682.528833551 c 0,31,32
 74.0121802526 691 74.0121802526 691 91 691 c 2,33,-1
 278.631361091 691 l 1,34,-1
 312.445930628 913 l 1,35,-1
 154 913 l 2,36,37
 125.821884018 913 125.821884018 913 103.724357557 929.332954341 c 0,38,39
 100.223426344 931.920599151 100.223426344 931.920599151 96.8967041465 934.794742038 c 0,40,41
 93.5699819495 937.668884925 93.5699819495 937.668884925 90.5005349981 940.742677215 c 0,42,43
 87.4310880468 943.816469505 87.4310880468 943.816469505 84.5537398675 947.136573555 c 0,44,45
 81.6763916883 950.456677604 81.6763916883 950.456677604 79.0546700965 953.939085082 c 0,46,47
 76.4329485047 957.42149256 76.4329485047 957.42149256 74.0212154411 961.110025481 c 0,48,49
 62.2041971046 979.183112348 62.2041971046 979.183112348 56.5390420944 999.011154884 c 0,50,51
 51 1018.39780221 51 1018.39780221 51 1036 c 0,52,53
 51 1051.39088915 51 1051.39088915 54.9525175926 1069.17721831 c 0,54,55
 59.0207319817 1087.48418306 59.0207319817 1087.48418306 67.22291236 1103.88854382 c 0,56,57
 70.8215135145 1111.08574613 70.8215135145 1111.08574613 75.3314167384 1118.83662953 c 0,58,59
 79.8413199623 1126.58751292 79.8413199623 1126.58751292 85.388134071 1135.18507479 c 0,60,61
 96.1407057894 1151.85156096 96.1407057894 1151.85156096 111.255954825 1160.52883355 c 0,62,63
 126.012180253 1169 126.012180253 1169 143 1169 c 2,64,-1
 342 1169 l 1,65,-1
 342 1433 l 2,66,67
 342 1438.33754849 342 1438.33754849 342.602004907 1443.6794182 c 0,68,69
 343.204009814 1449.02128791 343.204009814 1449.02128791 344.381469291 1454.21875026 c 0,70,71
 345.558928768 1459.41621261 345.558928768 1459.41621261 347.287277242 1464.47305379 c 0,72,73
 349.015625716 1469.52989497 349.015625716 1469.52989497 351.279992579 1474.36815962 c 0,74,75
 353.544359441 1479.20642428 353.544359441 1479.20642428 356.308499391 1483.75912537 c 0,76,77
 362.419510751 1493.82432055 362.419510751 1493.82432055 370.136483311 1502.48220623 c 0,78,79
 377.853455872 1511.1400919 377.853455872 1511.1400919 387 1518 c 0,80,81
 405.060270292 1531.54520272 405.060270292 1531.54520272 426.862840075 1537.55970473 c 0,82,83
 446.583910435 1543 446.583910435 1543 466 1543 c 0,84,85
 506.111025509 1543 506.111025509 1543 532.688007849 1525.28201177 c 0,86,87
 558.231598348 1508.25295144 558.231598348 1508.25295144 571.480326343 1480.97615851 c 0,88,89
 575.297403919 1473.11746938 575.297403919 1473.11746938 578.27674498 1463.97719082 c 0,90,91
 581.256086041 1454.83691226 581.256086041 1454.83691226 583.079008711 1445.99097875 c 0,92,93
 584.901931381 1437.14504524 584.901931381 1437.14504524 585.756148031 1428.48222668 c 0,94,95
 590.042854013 1395.7807839 590.042854013 1395.7807839 588.920651392 1376.42278868 c 0,96,97
 585.965200249 1318.0061406 585.965200249 1318.0061406 584.489828066 1252.5979738 c 0,98,99
 583.516311854 1209.43875508 583.516311854 1209.43875508 583.171184536 1169 c 1,100,-1
 888.08651766 1169 l 2,101,102
 888.123828538 1169.33360315 888.123828538 1169.33360315 888.152609339 1169.59036189 c 0,103,-1
 888.244650613 1170.41726104 l 2,104,105
 888.620514005 1173.80003157 888.620514005 1173.80003157 888.810257003 1176.48187457 c 0,106,107
 889 1179.16371756 889 1179.16371756 889 1180 c 2,108,-1
 889 1184.23761418 l 1,109,-1
 889.887903437 1188.38116355 l 2,110,111
 890.106070131 1189.39927479 890.106070131 1189.39927479 890.386064841 1191.46564829 c 0,112,113
 890.666059552 1193.5320218 890.666059552 1193.5320218 890.993014621 1196.53723016 c 0,114,115
 891.319969689 1199.54243851 891.319969689 1199.54243851 891.667830382 1203.62209567 c 0,116,117
 892.015691076 1207.70175283 892.015691076 1207.70175283 892.345723899 1212.34827277 c 0,118,119
 892.675756722 1216.99479271 892.675756722 1216.99479271 892.987363834 1222.76849189 c 0,120,121
 893.298970945 1228.54219107 893.298970945 1228.54219107 893.529553015 1234.53732488 c 0,122,123
 894.028451821 1247.50869385 894.028451821 1247.50869385 894.527404797 1260.98041338 c 0,124,125
 895.026357773 1274.45213291 895.026357773 1274.45213291 895.525486538 1288.4277135 c 0,126,127
 896.024615303 1302.40329408 896.024615303 1302.40329408 896.523760026 1316.87849103 c 0,128,129
 898 1359.68945028 898 1359.68945028 898 1398 c 0,130,131
 898 1441.23761418 898 1441.23761418 901.887903437 1459.38116355 c 2,132,-1
 902.169643093 1460.69594861 l 1,133,-1
 902.539042094 1461.98884512 l 2,134,135
 908.326310995 1482.24428627 908.326310995 1482.24428627 920.120191674 1498.7959663 c 0,136,137
 931.914072354 1515.34764633 931.914072354 1515.34764633 949.292831937 1525.52057877 c 0,138,139
 979.153509865 1543 979.153509865 1543 1019 1543 c 0,140,141
 1033.90694051 1543 1033.90694051 1543 1047.78724332 1540.07768165 c 0,142,143
 1061.66754614 1537.15536329 1061.66754614 1537.15536329 1073.81682269 1531.60762056 c 0,144,145
 1085.96609924 1526.05987783 1085.96609924 1526.05987783 1096.5625808 1517.89032161 c 0,146,147
 1107.15906235 1509.72076538 1107.15906235 1509.72076538 1115.62074409 1499.37612009 c 0,148,149
 1124.08242582 1489.0314748 1124.08242582 1489.0314748 1130.45699634 1476.35553217 c 0,150,151
 1136.83156685 1463.67958955 1136.83156685 1463.67958955 1140.65940508 1449.26890447 c 2,152,-1
 1142 1444.22195888 l 1,153,-1
 1142 1439 l 1,154,-1
 1142 1353 l 1,155,-1
 1142 1295.5 l 2,156,157
 1142 1267.27273209 1142 1267.27273209 1140.97259335 1239.51953358 c 0,158,159
 1140 1213.25951311 1140 1213.25951311 1140 1186 c 0,160,161
 1140 1184.18260072 1140 1184.18260072 1139.97440214 1182.00304492 c 0,162,163
 1139.94880427 1179.82348912 1139.94880427 1179.82348912 1139.90521202 1177.67544397 c 0,164,165
 1139.86161976 1175.52739882 1139.86161976 1175.52739882 1139.80462554 1173.38644008 c 0,166,167
 1139.74763132 1171.24548134 1139.74763132 1171.24548134 1139.68402066 1169.37154445 c 0,168,169
 1139.62040999 1167.49760756 1139.62040999 1167.49760756 1139.55559326 1166 c 2,170,-1
 1264 1166 l 2,171,172
 1279.65034068 1166 1279.65034068 1166 1293.50245001 1159.10048194 c 0,173,174
 1296.60488229 1157.55520916 1296.60488229 1157.55520916 1299.55596703 1155.68065369 c 0,175,176
 1302.50705177 1153.80609822 1302.50705177 1153.80609822 1305.15615833 1151.71887152 c 0,177,178
 1307.80526489 1149.63164481 1307.80526489 1149.63164481 1310.17564249 1147.40942024 c 0,179,180
 1312.5460201 1145.18719566 1312.5460201 1145.18719566 1314.73176585 1142.75858926 c 0,181,182
 1327.15478726 1128.95523214 1327.15478726 1128.95523214 1336.51018126 1110.91268658 c 0,183,184
 1345.66850498 1093.25020512 1345.66850498 1093.25020512 1350.30570001 1074.701425 c 0,185,186
 1355 1055.92422502 1355 1055.92422502 1355 1042 c 0,187,188
 1355 1022.2971068 1355 1022.2971068 1347.81491927 1001.46037267 c 0,189,190
 1345.52124058 994.808704478 1345.52124058 994.808704478 1342.58859833 988.408983328 c 0,191,192
 1339.65595609 982.009262179 1339.65595609 982.009262179 1336.11731332 975.927770524 c 0,193,194
 1332.57867055 969.846278868 1332.57867055 969.846278868 1328.46137366 964.127810966 c 0,195,196
 1325.76782398 960.386769751 1325.76782398 960.386769751 1322.78657307 956.866768097 c 0,197,198
 1319.80532215 953.346766442 1319.80532215 953.346766442 1316.56011314 950.076872685 c 0,199,200
 1313.31490413 946.806978929 1313.31490413 946.806978929 1309.82845832 943.804068261 c 0,201,202
 1306.34201252 940.801157592 1306.34201252 940.801157592 1302.61423147 938.074351967 c 0,203,204
 1298.88645042 935.347546341 1298.88645042 935.347546341 1294.96389703 932.933667332 c 0,205,206
 1283.97180831 926.169305046 1283.97180831 926.169305046 1271.42513741 922.584652523 c 0,207,208
 1258.8784665 919 1258.8784665 919 1246 919 c 2,209,-1
 1119.84998019 919 l 1,210,-1
 1087.91107344 688 l 1,211,-1
 1212 688 l 2,212,213
 1227.44490908 688 1227.44490908 688 1241.28793091 681.27255014 c 0,214,215
 1252.94573575 675.607074889 1252.94573575 675.607074889 1262.49997734 665.549978477 c 0,216,217
 1276.31942207 651.003194554 1276.31942207 651.003194554 1285.54006679 631.852624751 c 0,218,219
 1287.12752572 628.555594658 1287.12752572 628.555594658 1288.59648291 625.225628319 c 0,220,221
 1290.06544011 621.895661979 1290.06544011 621.895661979 1291.41981092 618.521826607 c 0,222,223
 1292.77418173 615.147991234 1292.77418173 615.147991234 1294.0070447 611.74591821 c 0,224,225
 1295.23990767 608.343845186 1295.23990767 608.343845186 1296.35509573 604.900024848 c 0,226,227
 1297.47028379 601.45620451 1297.47028379 601.45620451 1298.46095791 597.988845116 c 0,228,229
 1301.17577585 588.486982324 1301.17577585 588.486982324 1302.58788792 580.394935966 c 0,230,231
 1304 572.302889608 1304 572.302889608 1304 564 c 0,232,233
 1304 544.297106799 1304 544.297106799 1296.81491927 523.460372667 c 0,234,235
 1295.04644337 518.331792561 1295.04644337 518.331792561 1292.86093183 513.344297403 c 0,236,237
 1290.67542029 508.356802244 1290.67542029 508.356802244 1288.10651013 503.57638294 c 0,238,239
 1285.53759997 498.795963635 1285.53759997 498.795963635 1282.59348094 494.219259982 c 0,240,241
 1279.64936191 489.642556329 1279.64936191 489.642556329 1276.34648776 485.296669299 c 0,242,243
 1262.32621208 466.848938134 1262.32621208 466.848938134 1242.96389703 454.933667332 c 0,244,245
 1231.97180831 448.169305046 1231.97180831 448.169305046 1219.42513741 444.584652523 c 0,246,247
 1206.8784665 441 1206.8784665 441 1194 441 c 2,248,-1
 1035.13345253 441 l 1,249,250
 1009.31541083 341.268849303 1009.31541083 341.268849303 976.497031598 241.500976448 c 0,251,252
 937.693779508 123.539090094 937.693779508 123.539090094 877.60124757 19.9312764091 c 2,253,-1
 876.416649646 17.8888661952 l 1,254,-1
 875 16 l 2,255,256
 855.354062061 -10.1945839181 855.354062061 -10.1945839181 832.232068644 -24.2079132622 c 0,257,258
 806.175125526 -40 806.175125526 -40 771 -40 c 0,259,260
 717.682841574 -40 717.682841574 -40 682.521478097 -5.58675063974 c 0,261,262
 647 29.1789513278 647 29.1789513278 647 83 c 0,263,264
 647 141.549119754 647 141.549119754 671.994734176 197.351316984 c 0,265,266
 694.176334371 246.873029047 694.176334371 246.873029047 721.482214201 296.33273591 c 0,267,268
 747.102347287 342.739014706 747.102347287 342.739014706 767.87088408 390.071959026 c 0,269,270
 777.753121043 412.594266523 777.753121043 412.594266523 782.296921503 436.000122381 c 1,271,272
 766.189812383 436.008344489 766.189812383 436.008344489 750.866267182 436.13037207 c 0,273,274
 735.542721982 436.252399651 735.542721982 436.252399651 718.411828302 436.504324558 c 0,275,276
 684.590001186 437.001704369 684.590001186 437.001704369 653.356503758 438 c 2,277,-1
 614.364919705 438 l 2,278,279
 604.153644487 437.061295328 604.153644487 437.061295328 570.703876863 437.003556948 c 0,280,281
 559.205840866 435.069307902 559.205840866 435.069307902 514.961968555 435.000068665 c 0,282,283
 497.306760934 433.295166642 497.306760934 433.295166642 478.717410247 432.544664906 c 1,284,285
 474.397565389 415.284357637 474.397565389 415.284357637 469.112096563 390.618836451 c 0,286,287
 464.525912474 369.216644036 464.525912474 369.216644036 458.945846796 345.501403361 c 0,288,289
 453.365781118 321.786162686 453.365781118 321.786162686 446.783449553 295.710003025 c 0,290,291
 433.377917608 242.603472627 433.377917608 242.603472627 414.34090803 187.035985212 c 0,292,293
 407.863367249 168.128568876 407.863367249 168.128568876 400.792964071 150.302586431 c 0,294,295
 393.722560893 132.476603987 393.722560893 132.476603987 385.978047819 115.566690797 c 0,296,297
 378.233534745 98.6567776064 378.233534745 98.6567776064 369.870831983 82.8210213123 c 0,298,299
 343.387356724 32.6714617787 343.387356724 32.6714617787 309.292480837 -0.267655603391 c 0,300,301
 268.166019093 -40 268.166019093 -40 215 -40 c 0,302,303
 163.688353624 -40 163.688353624 -40 129.028233781 -6.09336102341 c 0,304,305
 94 28.173389415 94 28.173389415 94 78 c 0,0,1
532.214998292 691 m 1,306,-1
 834.416020327 691 l 2,307,308
 834.748386744 692.800821679 834.748386744 692.800821679 835.044243047 694.575959492 c 0,309,310
 835.8024493 699.125197014 835.8024493 699.125197014 836.789250568 703.380153296 c 0,311,312
 837.776051835 707.635109579 837.776051835 707.635109579 839.080177737 711.948756794 c 0,313,314
 842.910179616 736.130885446 842.910179616 736.130885446 848.421557435 773.791967205 c 0,315,316
 854.362524553 814.38857585 854.362524553 814.38857585 859.308884931 853.961389384 c 0,317,318
 863.831345489 890.141073848 863.831345489 890.141073848 867.570769512 918.004343086 c 1,319,320
 865.179176725 918 865.179176725 918 863 918 c 0,321,322
 828.253154417 918 828.253154417 918 789.006288554 917.50320423 c 0,323,324
 749.531925393 917.003528747 749.531925393 917.003528747 714.06332441 916.503966877 c 0,325,326
 680.495116608 916.031175217 680.495116608 916.031175217 665.332190791 916.00086957 c 0,327,328
 657.200316738 915.473011078 657.200316738 915.473011078 648.313281388 915.00401211 c 0,329,330
 639.426246038 914.535013141 639.426246038 914.535013141 628.276024545 914.039447741 c 0,331,332
 616.596322131 913.520349856 616.596322131 913.520349856 605.278732106 913.260174928 c 0,333,334
 593.961142082 913 593.961142082 913 583 913 c 0,335,336
 575.655279667 913 575.655279667 913 564.296164941 912.360049875 c 1,337,-1
 532.214998292 691 l 1,306,-1
EndSplineSet
Validated: 1
EndChar

StartChar: dollar
Encoding: 36 36 7
Width: 1280
GlyphClass: 2
Flags: W
LayerCount: 2
Fore
SplineSet
475 -93 m 1,0,-1
 475 -2.2153693694 l 1,1,2
 448.534768307 0.235924889524 448.534768307 0.235924889524 419.386664985 5.63550567983 c 0,3,4
 368.580609142 15.0471438965 368.580609142 15.0471438965 315.314318451 29.8709150874 c 0,5,6
 261.148953597 44.944894609 261.148953597 44.944894609 209.616383887 67.0519356892 c 0,7,8
 156.217523021 89.9596000544 156.217523021 89.9596000544 113.91401693 121.455868709 c 0,9,10
 69.6589710085 154.405119125 69.6589710085 154.405119125 42.3577707791 197.141409883 c 0,11,12
 13 243.096980242 13 243.096980242 13 299.702838063 c 0,13,14
 13 347.566637138 13 347.566637138 44.9714593231 382.280425054 c 0,15,16
 78.9173574229 419.138007791 78.9173574229 419.138007791 135 419.138007791 c 0,17,18
 150.801904369 419.138007791 150.801904369 419.138007791 166.310243912 414.727466345 c 256,19,20
 181.818583455 410.3169249 181.818583455 410.3169249 196.760376304 402.205217786 c 0,21,22
 221.299008929 388.883509821 221.299008929 388.883509821 248.601271948 368.535803215 c 0,23,24
 273.597353283 349.906837222 273.597353283 349.906837222 303.094622984 327.93279974 c 0,25,26
 312.15317915 321.184614129 312.15317915 321.184614129 321.852220825 314.662541122 c 256,27,28
 331.551262499 308.140468114 331.551262499 308.140468114 341.986922483 301.789895304 c 256,29,30
 352.422582466 295.439322493 352.422582466 295.439322493 363.502975084 289.325640071 c 0,31,32
 396.694709888 271.011873347 396.694709888 271.011873347 436.72999221 255.260652089 c 0,33,34
 454.530566891 248.257309685 454.530566891 248.257309685 475 244.679729783 c 1,35,-1
 475 728.015384228 l 1,36,-1
 399.618398281 747.222241605 l 2,37,38
 374.070035954 753.833549752 374.070035954 753.833549752 348.628514562 762.398022221 c 256,39,40
 323.18699317 770.962494689 323.18699317 770.962494689 297.606323017 781.545565256 c 0,41,42
 280.020477486 788.821068326 280.020477486 788.821068326 263.298356703 797.273461407 c 256,43,44
 246.576235921 805.725854488 246.576235921 805.725854488 230.699955638 815.37209909 c 256,45,46
 214.823675354 825.018343693 214.823675354 825.018343693 199.875669005 835.817338413 c 0,47,48
 154.188623307 868.82335632 154.188623307 868.82335632 120.718786974 912.529089363 c 0,49,50
 85.5971814817 958.391743079 85.5971814817 958.391743079 72.8346465013 1017.1464072 c 2,51,-1
 72 1020.98885503 l 1,52,-1
 72 1024.91318865 l 1,53,-1
 72 1083.19755147 l 2,54,55
 72 1172.34477009 72 1172.34477009 101.579194116 1247.18770904 c 0,56,57
 116.362811722 1284.59404897 116.362811722 1284.59404897 137.386099535 1317.63230892 c 256,58,59
 158.409387348 1350.67056886 158.409387348 1350.67056886 185.502393773 1378.93479636 c 0,60,61
 239.660196401 1435.43382161 239.660196401 1435.43382161 315.529869601 1470.62924125 c 0,62,63
 351.47318122 1487.30309633 351.47318122 1487.30309633 391.72668433 1498.41612365 c 256,64,65
 431.980187441 1509.52915097 431.980187441 1509.52915097 475 1514.90306713 c 1,66,-1
 475 1624 l 1,67,-1
 475 1664 l 1,68,-1
 515 1664 l 1,69,-1
 689 1664 l 1,70,-1
 729 1664 l 1,71,-1
 729 1624 l 1,72,-1
 729 1515.19974727 l 1,73,74
 751.608571182 1514.11964385 751.608571182 1514.11964385 776 1514.11964385 c 0,75,76
 801.398934359 1514.11964385 801.398934359 1514.11964385 826.795280486 1511.79633135 c 256,77,78
 852.191626612 1509.47301885 852.191626612 1509.47301885 877.522890832 1504.83829637 c 0,79,80
 901.556943089 1500.44091765 901.556943089 1500.44091765 924.85091754 1495.54927872 c 256,81,82
 948.14489199 1490.65763979 948.14489199 1490.65763979 970.701425001 1485.26955309 c 0,83,84
 1018.60671448 1473.82640034 1018.60671448 1473.82640034 1055.73915496 1456.88103692 c 0,85,86
 1075.63988466 1447.79935275 1075.63988466 1447.79935275 1092.2894866 1436.45758138 c 256,87,88
 1108.93908854 1425.11581001 1108.93908854 1425.11581001 1122.06785349 1411.34768667 c 0,89,90
 1129.50031546 1403.55327085 1129.50031546 1403.55327085 1135.2807076 1394.65892502 c 256,91,92
 1141.06109974 1385.76457919 1141.06109974 1385.76457919 1144.9885288 1376.1677072 c 256,93,94
 1148.91595787 1366.57083521 1148.91595787 1366.57083521 1150.95797893 1356.27161902 c 256,95,96
 1153 1345.97240284 1153 1345.97240284 1153 1335.44462994 c 0,97,98
 1153 1287.58083086 1153 1287.58083086 1121.02854068 1252.86704295 c 0,99,100
 1087.08264258 1216.00946021 1087.08264258 1216.00946021 1031 1216.00946021 c 2,101,-1
 1019 1216.00946021 l 1,102,-1
 1014.71248349 1216.00946021 l 1,103,-1
 1010.52236859 1216.87770575 l 2,104,105
 926.886927021 1234.20804184 926.886927021 1234.20804184 844.742588476 1253.9500384 c 0,106,107
 787.79055845 1267.6376502 787.79055845 1267.6376502 729 1271.19476011 c 1,108,-1
 729 915.719670884 l 1,109,-1
 860.209246548 882.236294926 l 2,110,111
 884.308801335 876.229336145 884.308801335 876.229336145 908.235011662 868.680123412 c 256,112,113
 932.161221988 861.13091068 932.161221988 861.13091068 955.784723648 852.082296368 c 256,114,115
 979.408225308 843.033682056 979.408225308 843.033682056 1002.62345379 832.526552463 c 0,116,117
 1074.34078563 800.067543912 1074.34078563 800.067543912 1130.14638597 752.440831367 c 0,118,119
 1158.55256974 728.197867563 1158.55256974 728.197867563 1181.69973563 699.72430181 c 256,120,121
 1204.84690152 671.250736057 1204.84690152 671.250736057 1222.48394754 638.863550939 c 0,122,123
 1240.79142561 605.245240905 1240.79142561 605.245240905 1249.8957128 567.324403097 c 256,124,125
 1259 529.403565289 1259 529.403565289 1259 487.932665554 c 0,126,127
 1259 415.898046434 1259 415.898046434 1234.35888516 354.362262921 c 0,128,129
 1222.28959566 324.221857734 1222.28959566 324.221857734 1205.75980697 296.450917933 c 256,130,131
 1189.23001827 268.679978132 1189.23001827 268.679978132 1168.36183298 243.493668214 c 0,132,133
 1126.32985231 193.335439397 1126.32985231 193.335439397 1071.24927524 154.291457432 c 0,134,135
 1016.86339989 115.948579351 1016.86339989 115.948579351 954.644754003 86.7280042455 c 0,136,137
 939.179542566 79.464870085 939.179542566 79.464870085 923.415294737 72.7950187689 c 256,138,139
 907.651046909 66.1251674529 907.651046909 66.1251674529 891.598854446 60.0529090524 c 256,140,141
 875.546661983 53.9806506519 875.546661983 53.9806506519 859.20694699 48.5051370565 c 256,142,143
 842.867231997 43.0296234611 842.867231997 43.0296234611 826.2422749 38.1516027789 c 0,144,145
 802.027724254 31.0466774445 802.027724254 31.0466774445 777.413250118 25.0865832427 c 256,146,147
 752.798775982 19.1264890409 752.798775982 19.1264890409 729 14.5695913403 c 1,148,-1
 729 -93 l 1,149,-1
 729 -133 l 1,150,-1
 689 -133 l 1,151,-1
 515 -133 l 1,152,-1
 475 -133 l 1,153,-1
 475 -93 l 1,0,-1
839.7214136 629.343142529 m 2,154,-1
 729 658.914700199 l 1,155,-1
 729 241.029995216 l 1,156,157
 765.420352029 250.46958315 765.420352029 250.46958315 801.733468082 263.235913012 c 0,158,159
 831.505875441 273.702774974 831.505875441 273.702774974 858.267065306 286.852655273 c 256,160,161
 885.028255171 300.002535572 885.028255171 300.002535572 908.88600678 315.831236158 c 0,162,163
 920.434080387 323.49293884 920.434080387 323.49293884 930.837792627 331.796579359 c 256,164,165
 941.241504867 340.100219879 941.241504867 340.100219879 950.494422148 349.036035479 c 256,166,167
 959.747339429 357.97185108 959.747339429 357.97185108 967.883829742 367.516086918 c 256,168,169
 976.020320055 377.060322756 976.020320055 377.060322756 983.149702176 387.322312172 c 0,170,171
 996.143208432 406.025086328 996.143208432 406.025086328 1002.57160422 427.553478319 c 256,172,173
 1009 449.081870311 1009 449.081870311 1009 475 c 0,174,175
 1009 502.122575318 1009 502.122575318 996.00856558 524.243125817 c 0,176,177
 990.993635278 532.782061196 990.993635278 532.782061196 985.071056046 540.642841332 c 256,178,179
 979.148476814 548.503621468 979.148476814 548.503621468 972.177065374 555.83645792 c 256,180,181
 965.205653935 563.169294371 965.205653935 563.169294371 957.185934033 569.944574978 c 0,182,183
 932.014977832 591.209693148 932.014977832 591.209693148 901.523841491 606.019673657 c 0,184,185
 870.013715359 621.324592064 870.013715359 621.324592064 839.7214136 629.343142529 c 2,154,-1
336.549266992 1183.92180995 m 0,186,187
 322 1148.17218248 322 1148.17218248 322 1095 c 0,188,189
 322 1077.64802749 322 1077.64802749 329.746459509 1065.47501969 c 0,190,191
 334.937685292 1057.31737917 334.937685292 1057.31737917 341.367159667 1050.24500309 c 256,192,193
 347.796634041 1043.17262701 347.796634041 1043.17262701 355.712862077 1036.95273355 c 0,194,195
 359.885124856 1033.67452708 359.885124856 1033.67452708 364.302925386 1030.67016064 c 256,196,197
 368.720725917 1027.66579419 368.720725917 1027.66579419 373.443958434 1024.89936456 c 256,198,199
 378.16719095 1022.13293494 378.16719095 1022.13293494 383.205931645 1019.61562403 c 256,200,201
 388.24467234 1017.09831313 388.24467234 1017.09831313 393.585599633 1014.83869004 c 0,202,203
 399.385139542 1012.38503854 399.385139542 1012.38503854 405.137212329 1010.1888196 c 256,204,205
 410.889285116 1007.99260065 410.889285116 1007.99260065 416.408116666 1006.11863434 c 256,206,207
 421.926948216 1004.24466803 421.926948216 1004.24466803 427.219358214 1002.67389111 c 256,208,209
 432.511768213 1001.1031142 432.511768213 1001.1031142 437.54368086 999.845136041 c 2,210,-1
 475 990.803955559 l 1,211,-1
 475 1289.3147447 l 1,212,213
 454.871749587 1284.44630307 454.871749587 1284.44630307 436.593190352 1277.56496313 c 0,214,215
 401.203065347 1264.24162195 401.203065347 1264.24162195 375.336532959 1240.83856884 c 0,216,217
 350.607361573 1218.46455663 350.607361573 1218.46455663 336.549266992 1183.92180995 c 0,186,187
EndSplineSet
Validated: 1
EndChar

StartChar: percent
Encoding: 37 37 8
Width: 1659
GlyphClass: 2
Flags: W
LayerCount: 2
Fore
SplineSet
161.323785471 5.12047179538 m 0,0,1
 125 38.1774691655 125 38.1774691655 125 85.7248558791 c 0,2,3
 125 92.168688618 125 92.168688618 125.250888239 98.3330238983 c 0,4,5
 125.501776478 104.497359179 125.501776478 104.497359179 126.021463703 110.549246115 c 0,6,7
 126.541150928 116.601133051 126.541150928 116.601133051 127.328885335 122.39858589 c 0,8,9
 131.076573118 149.980272039 131.076573118 149.980272039 154.541242996 171.326637485 c 2,10,-1
 755.949379365 789.799823276 l 1,11,-1
 1047.54474025 1120.76240273 l 2,12,13
 1058.13028205 1132.36130009 1058.13028205 1132.36130009 1076.15009489 1162.73546455 c 0,14,15
 1081.12442107 1171.12017992 1081.12442107 1171.12017992 1086.35012697 1179.98180272 c 0,16,17
 1091.57583286 1188.84342551 1091.57583286 1188.84342551 1097.0542055 1198.18415458 c 0,18,19
 1102.53257813 1207.52488365 1102.53257813 1207.52488365 1108.26421259 1217.34584924 c 0,20,21
 1113.99584705 1227.16681482 1113.99584705 1227.16681482 1119.97689264 1237.46144701 c 0,22,23
 1132.04161153 1258.22735519 1132.04161153 1258.22735519 1144.85333076 1279.93608093 c 0,24,25
 1157.66505 1301.64480667 1157.66505 1301.64480667 1171.22531158 1324.29926171 c 0,26,27
 1175.81595748 1331.96862565 1175.81595748 1331.96862565 1180.36466497 1339.410307 c 0,28,29
 1184.91337247 1346.85198836 1184.91337247 1346.85198836 1189.43127412 1354.08392173 c 0,30,31
 1193.94917577 1361.31585511 1193.94917577 1361.31585511 1198.43061216 1368.32745522 c 0,32,33
 1202.91204855 1375.33905534 1202.91204855 1375.33905534 1207.35946179 1382.134564 c 0,34,35
 1211.80687504 1388.93007266 1211.80687504 1388.93007266 1216.22387553 1395.51351024 c 0,36,37
 1220.64087603 1402.09694782 1220.64087603 1402.09694782 1225.02121544 1408.45886333 c 0,38,39
 1251.87115554 1447.45516798 1251.87115554 1447.45516798 1275.71515515 1474.21512923 c 0,40,41
 1307.37839563 1508.38382437 1307.37839563 1508.38382437 1339.42404051 1513.45575695 c 0,42,43
 1348.68949879 1515 1348.68949879 1515 1357.71405809 1515 c 0,44,45
 1379.64022066 1514.21692277 1379.64022066 1514.21692277 1398.74587039 1506.20516814 c 0,46,47
 1417.85152012 1498.19341352 1417.85152012 1498.19341352 1433.99482466 1483.51768212 c 0,48,49
 1452.90046161 1467.01434742 1452.90046161 1467.01434742 1462.4502308 1444.55545374 c 0,50,51
 1472 1422.09656007 1472 1422.09656007 1472 1396.68212826 c 0,52,53
 1472 1388.77141957 1472 1388.77141957 1471.43120895 1380.68270253 c 0,54,55
 1470.8624179 1372.59398549 1470.8624179 1372.59398549 1469.7516534 1364.474965 c 0,56,57
 1468.6408889 1356.3559445 1468.6408889 1356.3559445 1466.98160597 1348.05602135 c 0,58,59
 1465.32232303 1339.75609819 1465.32232303 1339.75609819 1463.1619811 1331.43643798 c 0,60,61
 1461.00163917 1323.11677776 1461.00163917 1323.11677776 1458.31305141 1314.61332059 c 0,62,63
 1445.54541051 1274.23186484 1445.54541051 1274.23186484 1425.44431691 1232.07115234 c 0,64,65
 1415.48749172 1211.18737095 1415.48749172 1211.18737095 1404.1108577 1190.46671136 c 0,66,67
 1392.73422367 1169.74605178 1392.73422367 1169.74605178 1379.94532024 1149.19150585 c 0,68,69
 1354.82580503 1108.81898827 1354.82580503 1108.81898827 1329.14355875 1072.75387601 c 0,70,71
 1303.47299615 1036.70517094 1303.47299615 1036.70517094 1279.80615842 1007.41470919 c 0,72,73
 1257.14663724 979.073484556 1257.14663724 979.073484556 1238.4617379 958.389694609 c 2,74,-1
 720.552459439 376.853201875 l 1,75,-1
 719.569020786 375.748943872 l 1,76,-1
 718.499897909 374.718871632 l 1,77,-1
 329.392500293 -0.176042202392 l 2,78,79
 309.931522945 -19.6370195497 309.931522945 -19.6370195497 284.113285043 -25.1694991001 c 0,80,81
 274.393919422 -27.1133722244 274.393919422 -27.1133722244 265.609461283 -28.0566861122 c 0,82,83
 256.825003144 -29 256.825003144 -29 248 -29 c 0,84,85
 196.92775604 -29 196.92775604 -29 161.323785471 5.12047179538 c 0,0,1
959.357011349 238.787458219 m 0,86,87
 934 305.787024584 934 305.787024584 934 376.974779319 c 0,88,89
 934 412.031784904 934 412.031784904 940.35929441 446.4252266 c 0,90,91
 946.71858882 480.818668295 946.71858882 480.818668295 959.357011349 514.212541781 c 0,92,93
 984.7332869 581.263008986 984.7332869 581.263008986 1030.72075068 633.87480836 c 0,94,95
 1077.36521565 687.238247665 1077.36521565 687.238247665 1143.00772085 719.735819273 c 0,96,97
 1154.24403532 725.29857062 1154.24403532 725.29857062 1165.95565898 729.942555985 c 0,98,99
 1177.66728265 734.58654135 1177.66728265 734.58654135 1189.73691745 738.273502581 c 0,100,101
 1201.80655224 741.960463812 1201.80655224 741.960463812 1214.27001443 744.730154357 c 0,102,103
 1226.73347662 747.499844903 1226.73347662 747.499844903 1239.53799509 749.333418432 c 0,104,105
 1252.34251357 751.166991961 1252.34251357 751.166991961 1265.45507583 752.083495981 c 0,106,107
 1278.5676381 753 1278.5676381 753 1292 753 c 0,108,109
 1308.27766183 753 1308.27766183 753 1324.03607997 751.712477717 c 0,110,111
 1339.79449811 750.424955434 1339.79449811 750.424955434 1355.11915123 747.821665934 c 0,112,113
 1370.44380434 745.218376433 1370.44380434 745.218376433 1385.15113388 741.317449612 c 0,114,115
 1399.85846343 737.41652279 1399.85846343 737.41652279 1414.0616654 732.1563492 c 0,116,117
 1428.26486737 726.896175609 1428.26486737 726.896175609 1441.7526659 720.328249659 c 0,118,119
 1507.45346243 688.335039983 1507.45346243 688.335039983 1554.1525788 635.44333655 c 0,120,121
 1600.35646908 583.112529206 1600.35646908 583.112529206 1625.26800726 515.301625912 c 0,122,123
 1650 447.979457522 1650 447.979457522 1650 376.974779319 c 0,124,125
 1650 341.084286294 1650 341.084286294 1643.79950543 306.28136676 c 0,126,127
 1637.59901086 271.478447225 1637.59901086 271.478447225 1625.23591301 238.086130474 c 0,128,129
 1600.35809974 170.891982944 1600.35809974 170.891982944 1554.27924932 118.175633002 c 0,130,131
 1506.80277001 64.6213757505 1506.80277001 64.6213757505 1441.7526659 32.6717503406 c 0,132,133
 1374.658428 0 1374.658428 0 1292 0 c 0,134,135
 1210.19871538 0 1210.19871538 0 1143.00772085 33.2641807272 c 0,136,137
 1077.36521565 65.7617523354 1077.36521565 65.7617523354 1030.72075068 119.12519164 c 0,138,139
 984.7332869 171.736991014 984.7332869 171.736991014 959.357011349 238.787458219 c 0,86,87
1192.79628025 420.573937042 m 0,140,141
 1185 398.429324386 1185 398.429324386 1185 376.928315412 c 0,142,143
 1185 366.194715984 1185 366.194715984 1186.93957969 355.176523233 c 0,144,145
 1188.87915938 344.158330483 1188.87915938 344.158330483 1192.84587465 332.712400134 c 0,146,147
 1200.45122449 310.767214114 1200.45122449 310.767214114 1215.09163365 293.141426547 c 0,148,149
 1228.84462886 276.584008692 1228.84462886 276.584008692 1248.85800038 266.107076451 c 0,150,151
 1266.25462949 257 1266.25462949 257 1289 257 c 0,152,153
 1298.00033197 257 1298.00033197 257 1305.98276642 258.057620784 c 0,154,155
 1313.96520087 259.115241567 1313.96520087 259.115241567 1320.68436164 261.077410226 c 0,156,157
 1327.40352241 263.039578885 1327.40352241 263.039578885 1333.62736468 265.990964404 c 0,158,159
 1354.07936226 275.689431512 1354.07936226 275.689431512 1367.9246869 291.607245317 c 0,160,161
 1375.3394061 300.131864482 1375.3394061 300.131864482 1381.03265908 309.886033864 c 0,162,163
 1386.72591206 319.640203245 1386.72591206 319.640203245 1390.76883965 330.895916541 c 0,164,165
 1399 353.811879985 1399 353.811879985 1399 376.928315412 c 0,166,167
 1399 381.547233921 1399 381.547233921 1398.67707366 386.115076668 c 0,168,169
 1398.35414731 390.682919414 1398.35414731 390.682919414 1397.70419887 395.232311684 c 0,170,171
 1397.05425044 399.781703954 1397.05425044 399.781703954 1396.07470325 404.306100079 c 0,172,173
 1395.09515606 408.830496204 1395.09515606 408.830496204 1393.78246139 413.349588601 c 0,174,175
 1392.46976671 417.868680997 1392.46976671 417.868680997 1390.82080088 422.388856866 c 0,176,177
 1382.85331411 444.229480106 1382.85331411 444.229480106 1367.9246869 461.392754683 c 0,178,179
 1354.07936226 477.310568488 1354.07936226 477.310568488 1333.62736468 487.009035596 c 0,180,181
 1324.22681996 491.466833586 1324.22681996 491.466833586 1313.30015079 493.733416793 c 0,182,183
 1302.37348162 496 1302.37348162 496 1289 496 c 0,184,185
 1266.25462949 496 1266.25462949 496 1248.85800038 486.892923549 c 0,186,187
 1238.74419999 481.598383281 1238.74419999 481.598383281 1230.4028317 474.924014759 c 0,188,189
 1222.06146342 468.249646238 1222.06146342 468.249646238 1215.09163365 459.858573453 c 0,190,191
 1200.39970461 442.17076041 1200.39970461 442.17076041 1192.79628025 420.573937042 c 0,140,141
73.944278299 1042.40882289 m 0,192,193
 67 1079.90760435 67 1079.90760435 67 1119 c 0,194,195
 67 1196.30682065 67 1196.30682065 93.5832811419 1266.64175201 c 0,196,197
 120.14873218 1336.92950788 120.14873218 1336.92950788 167.934972437 1391.38359562 c 0,198,199
 192.049782003 1418.86326233 192.049782003 1418.86326233 221.078183405 1440.8459986 c 0,200,201
 250.106584806 1462.82873487 250.106584806 1462.82873487 283.593253578 1479.01395811 c 0,202,203
 351.840236791 1512 351.840236791 1512 434 1512 c 0,204,205
 516.74185254 1512 516.74185254 1512 585.686706413 1480.35318183 c 0,206,207
 653.929240186 1449.0287401 653.929240186 1449.0287401 703.344722994 1395.68248025 c 0,208,209
 727.940147077 1369.13060198 727.940147077 1369.13060198 747.102322874 1338.07965173 c 0,210,211
 766.264498672 1307.02870149 766.264498672 1307.02870149 779.818656689 1271.89853683 c 0,212,213
 807 1201.44893274 807 1201.44893274 807 1122 c 0,214,215
 807 1111.03768838 807 1111.03768838 806.470516802 1100.18016107 c 0,216,217
 805.941033603 1089.32263376 805.941033603 1089.32263376 804.881170199 1078.57218533 c 0,218,219
 803.821306795 1067.82173689 803.821306795 1067.82173689 802.233315938 1057.19319899 c 0,220,221
 800.645325081 1046.56466108 800.645325081 1046.56466108 798.52551536 1036.05262228 c 0,222,223
 796.405705639 1025.54058347 796.405705639 1025.54058347 793.759310504 1015.16809515 c 0,224,225
 791.112915369 1004.79560683 791.112915369 1004.79560683 787.933262713 994.549037827 c 0,226,227
 784.753610056 984.302468825 784.753610056 984.302468825 781.048727731 974.212576536 c 0,228,229
 755.057255402 903.427290194 755.057255402 903.427290194 707.848614661 848.443108624 c 0,230,231
 698.314854733 837.339082355 698.314854733 837.339082355 687.970093659 827.093423682 c 0,232,233
 677.625332586 816.84776501 677.625332586 816.84776501 666.52371295 807.508793573 c 0,234,235
 655.422093315 798.169822137 655.422093315 798.169822137 643.565606622 789.727759037 c 0,236,237
 631.709119929 781.285695936 631.709119929 781.285695936 619.128318119 773.766275836 c 0,238,239
 606.54751631 766.246855735 606.54751631 766.246855735 593.26798153 759.66288471 c 0,240,241
 559.276836893 742.810132326 559.276836893 742.810132326 521.526427973 734.405066163 c 0,242,243
 483.776019054 726 483.776019054 726 443 726 c 0,244,245
 415.995901835 726 415.995901835 726 390.171417601 729.550877333 c 0,246,247
 364.346933367 733.101754666 364.346933367 733.101754666 339.611151399 740.280489728 c 0,248,249
 314.87536943 747.45922479 314.87536943 747.45922479 291.681559489 758.207575739 c 0,250,251
 223.034932027 790.019427489 223.034932027 790.019427489 172.677495998 844.293552988 c 0,252,253
 122.507423454 898.365742284 122.507423454 898.365742284 94.7417060208 969.445978914 c 0,254,255
 80.8885565979 1004.91004144 80.8885565979 1004.91004144 73.944278299 1042.40882289 c 0,192,193
320.358105317 1148.55656562 m 0,256,257
 318 1135.48880878 318 1135.48880878 318 1122 c 0,258,259
 318 1096.77004351 318 1096.77004351 327.272144535 1070.16302007 c 0,260,261
 330.413762215 1061.14794324 330.413762215 1061.14794324 334.375634137 1052.76811471 c 0,262,263
 338.337506059 1044.38828617 338.337506059 1044.38828617 343.120570828 1036.61824663 c 0,264,265
 347.903635597 1028.8482071 347.903635597 1028.8482071 353.574088695 1021.55762454 c 0,266,267
 369.762437241 1000.74403355 369.762437241 1000.74403355 392.471944955 987.657198599 c 0,268,269
 402.766916323 981.724503234 402.766916323 981.724503234 413.627518894 978.862251617 c 0,270,271
 424.488121466 976 424.488121466 976 437 976 c 0,272,273
 446.269015525 976 446.269015525 976 454.622827501 977.317247614 c 0,274,275
 462.976639477 978.634495227 462.976639477 978.634495227 470.352390243 981.167910812 c 0,276,277
 477.728141009 983.701326397 477.728141009 983.701326397 484.723250009 987.548636347 c 0,278,279
 507.394627966 1000.01789422 507.394627966 1000.01789422 522.295040436 1019.38843043 c 0,280,281
 538.12831456 1039.9716868 538.12831456 1039.9716868 546.996327715 1066.97881777 c 0,282,283
 551.538326887 1080.81126979 551.538326887 1080.81126979 553.769163444 1094.5003527 c 0,284,285
 556 1108.18943561 556 1108.18943561 556 1122 c 0,286,287
 556 1135.34127588 556 1135.34127588 553.889779859 1148.40439792 c 0,288,289
 551.779559718 1161.46751995 551.779559718 1161.46751995 547.493701437 1174.52918328 c 0,290,291
 539.263472736 1199.61178504 539.263472736 1199.61178504 523.324973168 1219.43772353 c 0,292,293
 507.768545224 1238.78840219 507.768545224 1238.78840219 485.676906284 1250.97689264 c 0,294,295
 465.697524192 1262 465.697524192 1262 440 1262 c 0,296,297
 427.050438601 1262 427.050438601 1262 415.603557495 1259.27041606 c 0,298,299
 404.156676388 1256.54083212 404.156676388 1256.54083212 393.360802075 1250.96296373 c 0,300,301
 381.660491125 1244.91780307 381.660491125 1244.91780307 371.877121745 1237.22413041 c 0,302,303
 362.093752365 1229.53045775 362.093752365 1229.53045775 353.827407852 1219.91842925 c 0,304,305
 348.2333328 1213.41369081 348.2333328 1213.41369081 343.492888912 1206.31529425 c 0,306,307
 338.752445025 1199.21689768 338.752445025 1199.21689768 334.748299855 1191.29178431 c 0,308,309
 330.744154685 1183.36667093 330.744154685 1183.36667093 327.523858966 1174.64503669 c 0,310,311
 322.716210634 1161.62432246 322.716210634 1161.62432246 320.358105317 1148.55656562 c 0,256,257
EndSplineSet
Validated: 1
EndChar

StartChar: ampersand
Encoding: 38 38 9
Width: 1247
GlyphClass: 2
Flags: W
LayerCount: 2
Fore
SplineSet
862.716594691 174.668167743 m 1,0,1
 854.228436335 166.839382035 854.228436335 166.839382035 845.869612069 159.140421727 c 256,2,3
 837.510787804 151.441461418 837.510787804 151.441461418 829.135127474 143.737563563 c 256,4,5
 820.759467144 136.033665707 820.759467144 136.033665707 812.059991907 128.042287292 c 0,6,7
 766.98403865 86.6353069747 766.98403865 86.6353069747 716.661152915 52.038323032 c 0,8,9
 664.936601682 16.4776940588 664.936601682 16.4776940588 607.734574724 -6.18726001862 c 0,10,11
 577.7628211 -18.0628605114 577.7628211 -18.0628605114 546.214940007 -24.0314302557 c 256,12,13
 514.667058915 -30 514.667058915 -30 482 -30 c 0,14,15
 391.77918928 -30 391.77918928 -30 305.852192168 -2.61076967035 c 0,16,17
 219.010466021 25.070030539 219.010466021 25.070030539 151.354520965 77.9944391714 c 0,18,19
 82.7610628898 131.652224924 82.7610628898 131.652224924 40.7891777524 209.521117086 c 0,20,21
 -2 288.906302127 -2 288.906302127 -2 389 c 0,22,23
 -2 475.960928555 -2 475.960928555 32.6713241124 541.258588967 c 0,24,25
 43.4911445547 561.635917467 43.4911445547 561.635917467 56.0193227824 580.906900231 c 256,26,27
 68.5475010102 600.177882995 68.5475010102 600.177882995 82.7478527885 618.291584578 c 256,28,29
 96.9482045668 636.405286161 96.9482045668 636.405286161 112.799144055 653.336971523 c 0,30,31
 135.580476899 677.671577061 135.580476899 677.671577061 160.143645047 701.071227066 c 256,32,33
 184.706813195 724.47087707 184.706813195 724.47087707 211.042135757 746.933358078 c 0,34,35
 217.953061172 752.827970932 217.953061172 752.827970932 224.816163803 758.974853575 c 256,36,37
 231.679266435 765.121736217 231.679266435 765.121736217 238.371347091 771.404983475 c 256,38,39
 245.063427747 777.688230733 245.063427747 777.688230733 251.641365843 784.153110806 c 256,40,41
 258.219303938 790.617990878 258.219303938 790.617990878 264.594676709 797.176021019 c 256,42,43
 270.970049479 803.734051161 270.970049479 803.734051161 277.164959911 810.403077142 c 1,44,45
 272.304990384 815.314374863 272.304990384 815.314374863 267.723065138 819.959981311 c 256,46,47
 263.141139891 824.605587758 263.141139891 824.605587758 258.72199927 829.102089937 c 256,48,49
 254.302858648 833.598592115 254.302858648 833.598592115 249.920482045 838.074906958 c 256,50,51
 245.538105441 842.551221801 245.538105441 842.551221801 241.200310125 846.997997089 c 256,52,53
 236.862514809 851.444772377 236.862514809 851.444772377 232.320203247 856.116864268 c 0,54,55
 194.920280761 894.585355969 194.920280761 894.585355969 165.977459953 936.927630854 c 0,56,57
 156.000348622 951.52377521 156.000348622 951.52377521 147.359370144 966.895803286 c 256,58,59
 138.718391667 982.267831362 138.718391667 982.267831362 131.442474488 998.35807456 c 256,60,61
 124.166557308 1014.44831776 124.166557308 1014.44831776 118.265100739 1031.23058488 c 0,62,63
 100 1083.1719651 100 1083.1719651 100 1144 c 0,64,65
 100 1186.74956897 100 1186.74956897 110.010658984 1226.79152371 c 256,66,67
 120.021317968 1266.83347845 120.021317968 1266.83347845 139.905154418 1303.19249368 c 0,68,69
 152.796740762 1326.76568014 152.796740762 1326.76568014 168.47740134 1348.2372594 c 256,70,71
 184.158061918 1369.70883866 184.158061918 1369.70883866 202.531081895 1388.95472721 c 256,72,73
 220.904101871 1408.20061576 220.904101871 1408.20061576 241.87922927 1425.12791156 c 0,74,75
 304.200493109 1475.42226483 304.200493109 1475.42226483 382.64611431 1503.20508901 c 256,76,77
 461.125862998 1531 461.125862998 1531 538 1531 c 0,78,79
 612 1531 612 1531 685.384615385 1500.42307692 c 0,80,81
 757.6244489 1470.32314629 757.6244489 1470.32314629 814.663412765 1419.31714976 c 0,82,83
 872.110830816 1367.94590092 872.110830816 1367.94590092 907.483947542 1299.96319222 c 0,84,85
 925.613520903 1265.12041841 925.613520903 1265.12041841 934.806760451 1227.91620272 c 256,86,87
 944 1190.71198703 944 1190.71198703 944 1152 c 0,88,89
 944 1141.31717164 944 1141.31717164 943.367453113 1130.82548514 c 256,90,91
 942.734906225 1120.33379864 942.734906225 1120.33379864 941.468551712 1110.01704057 c 256,92,93
 940.2021972 1099.70028249 940.2021972 1099.70028249 938.290842471 1089.5813485 c 256,94,95
 936.379487742 1079.46241452 936.379487742 1079.46241452 933.832798495 1069.57061254 c 256,96,97
 931.286109249 1059.67881056 931.286109249 1059.67881056 928.081238028 1049.98848013 c 256,98,99
 924.876366807 1040.2981497 924.876366807 1040.2981497 921.033905748 1030.8841201 c 0,100,101
 916.615600917 1020.05927327 916.615600917 1020.05927327 911.611861454 1009.52412486 c 256,102,103
 906.60812199 998.988976444 906.60812199 998.988976444 901.031076221 988.76687024 c 256,104,105
 895.454030451 978.544764037 895.454030451 978.544764037 889.304759697 968.633108342 c 256,106,107
 883.155488943 958.721452648 883.155488943 958.721452648 876.440908925 949.132946875 c 256,108,109
 869.726328908 939.544441101 869.726328908 939.544441101 862.452733553 930.287137923 c 0,110,111
 827.254583105 885.489491898 827.254583105 885.489491898 783.597160447 846.62373758 c 0,112,113
 768.759360782 833.414476903 768.759360782 833.414476903 753.682775161 820.566706044 c 256,114,115
 738.606189541 807.718935186 738.606189541 807.718935186 723.313657582 795.23773015 c 1,116,-1
 884.088459676 570.603777692 l 1,117,-1
 1005.76330072 739.684400959 l 2,118,119
 1011.90720828 747.876277701 1011.90720828 747.876277701 1018.64424021 754.405221411 c 256,120,121
 1025.38127213 760.934165121 1025.38127213 760.934165121 1033.69074239 766.302515292 c 256,122,123
 1042.00021265 771.670865463 1042.00021265 771.670865463 1051.22981403 775.055052635 c 0,124,125
 1062.20487228 779.07924066 1062.20487228 779.07924066 1073.966794 781.03962033 c 256,126,127
 1085.72871572 783 1085.72871572 783 1098 783 c 0,128,129
 1146.3849848 783 1146.3849848 783 1180.47525788 754.838470065 c 0,130,131
 1218 723.839770053 1218 723.839770053 1218 670 c 0,132,133
 1218 646.953000893 1218 646.953000893 1209.59173694 623.830277477 c 0,134,135
 1201.72865719 602.20680817 1201.72865719 602.20680817 1187.52565759 584.342786934 c 2,136,-1
 1024.08343122 360.084848424 l 1,137,-1
 1230.24843026 81.6657609325 l 2,138,139
 1243.81599956 63.010353155 1243.81599956 63.010353155 1247.40847019 42.35364699 c 0,140,141
 1250 27.4523505986 1250 27.4523505986 1250 12 c 0,142,143
 1250 -34.5685424949 1250 -34.5685424949 1217.28427125 -67.2842712475 c 256,144,145
 1184.56854249 -100 1184.56854249 -100 1138 -100 c 0,146,147
 1095 -100 1095 -100 1064 -77 c 0,148,149
 1055.87733522 -70.9080014179 1055.87733522 -70.9080014179 1047.90113503 -63.7263931602 c 256,150,151
 1039.92493485 -56.5447849026 1039.92493485 -56.5447849026 1032.36755797 -48.5994998088 c 256,152,153
 1024.81018109 -40.654214715 1024.81018109 -40.654214715 1017.27114882 -31.6073759866 c 2,154,-1
 1016.60625289 -30.8095008803 l 1,155,-1
 1015.98365865 -29.9781960716 l 1,156,-1
 862.716594691 174.668167743 l 1,0,1
238 392 m 0,157,158
 238 345.152889393 238 345.152889393 258.229279343 311.696773556 c 0,159,160
 263.664597811 302.707593014 263.664597811 302.707593014 269.795944607 294.600325248 c 256,161,162
 275.927291403 286.493057483 275.927291403 286.493057483 282.825448966 279.185077375 c 256,163,164
 289.723606528 271.877097268 289.723606528 271.877097268 297.382167141 265.363064206 c 256,165,166
 305.040727754 258.849031143 305.040727754 258.849031143 313.558465846 253.032039275 c 0,167,168
 325.252123937 245.046126433 325.252123937 245.046126433 337.969714598 238.44227162 c 256,169,170
 350.68730526 231.838416808 350.68730526 231.838416808 364.738983521 226.508432438 c 256,171,172
 378.790661782 221.178448067 378.790661782 221.178448067 394.051405337 217.21652426 c 0,173,174
 441.10764693 205 441.10764693 205 488 205 c 0,175,176
 503.886587538 205 503.886587538 205 522.414400367 212.838690043 c 0,177,178
 533.682199164 217.605835688 533.682199164 217.605835688 544.813534635 223.60803026 c 256,179,180
 555.944870107 229.610224833 555.944870107 229.610224833 566.966311667 236.884376262 c 0,181,182
 590.030865384 252.106981716 590.030865384 252.106981716 610.256002565 269.114483436 c 0,183,184
 621.003204929 278.151903606 621.003204929 278.151903606 630.014913119 286.096820791 c 256,185,186
 639.026621308 294.041737975 639.026621308 294.041737975 646.805831441 301.334747474 c 0,187,188
 652.787883518 306.818295212 652.787883518 306.818295212 659.743584787 313.414054641 c 256,189,190
 666.699286057 320.009814069 666.699286057 320.009814069 675.140984913 328.203227665 c 0,191,192
 679.314388981 332.253884554 679.314388981 332.253884554 683.609782558 336.393454386 c 256,193,194
 687.905176136 340.533024218 687.905176136 340.533024218 692.239101246 344.681557632 c 256,195,196
 696.573026356 348.830091045 696.573026356 348.830091045 700.936573448 352.980946115 c 256,197,198
 705.30012054 357.131801185 705.30012054 357.131801185 709.726390324 361.316731434 c 0,199,200
 717.191648888 369.195057625 717.191648888 369.195057625 724.602055628 376.998873989 c 1,201,-1
 539.10027229 645.249001855 l 1,202,-1
 536.535585502 648.957740102 l 1,203,-1
 535.185146661 652.333837204 l 2,204,205
 533.72437464 654.800213153 533.72437464 654.800213153 530.797766506 658.772038478 c 0,206,207
 524.958851197 666.696280684 524.958851197 666.696280684 517.26823415 675.241410735 c 0,208,209
 511.547752535 681.597501419 511.547752535 681.597501419 505.468378322 685.943399451 c 1,210,211
 487.417873427 685.138444503 487.417873427 685.138444503 463.463923455 673.513733487 c 0,212,213
 433.170235714 658.812385024 433.170235714 658.812385024 401.432138172 634.328709777 c 0,214,215
 369.1796662 609.448231399 369.1796662 609.448231399 339.52115248 577.009232018 c 0,216,217
 309.500931756 544.174615601 309.500931756 544.174615601 286.143558748 509.605703549 c 0,218,219
 263.439079079 476.003073639 263.439079079 476.003073639 249.997611357 443.295502182 c 0,220,221
 238 414.101314547 238 414.101314547 238 392 c 0,157,158
334 1144 m 0,222,223
 334 1120.4427191 334 1120.4427191 350.77708764 1086.88854382 c 0,224,225
 355.498457169 1077.44580476 355.498457169 1077.44580476 360.775839849 1068.29289391 c 256,226,227
 366.053222528 1059.13998307 366.053222528 1059.13998307 371.908215244 1050.24319139 c 256,228,229
 377.76320796 1041.34639972 377.76320796 1041.34639972 384.200891474 1032.70829126 c 256,230,231
 390.638574989 1024.07018281 390.638574989 1024.07018281 397.660819247 1015.6887945 c 0,232,233
 424.889932372 983.189530452 424.889932372 983.189530452 457.984660059 961.41668329 c 0,234,235
 485.978018659 943 485.978018659 943 508 943 c 0,236,237
 523.511421982 943 523.511421982 943 542.754461358 951.552461945 c 0,238,239
 554.23997437 956.657134395 554.23997437 956.657134395 565.952712462 963.489539132 c 256,240,241
 577.665450553 970.321943869 577.665450553 970.321943869 589.580377846 978.927169136 c 0,242,243
 613.328580257 996.078648655 613.328580257 996.078648655 634.607862215 1019.13120411 c 0,244,245
 641.996151686 1027.13518437 641.996151686 1027.13518437 648.85770552 1035.2774531 c 256,246,247
 655.719259355 1043.41972183 655.719259355 1043.41972183 662.015004266 1051.64557659 c 256,248,249
 668.310749178 1059.87143134 668.310749178 1059.87143134 674.090786476 1068.2372748 c 256,250,251
 679.743834567 1076.41931809 679.743834567 1076.41931809 684.678892631 1084.56522947 c 256,252,253
 689.613950695 1092.71114086 689.613950695 1092.71114086 693.752749488 1100.65491346 c 256,254,255
 697.891548281 1108.59868607 697.891548281 1108.59868607 701.338424865 1116.49777824 c 0,256,257
 710 1136.34722126 710 1136.34722126 710 1152 c 0,258,259
 710 1174.35197251 710 1174.35197251 695.253540491 1197.52498031 c 0,260,261
 677.56690501 1225.31826464 677.56690501 1225.31826464 651.295509521 1247.35233827 c 0,262,263
 624.766974678 1269.60207718 624.766974678 1269.60207718 593.123553973 1283.28571856 c 0,264,265
 582.91696791 1287.6993774 582.91696791 1287.6993774 573.334937494 1290.57465426 c 256,266,267
 563.752907077 1293.44993112 563.752907077 1293.44993112 555.623383349 1294.72496556 c 256,268,269
 547.49385962 1296 547.49385962 1296 540 1296 c 256,270,271
 532.349562011 1296 532.349562011 1296 524.343246797 1295.25776341 c 256,272,273
 516.336931582 1294.51552681 516.336931582 1294.51552681 507.819896274 1293.00291133 c 256,274,275
 499.302860966 1291.49029584 499.302860966 1291.49029584 490.248736733 1289.13076985 c 256,276,277
 481.1946125 1286.77124386 481.1946125 1286.77124386 471.781253724 1283.59697171 c 0,278,279
 434.087807798 1270.88639111 434.087807798 1270.88639111 401.698916433 1248.56431733 c 0,280,281
 386.076198392 1237.79730895 386.076198392 1237.79730895 373.483307562 1225.30775805 c 256,282,283
 360.890416731 1212.81820715 360.890416731 1212.81820715 350.989154074 1198.37886578 c 0,284,285
 345.13176603 1189.83684155 345.13176603 1189.83684155 341.3796173 1181.16264229 c 256,286,287
 337.62746857 1172.48844304 337.62746857 1172.48844304 335.813734285 1163.32013407 c 256,288,289
 334 1154.15182511 334 1154.15182511 334 1144 c 0,222,223
EndSplineSet
Validated: 1
EndChar

StartChar: quotesingle
Encoding: 39 39 10
Width: 480
GlyphClass: 2
Flags: W
LayerCount: 2
Fore
SplineSet
463 1497 m 1,0,-1
 463 1438 l 2,1,2
 463 1421.12597938 463 1421.12597938 462.043614653 1404.16657474 c 0,3,4
 461.087229307 1387.2071701 461.087229307 1387.2071701 459.180484512 1370.22673498 c 0,5,6
 457.273739717 1353.24629986 457.273739717 1353.24629986 454.425849251 1336.20528794 c 0,7,8
 451.577958785 1319.16427601 451.577958785 1319.16427601 447.788533896 1302.09374282 c 0,9,10
 443.999109008 1285.02320963 443.999109008 1285.02320963 439.284205767 1267.91912673 c 0,11,12
 434.569302526 1250.81504382 434.569302526 1250.81504382 428.921689889 1233.67294886 c 0,13,14
 423.274077251 1216.5308539 423.274077251 1216.5308539 416.716653581 1199.38223631 c 0,15,16
 410.15922991 1182.23361872 410.15922991 1182.23361872 402.678349511 1165.04071815 c 0,17,18
 341.272397144 1023.91475745 341.272397144 1023.91475745 265.056863749 969.312584268 c 0,19,20
 218.526742403 937 218.526742403 937 176 937 c 0,21,22
 110.131967492 937 110.131967492 937 64.2107609219 982.221188177 c 0,23,24
 28.7452362394 1016.70419845 28.7452362394 1016.70419845 29.2570448373 1050.05821027 c 0,25,26
 29.4341968164 1061.60301281 29.4341968164 1061.60301281 34.0663390542 1072.99761924 c 0,27,28
 38.6984812921 1084.39222566 38.6984812921 1084.39222566 46.018698251 1092.48299179 c 0,29,30
 83.3746176919 1135.80330173 83.3746176919 1135.80330173 111.88064582 1182.36773182 c 0,31,32
 140.386673949 1228.93216191 140.386673949 1228.93216191 160.129246661 1278.90652776 c 0,33,34
 179.871819374 1328.88089362 179.871819374 1328.88089362 190.884730962 1382.37217847 c 0,35,36
 202.578656712 1434.99484435 202.578656712 1434.99484435 208.394071848 1478.61045787 c 0,37,38
 213.485749407 1512.55497493 213.485749407 1512.55497493 229.256965066 1538.16193857 c 0,39,40
 245.028180725 1563.7689022 245.028180725 1563.7689022 271.148801672 1578.3844511 c 0,41,42
 297.26942262 1593 297.26942262 1593 330.5 1593 c 0,43,44
 375.589979045 1593 375.589979045 1593 410.141778574 1572.08675135 c 0,45,46
 444.693578102 1551.1735027 444.693578102 1551.1735027 460.230059738 1511.6260949 c 2,47,-1
 463 1504.57533787 l 1,48,-1
 463 1497 l 1,0,-1
EndSplineSet
Validated: 1
EndChar

StartChar: parenleft
Encoding: 40 40 11
Width: 720
GlyphClass: 2
Flags: W
LayerCount: 2
Fore
SplineSet
579.82509383 -370.352179651 m 0,0,1
 479.568659705 -278.279944231 479.568659705 -278.279944231 396.073625017 -172.246372571 c 0,2,3
 312.091764513 -65.5945619924 312.091764513 -65.5945619924 252.285240653 52.9873387642 c 0,4,5
 192.310312472 171.90314464 192.310312472 171.90314464 159.230769231 302.153846154 c 0,6,7
 126 433 126 433 126 573 c 0,8,9
 126 586.45578687 126 586.45578687 126.835535119 601.054270658 c 0,10,11
 127.671070237 615.652754446 127.671070237 615.652754446 129.335302345 631.353837476 c 0,12,13
 130.999534453 647.054920507 130.999534453 647.054920507 133.438022764 663.768407732 c 0,14,15
 135.876511075 680.481894957 135.876511075 680.481894957 139.131679811 698.580633128 c 0,16,17
 151.961142938 769.912448116 151.961142938 769.912448116 174.959283615 852.705754551 c 0,18,19
 182.608137223 880.241627541 182.608137223 880.241627541 191.270772233 908.380510172 c 0,20,21
 199.933407244 936.519392803 199.933407244 936.519392803 209.589646741 965.204951335 c 0,22,23
 219.245886238 993.890509867 219.245886238 993.890509867 229.914610366 1023.18716501 c 0,24,25
 262.064899251 1111.47287893 262.064899251 1111.47287893 302.381558405 1196.1888969 c 0,26,27
 322.555903564 1238.58055888 322.555903564 1238.58055888 344.285218045 1278.97152012 c 0,28,29
 366.014532527 1319.36248136 366.014532527 1319.36248136 389.301277127 1357.74722521 c 0,30,31
 436.710693308 1435.89461452 436.710693308 1435.89461452 489.162493535 1494.64063077 c 0,32,33
 506.969975621 1514.58501071 506.969975621 1514.58501071 525.25329919 1531.86491156 c 0,34,35
 543.536622758 1549.14481242 543.536622758 1549.14481242 562.677200878 1564.02423305 c 0,36,37
 581.817778998 1578.90365368 581.817778998 1578.90365368 601.500610123 1591.04446541 c 0,38,39
 664.655794995 1630 664.655794995 1630 731 1630 c 0,40,41
 759.379131815 1630 759.379131815 1630 784.229232483 1621.4892401 c 0,42,43
 809.079333152 1612.97848021 809.079333152 1612.97848021 828.080176246 1595.43924043 c 0,44,45
 863.841730996 1562.65781524 863.841730996 1562.65781524 866.936390526 1499.35638071 c 0,46,47
 867.499009937 1491.73937944 867.499009937 1491.73937944 867.749504969 1484.72773741 c 0,48,49
 868 1477.71609538 868 1477.71609538 868 1470 c 0,50,51
 868 1456.86315033 868 1456.86315033 863.743129469 1444.09486581 c 0,52,53
 859.486258938 1431.3265813 859.486258938 1431.3265813 851.234752378 1421.0121981 c 2,54,-1
 849.850799518 1419.28225702 l 1,55,-1
 848.284271247 1417.71572875 l 2,56,57
 760.503190451 1329.93464796 760.503190451 1329.93464796 679.612725856 1233.75391261 c 0,58,59
 599.769199716 1138.81801263 599.769199716 1138.81801263 538.469084473 1034.70511849 c 0,60,61
 518.213799566 1000.30328539 518.213799566 1000.30328539 500.649279284 964.694149821 c 0,62,63
 483.084759003 929.08501425 483.084759003 929.08501425 468.197031327 892.238585898 c 0,64,65
 453.309303652 855.392157547 453.309303652 855.392157547 441.089494472 817.285647342 c 0,66,67
 429.067394146 779.795676588 429.067394146 779.795676588 421.054822747 741.019689251 c 0,68,69
 413.042251347 702.243701914 413.042251347 702.243701914 409.021125674 661.972067436 c 0,70,71
 405 621.700432958 405 621.700432958 405 580 c 0,72,73
 405 485.129223697 405 485.129223697 432.664722453 396.977226727 c 0,74,75
 442.143292866 366.774324394 442.143292866 366.774324394 453.218335731 337.669260853 c 0,76,77
 464.293378596 308.564197311 464.293378596 308.564197311 476.944262231 280.595305742 c 0,78,79
 489.595145866 252.626414173 489.595145866 252.626414173 503.846397611 225.725174925 c 0,80,81
 547.110809191 144.057521604 547.110809191 144.057521604 597.579466474 73.2072911872 c 0,82,83
 649.402762705 0.455356093958 649.402762705 0.455356093958 693.722302036 -59.7992985023 c 0,84,85
 738.980301351 -121.329836896 738.980301351 -121.329836896 769.170901294 -168.406704605 c 0,86,87
 805 -224.275807671 805 -224.275807671 805 -266 c 0,88,89
 805 -293.876282485 805 -293.876282485 795.646690116 -318.715293528 c 0,90,91
 786.293380233 -343.554304571 786.293380233 -343.554304571 767.81280854 -362.745667483 c 0,92,93
 748.943867495 -382.340337029 748.943867495 -382.340337029 723.47138001 -392.170168515 c 0,94,95
 697.998892525 -402 697.998892525 -402 669 -402 c 0,96,97
 646.240755541 -402 646.240755541 -402 627.114378676 -397.383288343 c 0,98,99
 602.393722973 -391.416233518 602.393722973 -391.416233518 579.82509383 -370.352179651 c 0,0,1
EndSplineSet
Validated: 1
EndChar

StartChar: parenright
Encoding: 41 41 12
Width: 871
GlyphClass: 2
Flags: W
LayerCount: 2
Fore
SplineSet
325.17490617 -368.352179651 m 0,0,1
 314.593976179 -378.227714309 314.593976179 -378.227714309 302.80376781 -385.221095002 c 0,2,3
 291.013559441 -392.214475694 291.013559441 -392.214475694 277.885621324 -395.383288343 c 0,4,5
 258.759244459 -400 258.759244459 -400 236 -400 c 0,6,7
 221.718504426 -400 221.718504426 -400 208.247173585 -397.619317401 c 0,8,9
 194.775842743 -395.238634801 194.775842743 -395.238634801 182.201374192 -390.466051707 c 0,10,11
 169.62690564 -385.693468612 169.62690564 -385.693468612 158.187940995 -378.18434097 c 0,12,13
 146.74897635 -370.675213329 146.74897635 -370.675213329 137.18719146 -360.745667483 c 0,14,15
 100 -322.128199428 100 -322.128199428 100 -264 c 0,16,17
 100 -222.275807671 100 -222.275807671 135.829098706 -166.406704605 c 0,18,19
 166.019698649 -119.329836896 166.019698649 -119.329836896 211.277697964 -57.7992985023 c 0,20,21
 255.597237295 2.45535609405 255.597237295 2.45535609405 307.420533526 75.2072911872 c 0,22,23
 357.889190809 146.057521604 357.889190809 146.057521604 401.153602389 227.725174925 c 0,24,25
 443.934726248 308.480554793 443.934726248 308.480554793 472.335277547 398.977226727 c 0,26,27
 500 487.129223697 500 487.129223697 500 582 c 0,28,29
 500 706.743408001 500 706.743408001 463.910505528 819.285647342 c 0,30,31
 427.270764101 933.54378837 427.270764101 933.54378837 366.530915527 1036.70511849 c 0,32,33
 305.230800284 1140.81801263 305.230800284 1140.81801263 225.387274144 1235.75391261 c 0,34,35
 184.937718726 1283.84942058 184.937718726 1283.84942058 142.77067446 1329.83862395 c 0,36,37
 100.603630194 1375.82782731 100.603630194 1375.82782731 56.7157287525 1419.71572875 c 2,38,-1
 54.239190945 1422.19226656 l 1,39,-1
 52.2307231792 1425.06150623 l 2,40,41
 38 1445.39111077 38 1445.39111077 38 1472 c 2,42,-1
 38 1499.85067891 l 2,43,44
 40.7414932729 1564.27577082 40.7414932729 1564.27577082 76.9198237539 1597.43924043 c 0,45,46
 114.360646623 1632 114.360646623 1632 174 1632 c 0,47,48
 207.286172494 1632 207.286172494 1632 239.891651294 1622.08367731 c 0,49,50
 272.497130094 1612.16735462 272.497130094 1612.16735462 303.499389877 1593.04446541 c 0,51,52
 323.182198366 1580.90366765 323.182198366 1580.90366765 342.322786142 1566.02423774 c 0,53,54
 361.463373919 1551.14480782 361.463373919 1551.14480782 379.746709056 1533.86489817 c 0,55,56
 398.030044194 1516.58498852 398.030044194 1516.58498852 415.837506465 1496.64063077 c 0,57,58
 468.289306692 1437.89461452 468.289306692 1437.89461452 515.698722873 1359.74722521 c 0,59,60
 562.248615019 1283.01663376 562.248615019 1283.01663376 602.618441595 1198.1888969 c 0,61,62
 622.776165528 1155.83216054 622.776165528 1155.83216054 640.893689473 1112.57976187 c 0,63,64
 659.011213418 1069.32736319 659.011213418 1069.32736319 675.085389634 1025.18716501 c 0,65,66
 707.121435139 937.215167038 707.121435139 937.215167038 730.040716385 854.705754551 c 0,67,68
 737.691146143 827.164207424 737.691146143 827.164207424 744.211223514 800.917464668 c 0,69,70
 750.731300886 774.670721911 750.731300886 774.670721911 756.154098133 749.555838489 c 0,71,72
 761.57689538 724.440955066 761.57689538 724.440955066 765.868320189 700.580633128 c 0,73,74
 779 627.568493379 779 627.568493379 779 575 c 0,75,76
 779 435 779 435 745.769230769 304.153846154 c 0,77,78
 712.689687528 173.90314464 712.689687528 173.90314464 652.714759347 54.9873387642 c 0,79,80
 642.744427149 35.2185766471 642.744427149 35.2185766471 632.09874798 15.776188587 c 0,81,82
 621.453068811 -3.66619947311 621.453068811 -3.66619947311 610.138480756 -22.771134337 c 0,83,84
 598.8238927 -41.876069201 598.8238927 -41.876069201 586.838828595 -60.6486863928 c 0,85,86
 574.853764489 -79.4213035846 574.853764489 -79.4213035846 562.200816371 -97.8569236738 c 0,87,88
 549.547868252 -116.292543763 549.547868252 -116.292543763 536.229571408 -134.389475918 c 0,89,90
 522.911274564 -152.486408073 522.911274564 -152.486408073 508.926374983 -170.246372571 c 0,91,92
 467.167715558 -223.27730816 467.167715558 -223.27730816 421.251004988 -272.782371751 c 0,93,94
 375.334294418 -322.287435342 375.334294418 -322.287435342 325.17490617 -368.352179651 c 0,0,1
EndSplineSet
Validated: 1
EndChar

StartChar: asterisk
Encoding: 42 42 13
Width: 894
GlyphClass: 2
Flags: W
LayerCount: 2
Fore
SplineSet
279.632555609 869.154447661 m 2,0,1
 251.124181593 844 251.124181593 844 223 844 c 2,2,-1
 199 844 l 2,3,4
 147.518002593 844 147.518002593 844 109.392624013 875.771148816 c 0,5,6
 68 910.265002161 68 910.265002161 68 969 c 0,7,8
 68 1048.4083855 68 1048.4083855 124.444593722 1077.4370337 c 2,9,-1
 271.517807915 1155.82983183 l 1,10,-1
 131.487145693 1234.08226071 l 1,11,-1
 130.023972268 1234.89991645 l 1,12,-1
 128.634333269 1235.83711485 l 2,13,14
 100.299141294 1254.94689548 100.299141294 1254.94689548 84.1495706471 1282.36417194 c 0,15,16
 68 1309.7814484 68 1309.7814484 68 1342 c 0,17,18
 68 1370.30935696 68 1370.30935696 74.9386468936 1393.37759662 c 0,19,20
 81.8772937872 1416.44583628 81.8772937872 1416.44583628 98.7157287525 1433.28427125 c 0,21,22
 118.940574082 1453.50911658 118.940574082 1453.50911658 142.865085639 1464.75455829 c 0,23,24
 166.789597196 1476 166.789597196 1476 193 1476 c 0,25,26
 247.391369407 1476 247.391369407 1476 274.744982354 1449.81997441 c 2,27,-1
 349.872038909 1378.07973636 l 1,28,-1
 342.365282379 1444.51453166 l 2,29,30
 341.678409784 1449.98252814 341.678409784 1449.98252814 341.526704892 1452.26735243 c 0,31,32
 341.375 1454.55217673 341.375 1454.55217673 341.375 1458.578125 c 0,33,34
 341.375 1509.07221754 341.375 1509.07221754 389.062560505 1541.77225903 c 0,35,36
 427.181397864 1569 427.181397864 1569 464 1569 c 0,37,38
 473.749039096 1569 473.749039096 1569 482.490113243 1568.14550295 c 0,39,40
 491.23118739 1567.2910059 491.23118739 1567.2910059 500.847239728 1564.96091214 c 0,41,42
 510.463292066 1562.63081838 510.463292066 1562.63081838 518.605316574 1558.89889963 c 0,43,44
 526.747341081 1555.16698089 526.747341081 1555.16698089 534.538565923 1549.01456347 c 0,45,46
 542.329790764 1542.86214605 542.329790764 1542.86214605 548.180924894 1534.76057572 c 0,47,48
 571.107272201 1504.38316554 571.107272201 1504.38316554 583.832380382 1471.24363571 c 0,49,50
 596.557488562 1438.10410588 596.557488562 1438.10410588 597.48513226 1404.09050361 c 0,51,52
 597.569170893 1401.00908708 597.569170893 1401.00908708 597.68439032 1396.60711819 c 0,53,54
 597.799609747 1392.20514931 597.799609747 1392.20514931 597.85386026 1390.05467854 c 1,55,56
 621.392948199 1412.85042686 621.392948199 1412.85042686 629.913793103 1420.96551724 c 0,57,58
 640.362612281 1430.9167736 640.362612281 1430.9167736 646.985755552 1436.40622568 c 0,59,60
 668.293751812 1455.57743131 668.293751812 1455.57743131 687.129028933 1465.78871566 c 0,61,62
 705.964306055 1476 705.964306055 1476 728 1476 c 2,63,-1
 741 1476 l 2,64,65
 768.795334954 1476 768.795334954 1476 792.598655606 1466.65809053 c 0,66,67
 816.401976259 1457.31618106 816.401976259 1457.31618106 834.292538858 1438.92982558 c 0,68,69
 852.183101457 1420.5434701 852.183101457 1420.5434701 861.523390036 1394.85767651 c 0,70,71
 870 1372.25338327 870 1372.25338327 870 1350 c 0,72,73
 870 1332.80625157 870 1332.80625157 868.834201807 1320.48776686 c 0,74,75
 867.668403615 1308.16928215 867.668403615 1308.16928215 863.255610935 1294.45927736 c 0,76,77
 858.842818256 1280.74927256 858.842818256 1280.74927256 850.912173167 1270.84545262 c 0,78,79
 841.20256602 1258.82403425 841.20256602 1258.82403425 835.838123005 1253.20343878 c 0,80,81
 830.473679989 1247.58284332 830.473679989 1247.58284332 822.557624541 1241.4259113 c 2,82,-1
 821.099203137 1240.29158355 l 1,83,-1
 819.542424614 1239.29652923 l 1,84,-1
 682.889417071 1151.95130792 l 1,85,-1
 805.059178291 1086.16759034 l 2,86,87
 835.649034796 1069.48221406 835.649034796 1069.48221406 852.824517398 1041.38271004 c 0,88,89
 870 1013.28320602 870 1013.28320602 870 979 c 0,90,91
 870 918 870 918 836 881 c 0,92,93
 802 844 802 844 743 844 c 0,94,95
 707.741684453 844 707.741684453 844 673.283889379 867.884025863 c 0,96,97
 638.826094305 891.768051727 638.826094305 891.768051727 591 940.719244058 c 1,98,-1
 591 822.677276768 l 2,99,100
 591.2264385 821.979091392 591.2264385 821.979091392 591.618232279 821.09755539 c 0,101,102
 594.236266369 815.076076982 594.236266369 815.076076982 595.659799851 808.805891004 c 0,103,104
 597.083333333 802.535705026 597.083333333 802.535705026 597.083333333 795.807291667 c 0,105,106
 597.083333333 751.191845477 597.083333333 751.191845477 541.034437384 730.542252233 c 0,107,108
 535.933031952 728.598859688 535.933031952 728.598859688 531.450251534 727.088998153 c 0,109,110
 526.967471115 725.579136617 526.967471115 725.579136617 521.991686494 724.206704599 c 0,111,112
 517.015901874 722.83427258 517.015901874 722.83427258 512.4170661 721.940075843 c 0,113,114
 507.818230326 721.045879106 507.818230326 721.045879106 502.833729324 720.522939553 c 0,115,116
 497.849228322 720 497.849228322 720 493 720 c 0,117,118
 447.256369454 720 447.256369454 720 418.270035651 736.781561676 c 0,119,120
 373.285714286 765.271631874 373.285714286 765.271631874 373.285714286 805.040816327 c 0,121,122
 373.285714286 808.725531602 373.285714286 808.725531602 373.759551892 812.701016327 c 0,123,124
 374.233389499 816.676501052 374.233389499 816.676501052 375.017920045 819.971529347 c 0,125,126
 376.194766615 825.267338913 376.194766615 825.267338913 377 834.594625624 c 2,127,-1
 377 957.022629184 l 1,128,-1
 279.632555609 869.154447661 l 2,0,1
EndSplineSet
Validated: 1
EndChar

StartChar: plus
Encoding: 43 43 14
Width: 1650
GlyphClass: 2
Flags: W
LayerCount: 2
Fore
SplineSet
620.776772972 156.844645406 m 2,0,1
 622.16012918 163.761426444 622.16012918 163.761426444 624.387830791 176.382561036 c 0,2,3
 626.615532403 189.003695627 626.615532403 189.003695627 629.544243047 206.575959492 c 0,4,5
 635.529472025 242.487333364 635.529472025 242.487333364 643.021293021 288.436745703 c 0,6,7
 646.761026387 311.373777017 646.761026387 311.373777017 650.626591552 335.564733035 c 0,8,9
 654.492156717 359.755689054 654.492156717 359.755689054 658.483218944 385.198710754 c 0,10,11
 662.478953816 410.671520558 662.478953816 410.671520558 666.219900833 434.862981488 c 0,12,13
 669.960847851 459.054442418 669.960847851 459.054442418 673.458804693 482.04101595 c 0,14,15
 684.597138144 554.946471261 684.597138144 554.946471261 686.8305009 566.113285043 c 0,16,17
 694.148960895 600.266098356 694.148960895 600.266098356 694.995767659 609.540648621 c 0,18,19
 695.13750248 615.564378504 695.13750248 615.564378504 695.958117159 623.228543728 c 0,20,21
 696.126181204 624.798184931 696.126181204 624.798184931 696.219781883 625.687391381 c 0,22,23
 696.382060265 627.229036012 696.382060265 627.229036012 696.60486343 629.206294976 c 0,24,25
 696.827666595 631.18355394 696.827666595 631.18355394 697.052525875 633.095610422 c 0,26,27
 697.277385156 635.007666904 697.277385156 635.007666904 697.491151185 636.771138901 c 0,28,29
 697.704917215 638.534610898 697.704917215 638.534610898 697.874013726 639.87143049 c 1,30,31
 692.131242268 640 692.131242268 640 686.5 640 c 0,32,33
 667.131580892 640 667.131580892 640 645.159013057 640.125558564 c 0,34,35
 623.186445222 640.251117127 623.186445222 640.251117127 598.591857983 640.502082303 c 0,36,37
 549.818757119 640.999767006 549.818757119 640.999767006 495.5 641 c 0,38,39
 440.816477607 641 440.816477607 641 391.095980207 641.502040452 c 0,40,41
 366.439531528 641.751095489 366.439531528 641.751095489 344.535733117 641.875547745 c 0,42,43
 322.631934706 642 322.631934706 642 303.5 642 c 0,44,45
 281.915000244 642 281.915000244 642 266.355009745 643.090454623 c 0,46,47
 250.795019246 644.180909246 250.795019246 644.180909246 238.470686695 646.919649813 c 0,48,49
 234.857495585 647.693905051 234.857495585 647.693905051 227.421532006 649.089700079 c 0,50,51
 219.985568426 650.485495107 219.985568426 650.485495107 209.140838218 652.414194111 c 0,52,53
 198.296108009 654.342893116 198.296108009 654.342893116 185.975368955 656.449805853 c 0,54,55
 168.038742363 658.918836865 168.038742363 658.918836865 152.355214063 663.12756261 c 0,56,57
 136.671685762 667.336288354 136.671685762 667.336288354 121.743228057 673.734198799 c 0,58,59
 88.5181067372 687.973536508 88.5181067372 687.973536508 66.4035520753 714.234570169 c 0,60,61
 41 744.401288258 41 744.401288258 41 793 c 0,62,63
 41 831.418282502 41 831.418282502 55.5822607145 857.512854307 c 0,64,65
 62.9299878188 870.661418598 62.9299878188 870.661418598 73.6342846102 881.36571539 c 0,66,67
 84.3385814015 892.070012181 84.3385814015 892.070012181 97.4871456934 899.417739285 c 0,68,69
 121.095121574 912.61043169 121.095121574 912.61043169 150.469252687 916.615995023 c 0,70,71
 154.89003466 917.247535305 154.89003466 917.247535305 165.99956761 919.019235165 c 0,72,73
 177.10910056 920.790935026 177.10910056 920.790935026 180.963488242 921.158615118 c 0,74,75
 184.817875924 921.52629521 184.817875924 921.52629521 192.504197138 921.871418073 c 0,76,77
 200.190518353 922.216540937 200.190518353 922.216540937 206.219055101 921.126434673 c 0,78,79
 212.247591848 920.036328409 212.247591848 920.036328409 219.251244685 917.76094811 c 2,80,-1
 253.189619493 907 l 1,81,-1
 753 907 l 1,82,-1
 753 1410 l 2,83,84
 753 1464.90909091 753 1464.90909091 775.038461538 1502.30769231 c 0,85,86
 803.142857143 1550 803.142857143 1550 864 1550 c 0,87,88
 885.72608171 1550 885.72608171 1550 904.913353813 1546.51300072 c 0,89,90
 924.100625916 1543.02600143 924.100625916 1543.02600143 940.883616113 1535.49078134 c 0,91,92
 974.497082498 1520.39902093 974.497082498 1520.39902093 996.116602087 1492.50286662 c 0,93,94
 1016.81586788 1465.79413657 1016.81586788 1465.79413657 1024.93828772 1429.18744438 c 0,95,96
 1035.36735973 1387.99454844 1035.36735973 1387.99454844 1032.88152115 1356.92156625 c 0,97,98
 1023.93187988 1236.5986113 1023.93187988 1236.5986113 1019.45789664 1139.16519862 c 0,99,100
 1017.23192381 1090.68845695 1017.23192381 1090.68845695 1016.1159619 1036.13106636 c 0,101,102
 1015 981.573675769 1015 981.573675769 1015 921 c 2,103,-1
 1015 883.151300155 l 1,104,-1
 1482.96983417 860.99888197 l 2,105,106
 1495.87843722 860.950924312 1495.87843722 860.950924312 1506.49049862 860.078638159 c 0,107,108
 1517.10256002 859.206352006 1517.10256002 859.206352006 1527.10087626 857.271194024 c 0,109,110
 1534.19359257 855.898410222 1534.19359257 855.898410222 1540.48854942 854.079377181 c 0,111,112
 1546.78350627 852.260344139 1546.78350627 852.260344139 1553.27536164 849.523814547 c 0,113,114
 1559.767217 846.787284956 1559.767217 846.787284956 1565.57983022 843.299717029 c 0,115,116
 1586.26047039 830.891332923 1586.26047039 830.891332923 1596.4146591 808.552117772 c 0,117,118
 1605 789.664367789 1605 789.664367789 1605 762 c 0,119,120
 1605 698.458662895 1605 698.458662895 1577.27431332 662.201995697 c 0,121,122
 1551.43630805 628.413834963 1551.43630805 628.413834963 1497.85744065 605.277505859 c 2,123,-1
 1490.26742708 602 l 1,124,-1
 1482 602 l 1,125,-1
 1336.12130336 602 l 2,126,127
 1289.45836724 604.051118071 1289.45836724 604.051118071 1245.09932197 605.526261289 c 0,128,129
 1200.7402767 607.001404508 1200.7402767 607.001404508 1155.60636835 608.009983465 c 0,130,131
 1069.52180356 609.93366089 1069.52180356 609.93366089 981.257249839 609.998359116 c 1,132,133
 979.288523205 596.321735719 979.288523205 596.321735719 976.08510947 574.253774432 c 0,134,135
 971.571503645 543.160045416 971.571503645 543.160045416 965.557454115 503.066381883 c 0,136,137
 962.580832781 483.222239658 962.580832781 483.222239658 959.60156512 462.243231153 c 0,138,139
 956.622297459 441.264222647 956.622297459 441.264222647 953.641293042 419.155106556 c 0,140,141
 950.622297486 396.764222846 950.622297486 396.764222846 947.601565119 375.493231155 c 0,142,143
 944.580832752 354.222239464 944.580832752 354.222239464 941.557454115 334.066381883 c 0,144,145
 940.360988849 326.089946781 940.360988849 326.089946781 939.224270308 318.451969662 c 0,146,147
 938.087551766 310.813992543 938.087551766 310.813992543 937.011605535 303.521445377 c 0,148,149
 935.935659304 296.228898211 935.935659304 296.228898211 934.919653082 289.276236258 c 0,150,151
 933.90364686 282.323574305 933.90364686 282.323574305 932.948380057 275.716327306 c 0,152,153
 931.993113254 269.109080306 931.993113254 269.109080306 931.097979746 262.843145751 c 0,154,155
 926.567567431 231.13025954 926.567567431 231.13025954 924.417662531 217.155877692 c 0,156,157
 918.901793819 188.657222679 918.901793819 188.657222679 917.986857236 152.974695968 c 0,158,159
 916.89566844 110.418332906 916.89566844 110.418332906 909.17828173 72.9338831732 c 0,160,161
 904.776950582 51.5559890227 904.776950582 51.5559890227 896.043257947 32.6062064615 c 0,162,163
 887.309565312 13.6564239003 887.309565312 13.6564239003 874.282467765 -2.04289878389 c 0,164,165
 863.171381957 -15.4331816816 863.171381957 -15.4331816816 847.672250435 -24.1295423784 c 0,166,167
 832.173118913 -32.8259030753 832.173118913 -32.8259030753 815.833455086 -36.4129515376 c 0,168,169
 799.493791259 -40 799.493791259 -40 781 -40 c 0,170,171
 710.431457505 -40 710.431457505 -40 665.215728753 5.21572875254 c 0,172,173
 620 50.4314575051 620 50.4314575051 620 120 c 2,174,-1
 620 149 l 1,175,-1
 620 152.960780544 l 1,176,-1
 620.776772972 156.844645406 l 2,0,1
EndSplineSet
Validated: 1
EndChar

StartChar: comma
Encoding: 44 44 15
Width: 720
GlyphClass: 2
Flags: W
LayerCount: 2
Fore
SplineSet
46.0733500019 -158.455040009 m 0,0,1
 88.4842548959 -109.446883242 88.4842548959 -109.446883242 116.700282971 -62.4201697829 c 256,2,3
 144.803660767 -15.5812067908 144.803660767 -15.5812067908 162.516715407 31.9643609269 c 0,4,5
 180.440462901 80.0754726229 180.440462901 80.0754726229 190.819592492 130.555784721 c 0,6,7
 196.218981914 156.816451457 196.218981914 156.816451457 200.831248404 183.888778901 c 256,8,9
 205.443514894 210.961106345 205.443514894 210.961106345 209.424155865 239.820753386 c 0,10,11
 213.160460844 263.733105255 213.160460844 263.733105255 225.442612134 283.55802966 c 256,12,13
 237.724763424 303.382954065 237.724763424 303.382954065 257.231600847 316.887687666 c 0,14,15
 293.504940885 342 293.504940885 342 336 342 c 0,16,17
 356.742962985 342 356.742962985 342 375.474759428 337.44889153 c 256,18,19
 394.206555871 332.89778306 394.206555871 332.89778306 410.196773556 323.229279343 c 0,20,21
 418.837610966 318.004586956 418.837610966 318.004586956 426.424567697 311.150439678 c 256,22,23
 434.011524427 304.296292401 434.011524427 304.296292401 440.170051596 296.283693386 c 256,24,25
 446.328578765 288.271094371 446.328578765 288.271094371 451.268541669 279.476564541 c 256,26,27
 456.208504573 270.682034711 456.208504573 270.682034711 460.139067635 260.855627054 c 2,28,-1
 463 253.703296143 l 1,29,-1
 463 246 l 1,30,-1
 463 187 l 2,31,32
 463 174.892758076 463 174.892758076 462.080558825 161.276080223 c 256,33,34
 461.161117651 147.65940237 461.161117651 147.65940237 459.40277214 132.963191144 c 256,35,36
 457.64442663 118.266979919 457.64442663 118.266979919 455.000244125 101.696769554 c 0,37,38
 447.105206007 52.2211973488 447.105206007 52.2211973488 431.404173319 -1.6856815491 c 256,39,40
 415.690511977 -55.6359188211 415.690511977 -55.6359188211 392.671247913 -108.47559315 c 0,41,42
 387.975618482 -119.254197071 387.975618482 -119.254197071 382.995542824 -129.621345394 c 256,43,44
 378.015467165 -139.988493718 378.015467165 -139.988493718 372.716877215 -150.004946127 c 256,45,46
 367.418287265 -160.021398537 367.418287265 -160.021398537 361.83105777 -169.621715882 c 256,47,48
 356.243828275 -179.222033226 356.243828275 -179.222033226 350.330915394 -188.461539078 c 256,49,50
 344.418002514 -197.701044929 344.418002514 -197.701044929 338.212256772 -206.519736247 c 0,51,52
 322.166418905 -229.321716374 322.166418905 -229.321716374 303.925067488 -248.13760321 c 256,53,54
 285.683716072 -266.953490046 285.683716072 -266.953490046 265.249527749 -281.549338848 c 0,55,56
 219.818602136 -314 219.818602136 -314 166 -314 c 0,57,58
 158.538435465 -314 158.538435465 -314 151.04677429 -313.054570772 c 256,59,60
 143.555113115 -312.109141543 143.555113115 -312.109141543 136.290182234 -310.277751077 c 256,61,62
 129.025251354 -308.44636061 129.025251354 -308.44636061 121.987842294 -305.821468388 c 256,63,64
 114.950433233 -303.196576167 114.950433233 -303.196576167 108.11145618 -299.77708764 c 0,65,66
 82.6272501696 -287.034984635 82.6272501696 -287.034984635 63.716219452 -268.776058425 c 0,67,68
 53.5835517561 -258.992793063 53.5835517561 -258.992793063 46.0145451661 -248.018659349 c 256,69,70
 38.4455385761 -237.044525634 38.4455385761 -237.044525634 33.9449473645 -224.770185966 c 0,71,72
 20.1037850457 -187.02156146 20.1037850457 -187.02156146 46.0733500019 -158.455040009 c 0,0,1
EndSplineSet
Validated: 1
EndChar

StartChar: hyphen
Encoding: 45 45 16
AltUni2: 0000ad.ffffffff.0
Width: 679
GlyphClass: 2
Flags: W
LayerCount: 2
Fore
SplineSet
576 555 m 0,0,1
 398 539 398 539 236 539 c 0,2,3
 177 539 177 539 134.814453125 541.891601562 c 0,4,5
 110.294988039 543.572284375 110.294988039 543.572284375 90.5078125 545.970703125 c 0,6,7
 68.6328125 548.62109375 68.6328125 548.62109375 47.373046875 552.491210938 c 0,8,9
 23.1015625 556.909179688 23.1015625 556.909179688 3.2177734375 564.227539062 c 128,-1,10
 -16.6669921875 571.545898438 -16.6669921875 571.545898438 -31.20703125 582.043945312 c 0,11,12
 -61.4990234375 603.9140625 -61.4990234375 603.9140625 -61.4990234375 635.377929688 c 0,13,14
 -61.4990234375 640.951171875 -61.4990234375 640.951171875 -60.328125 646.3828125 c 0,15,16
 -50.6123046875 694.625976562 -50.6123046875 694.625976562 -16.0986328125 726.961914062 c 0,17,18
 23.4697265625 764.032226562 23.4697265625 764.032226562 94.662109375 769.125 c 2,19,-1
 229.560546875 778.192382812 l 2,20,21
 292.778320312 781.838867188 292.778320312 781.838867188 347.69921875 783.685546875 c 0,22,23
 361.477539062 784.149414062 361.477539062 784.149414062 374.69921875 784.49609375 c 128,-1,24
 387.921875 784.844726562 387.921875 784.844726562 400.62890625 785.077148438 c 128,-1,25
 413.3359375 785.309570312 413.3359375 785.309570312 425.521484375 785.426757812 c 128,-1,26
 437.70703125 785.54296875 437.70703125 785.54296875 449.35546875 785.54296875 c 0,27,28
 505.239257812 785.54296875 505.239257812 785.54296875 543.625976562 783.76171875 c 0,29,30
 563.5390625 782.836914062 563.5390625 782.836914062 583.545898438 780.979492188 c 128,-1,31
 603.552734375 779.120117188 603.552734375 779.120117188 623.629882812 776.333984375 c 0,32,33
 670.022460938 769.897460938 670.022460938 769.897460938 699.795898438 755.1015625 c 0,34,35
 732.06640625 739.064453125 732.06640625 739.064453125 744.25390625 714.256835938 c 0,36,37
 749.48828125 703.600585938 749.48828125 703.600585938 749.48828125 692.280273438 c 0,38,39
 749.48828125 690.80859375 749.48828125 690.80859375 749.3984375 689.33203125 c 0,40,41
 748.39453125 672.79296875 748.39453125 672.79296875 737.743164062 656.79296875 c 0,42,43
 731.064453125 646.9453125 731.064453125 646.9453125 724.30078125 638.30078125 c 128,-1,44
 717.537109375 629.654296875 717.537109375 629.654296875 710.409179688 621.885742188 c 0,45,46
 705.563476562 616.60546875 705.563476562 616.60546875 700.309570312 611.572265625 c 128,-1,47
 695.055664062 606.5390625 695.055664062 606.5390625 689.36328125 601.73046875 c 128,-1,48
 683.671875 596.923828125 683.671875 596.923828125 677.580078125 592.377929688 c 0,49,50
 667.55859375 584.901367188 667.55859375 584.901367188 656.114257812 578.717773438 c 0,51,52
 645.948843634 573.225205592 645.948843634 573.225205592 631.934570312 567.8046875 c 0,53,54
 605.740847463 557.673334603 605.740847463 557.673334603 576 555 c 0,0,1
EndSplineSet
Validated: 1
EndChar

StartChar: period
Encoding: 46 46 17
Width: 720
GlyphClass: 2
Flags: W
LayerCount: 2
Fore
SplineSet
66 151 m 256,0,1
 66 189.163691067 66 189.163691067 80.6990408404 223.674482605 c 0,2,3
 95.1330582931 257.56304532 95.1330582931 257.56304532 119.859994415 282.924005445 c 0,4,5
 132.387549079 295.77277946 132.387549079 295.77277946 147.369716494 305.92211403 c 256,6,7
 162.351883908 316.0714486 162.351883908 316.0714486 179.325517395 323.30095916 c 256,8,9
 196.49400786 330.613464358 196.49400786 330.613464358 214.799449996 334.306732179 c 256,10,11
 233.104892133 338 233.104892133 338 252 338 c 0,12,13
 290.163691067 338 290.163691067 338 324.674482605 323.30095916 c 0,14,15
 358.804400006 308.764142489 358.804400006 308.764142489 384.284271247 283.284271247 c 0,16,17
 396.991016582 270.577525913 396.991016582 270.577525913 407.049700536 255.569461481 c 256,18,19
 417.108384489 240.561397049 417.108384489 240.561397049 424.30095916 223.674482605 c 0,20,21
 431.613464358 206.50599214 431.613464358 206.50599214 435.306732179 188.200550004 c 256,22,23
 439 169.895107867 439 169.895107867 439 151 c 0,24,25
 439 112.836308933 439 112.836308933 424.30095916 78.325517395 c 256,26,27
 409.661090862 43.9536526968 409.661090862 43.9536526968 383.924005445 18.8599944152 c 0,28,29
 371.252183794 6.50496830502 371.252183794 6.50496830502 356.342862536 -3.32893663588 c 256,30,31
 341.433541278 -13.1628415768 341.433541278 -13.1628415768 324.674482605 -20.3009591596 c 0,32,33
 307.50599214 -27.6134643577 307.50599214 -27.6134643577 289.200550004 -31.3067321789 c 256,34,35
 270.895107867 -35 270.895107867 -35 252 -35 c 0,36,37
 213.836308933 -35 213.836308933 -35 179.325517395 -20.3009591596 c 0,38,39
 145.195599994 -5.76414248869 145.195599994 -5.76414248869 120.215728753 19.2157287525 c 256,40,41
 95.2358575113 44.1955999938 95.2358575113 44.1955999938 80.6990408404 78.325517395 c 0,42,43
 66 112.836308933 66 112.836308933 66 151 c 256,0,1
EndSplineSet
Validated: 1
EndChar

StartChar: slash
Encoding: 47 47 18
Width: 944
GlyphClass: 2
Flags: W
LayerCount: 2
Fore
SplineSet
79 0 m 0,0,1
 79 26.3480107079 79 26.3480107079 85.4342213318 55.594471307 c 0,2,3
 91.5464079771 83.3771378764 91.5464079771 83.3771378764 101.546832897 110.044937664 c 0,4,5
 111.035045207 135.346837157 111.035045207 135.346837157 122.112479845 159.611693984 c 0,6,7
 132.445527558 182.245988974 132.445527558 182.245988974 142.772853113 202.988345608 c 2,8,-1
 453.714464912 911.85523553 l 2,9,10
 462.815129984 930.393627343 462.815129984 930.393627343 471.737805188 950.324239338 c 256,11,12
 480.660480391 970.254851333 480.660480391 970.254851333 489.663487076 992.140846928 c 256,13,14
 498.666493761 1014.02684252 498.666493761 1014.02684252 508.140387208 1038.79193241 c 0,15,16
 536.319166005 1112.45224892 536.319166005 1112.45224892 562.052668078 1189.64911064 c 256,17,18
 587.800846433 1266.89364571 587.800846433 1266.89364571 608.579292374 1338.62875669 c 0,19,20
 629.501229025 1410.85925227 629.501229025 1410.85925227 643.426954083 1461.58867927 c 2,21,-1
 643.79115968 1462.91542823 l 1,22,-1
 644.245665745 1464.21401699 l 2,23,24
 653.615127784 1490.98390853 653.615127784 1490.98390853 671.117676542 1510.52013525 c 256,25,26
 688.620225299 1530.05636197 688.620225299 1530.05636197 712.702349125 1540.52818098 c 256,27,28
 736.78447295 1551 736.78447295 1551 765 1551 c 0,29,30
 791.822594161 1551 791.822594161 1551 816.759439801 1542.23840559 c 0,31,32
 829.219055035 1537.86070294 829.219055035 1537.86070294 840.617849499 1531.47040255 c 256,33,34
 852.016643962 1525.08010217 852.016643962 1525.08010217 862.002708561 1516.81577284 c 0,35,36
 864.799754585 1514.50097614 864.799754585 1514.50097614 867.456983128 1512.0778644 c 256,37,38
 870.114211671 1509.65475265 870.114211671 1509.65475265 872.655892008 1507.09572904 c 256,39,40
 875.197572345 1504.53670543 875.197572345 1504.53670543 877.584637352 1501.87779617 c 256,41,42
 879.97170236 1499.21888692 879.97170236 1499.21888692 882.228330918 1496.42486229 c 256,43,44
 884.484959476 1493.63083765 884.484959476 1493.63083765 886.572180883 1490.74586563 c 256,45,46
 888.659402291 1487.86089361 888.659402291 1487.86089361 890.601299005 1484.8416027 c 256,47,48
 892.543195719 1481.82231179 892.543195719 1481.82231179 894.300887434 1478.72050288 c 0,49,50
 901.42219354 1466.1534921 901.42219354 1466.1534921 904.71109677 1451.8344197 c 256,51,52
 908 1437.51534729 908 1437.51534729 908 1422 c 0,53,54
 908 1368.16989529 908 1368.16989529 895.773178802 1304.90938561 c 0,55,56
 883.866607892 1243.30582308 883.866607892 1243.30582308 863.737664418 1177.7577251 c 0,57,58
 843.800339065 1112.83361433 843.800339065 1112.83361433 818.258293979 1047.44597891 c 0,59,60
 792.963931825 982.692411799 792.963931825 982.692411799 766.139340343 921.451363321 c 256,61,62
 739.322129943 860.227165994 739.322129943 860.227165994 712.97655014 806.016069091 c 0,63,64
 706.588448402 792.871321285 706.588448402 792.871321285 700.233376679 780.073637589 c 256,65,66
 693.878304955 767.275953894 693.878304955 767.275953894 687.833803062 755.375308656 c 256,67,68
 681.789301169 743.474663418 681.789301169 743.474663418 676.047258058 732.438830765 c 256,69,70
 670.305214946 721.402998112 670.305214946 721.402998112 665.005119325 711.502691292 c 2,71,-1
 387.642319178 77.9581657771 l 1,72,-1
 386.989994844 76.4681443665 l 1,73,-1
 386.218843997 75.0360070786 l 2,74,75
 380.355574578 64.1470781578 380.355574578 64.1470781578 375.422276019 51.5994429182 c 256,76,77
 370.488977459 39.0518076786 370.488977459 39.0518076786 366.549200875 24.8248366807 c 0,78,79
 361.605752269 6.97349449391 361.605752269 6.97349449391 355.383154529 -9.89665623592 c 256,80,81
 349.160556788 -26.7668069657 349.160556788 -26.7668069657 341.649513556 -42.6234537896 c 0,82,83
 324.636734932 -78.5393197734 324.636734932 -78.5393197734 296.987911859 -102.973163419 c 0,84,85
 264.141754675 -132 264.141754675 -132 212 -132 c 0,86,87
 155.654169905 -132 155.654169905 -132 117.486373195 -94.5523503975 c 0,88,89
 79 -56.7921351875 79 -56.7921351875 79 0 c 0,0,1
EndSplineSet
Validated: 1
EndChar

StartChar: zero
Encoding: 48 48 19
Width: 1366
GlyphClass: 2
Flags: W
LayerCount: 2
Fore
SplineSet
78.5242347828 566.18957633 m 0,0,1
 75 662.210154365 75 662.210154365 75 766.296430189 c 0,2,3
 75 831.46121686 75 831.46121686 91.3739154963 947.014154 c 0,4,5
 103.036582907 1025.48372419 103.036582907 1025.48372419 142.634349665 1122.38168504 c 0,6,7
 176.144460227 1206.84075088 176.144460227 1206.84075088 227.113535584 1280.13228645 c 0,8,9
 252.952396981 1317.28755788 252.952396981 1317.28755788 283.349414649 1349.56058142 c 0,10,11
 313.746432316 1381.83360496 313.746432316 1381.83360496 348.580037997 1409.03807826 c 0,12,13
 418.646295738 1463.75867353 418.646295738 1463.75867353 506.279264793 1495.38677159 c 0,14,15
 594.649526572 1529 594.649526572 1529 700 1529 c 0,16,17
 752.703088069 1529 752.703088069 1529 800.437996564 1518.62263863 c 0,18,19
 848.17290506 1508.76567998 848.17290506 1508.76567998 890.293581787 1488.89395122 c 0,20,21
 931.345668026 1469.526363 931.345668026 1469.526363 967.526872995 1443.45949141 c 0,22,23
 1003.70807796 1417.39261983 1003.70807796 1417.39261983 1034.66143116 1384.89665834 c 0,24,25
 1095.53028155 1320.99431453 1095.53028155 1320.99431453 1138.03377952 1237.2223368 c 0,26,27
 1179.59710749 1155.30338068 1179.59710749 1155.30338068 1205.55593628 1066.04486534 c 0,28,29
 1231.36245275 977.310070498 1231.36245275 977.310070498 1242.72013071 886.591835457 c 0,30,31
 1254 796.495088859 1254 796.495088859 1254 715.406186476 c 0,32,33
 1254 640.267036997 1254 640.267036997 1241.02048135 561.363848217 c 0,34,35
 1227.98616895 482.127565272 1227.98616895 482.127565272 1200.87241833 406.351215916 c 0,36,37
 1173.6360145 330.232080573 1173.6360145 330.232080573 1131.72972568 260.57372069 c 0,38,39
 1089.25545792 189.971242784 1089.25545792 189.971242784 1031.79377182 133.369653347 c 0,40,41
 973.673581523 76.1194163256 973.673581523 76.1194163256 899.490157915 36.802947471 c 0,42,43
 861.911279328 16.8865195456 861.911279328 16.8865195456 820.351841518 3.34098959369 c 0,44,45
 778.792403708 -10.9196829173 778.792403708 -10.9196829173 733.575959492 -18.4557569533 c 2,46,-1
 730.310501212 -19 l 1,47,-1
 727 -19 l 1,48,-1
 639 -19 l 2,49,50
 579.567235053 -19 579.567235053 -19 527.420834848 -11.5512689743 c 0,51,52
 475.274434643 -4.10253794854 475.274434643 -4.10253794854 430.2139787 11.0985797189 c 0,53,54
 339.611731108 40.1000740464 339.611731108 40.1000740464 275.586561372 93.5189058645 c 0,55,56
 211.8041663 146.735180798 211.8041663 146.735180798 171.822565393 221.569580145 c 0,57,58
 133.556378269 293.193203608 133.556378269 293.193203608 107.997569061 379.311464274 c 0,59,60
 82.1918842365 466.261551589 82.1918842365 466.261551589 78.5242347828 566.18957633 c 0,0,1
335.690098923 884.81357406 m 0,61,62
 326 811.930187159 326 811.930187159 326 760.357142857 c 0,63,64
 326 682.578255947 326 682.578255947 326.996670551 610.872079924 c 0,65,66
 327.189377197 597.004083809 327.189377197 597.004083809 327.786862455 583.502528236 c 0,67,68
 328.384347714 570.000972663 328.384347714 570.000972663 329.380804876 556.928058638 c 0,69,70
 330.377262039 543.855144613 330.377262039 543.855144613 331.774085616 531.151806402 c 0,71,72
 333.170909192 518.44846819 333.170909192 518.44846819 334.959227491 506.170793559 c 0,73,74
 336.74754579 493.893118928 336.74754579 493.893118928 338.931818304 481.988155382 c 0,75,76
 342.559746727 462.214818794 342.559746727 462.214818794 347.231509642 443.654498126 c 0,77,78
 351.903272557 425.094177458 351.903272557 425.094177458 357.534029762 407.974724235 c 0,79,80
 363.164786967 390.855271012 363.164786967 390.855271012 369.79907357 374.952819901 c 0,81,82
 388.298384262 330.609787793 388.298384262 330.609787793 421.961596847 298.95541068 c 0,83,84
 455.213035809 267.688234802 455.213035809 267.688234802 506.372035636 250.123440144 c 0,85,86
 523.424696844 244.268624891 523.424696844 244.268624891 543.559676818 240.269602263 c 0,87,88
 563.694656791 236.270579635 563.694656791 236.270579635 587.834289779 234.135289817 c 0,89,90
 611.973922767 232 611.973922767 232 639 232 c 0,91,92
 700.767633856 232 700.767633856 232 750.204331291 251.73131345 c 0,93,94
 800.801871853 271.925945867 800.801871853 271.925945867 840.707269986 306.510624249 c 0,95,96
 881.535216539 341.894844596 881.535216539 341.894844596 911.618564479 388.87565745 c 0,97,98
 942.540189089 437.165597181 942.540189089 437.165597181 962.707809839 491.169259389 c 0,99,100
 983.03305025 545.594986203 983.03305025 545.594986203 992.532607304 602.049496695 c 0,101,102
 998.327246164 632.98872918 998.327246164 632.98872918 1001.16362308 656.479970331 c 0,103,104
 1004 679.971211482 1004 679.971211482 1004 695.357142857 c 0,105,106
 1004 703.25899792 1004 703.25899792 1003.30888493 708.392995572 c 0,107,108
 998 747.830426492 998 747.830426492 998 831.857142857 c 0,109,110
 998 892.347165533 998 892.347165533 981.662336419 953.89681241 c 0,111,112
 964.70397812 1017.78483164 964.70397812 1017.78483164 940.490049571 1078.49260964 c 0,113,114
 937.171163307 1086.81353163 937.171163307 1086.81353163 933.603693099 1094.84522796 c 0,115,116
 930.03622289 1102.87692429 930.03622289 1102.87692429 926.240381751 1110.58134149 c 0,117,118
 922.444540611 1118.2857587 922.444540611 1118.2857587 918.401205142 1125.70740727 c 0,119,120
 914.357869673 1133.12905585 914.357869673 1133.12905585 910.090792478 1140.23109046 c 0,121,122
 905.823715284 1147.33312507 905.823715284 1147.33312507 901.309997402 1154.15876755 c 0,123,124
 896.796279521 1160.98441003 896.796279521 1160.98441003 892.063449118 1167.4981037 c 0,125,126
 887.330618716 1174.01179738 887.330618716 1174.01179738 882.352237242 1180.25555596 c 0,127,128
 865.390235053 1201.52886483 865.390235053 1201.52886483 845.441573054 1218.34130204 c 0,129,130
 825.492911055 1235.15373924 825.492911055 1235.15373924 802.205118488 1247.88585013 c 0,131,132
 758.098895653 1272 758.098895653 1272 697 1272 c 0,133,134
 630.913007491 1272 630.913007491 1272 578.72999221 1252.04767063 c 0,135,136
 565.460822414 1246.97416453 565.460822414 1246.97416453 553.020935458 1240.98596683 c 0,137,138
 540.581048502 1234.99776913 540.581048502 1234.99776913 528.923397994 1228.06991094 c 0,139,140
 517.265747485 1221.14205274 517.265747485 1221.14205274 506.384237675 1213.2826234 c 0,141,142
 495.502727864 1205.42319406 495.502727864 1205.42319406 485.315355123 1196.58042797 c 0,143,144
 443.801084192 1160.5455251 443.801084192 1160.5455251 414.322513549 1112.11644475 c 0,145,146
 384.087288359 1062.44428908 384.087288359 1062.44428908 364.21043049 1004.72578631 c 0,147,148
 357.009678161 982.458977066 357.009678161 982.458977066 351.499436926 961.869868261 c 0,149,150
 345.98919569 941.280759457 345.98919569 941.280759457 342.100224005 922.265133863 c 0,151,152
 338.211252319 903.24950827 338.211252319 903.24950827 335.690098923 884.81357406 c 0,61,62
EndSplineSet
Validated: 1
EndChar

StartChar: one
Encoding: 49 49 20
Width: 1013
GlyphClass: 2
Flags: W
LayerCount: 2
Fore
SplineSet
773 1375.50230506 m 1,0,-1
 772.027469083 264.870301488 l 1,1,-1
 859.342679889 248.99665234 l 2,2,3
 888.698536772 243.934067056 888.698536772 243.934067056 903.1999576 235.337385229 c 2,4,-1
 904.245873696 234.717348889 l 1,5,-1
 905.249527749 234.037368657 l 2,6,7
 914.895437472 227.502220506 914.895437472 227.502220506 923.277420402 219.551855787 c 0,8,9
 931.659403331 211.601491068 931.659403331 211.601491068 938.549338848 202.452283656 c 0,10,11
 940.044107739 200.467366587 940.044107739 200.467366587 941.468652203 198.435054834 c 0,12,13
 942.893196668 196.402743082 942.893196668 196.402743082 944.242420975 194.330700895 c 0,14,15
 945.591645283 192.258658709 945.591645283 192.258658709 946.868525467 190.143652842 c 0,16,17
 948.145405652 188.028646976 948.145405652 188.028646976 949.346129185 185.876358531 c 0,18,19
 950.546852719 183.724070085 950.546852719 183.724070085 951.673026885 181.533381173 c 0,20,21
 952.799201052 179.342692261 952.799201052 179.342692261 953.848382073 177.117168625 c 0,22,23
 954.897563095 174.891644988 954.897563095 174.891644988 955.869989505 172.632284099 c 0,24,25
 956.842415916 170.372923209 956.842415916 170.372923209 957.737012687 168.081175451 c 0,26,27
 958.631609459 165.789427692 958.631609459 165.789427692 959.447331922 163.468273684 c 0,28,29
 967 141.977010939 967 141.977010939 967 122.541064719 c 0,30,31
 967 117.986353896 967 117.986353896 966.57244035 113.364196638 c 0,32,33
 966.1448807 108.742039379 966.1448807 108.742039379 965.315257239 104.186408622 c 0,34,35
 964.485633777 99.6307778652 964.485633777 99.6307778652 963.344984475 95.1904080811 c 0,36,37
 962.204335172 90.7500382971 962.204335172 90.7500382971 960.702565472 86.1601818137 c 0,38,39
 954.601916149 67.5147764236 954.601916149 67.5147764236 943.690856026 51.3441347011 c 0,40,41
 939.84775314 45.6484975057 939.84775314 45.6484975057 935.37474877 40.4079181852 c 0,42,43
 930.901744399 34.882832487 930.901744399 34.882832487 925.822657369 29.8791926954 c 0,44,45
 920.743570339 24.8755529038 920.743570339 24.8755529038 915.152330466 20.4997999597 c 0,46,47
 892.791474962 3 892.791474962 3 865 3 c 2,48,-1
 221 3 l 2,49,50
 194.45712692 3 194.45712692 3 168.43472453 6.32200881585 c 0,51,52
 137.971941421 10.2108747446 137.971941421 10.2108747446 113.2278126 22.9173192743 c 0,53,54
 85.3569324951 37.2293928418 85.3569324951 37.2293928418 68.0717808119 63.5328845336 c 0,55,56
 50 91.0334205517 50 91.0334205517 50 131 c 0,57,58
 50 150.074913802 50 150.074913802 54.3217182697 171.066116827 c 0,59,60
 56.7320435358 182.773410976 56.7320435358 182.773410976 60.9924431071 193.779256763 c 0,61,62
 65.2528426784 204.785102549 65.2528426784 204.785102549 71.3084993911 214.75912537 c 0,63,64
 83.9524531338 235.584460946 83.9524531338 235.584460946 103.399336426 249.79564489 c 0,65,66
 115.316258362 258.504164766 115.316258362 258.504164766 129.622734282 262.752082383 c 0,67,68
 143.929210203 267 143.929210203 267 159 267 c 2,69,-1
 494 267 l 1,70,-1
 494 1091.61387898 l 2,71,72
 490.708915485 1089.58040646 490.708915485 1089.58040646 488.60447794 1088.2934369 c 0,73,74
 486.500040394 1087.00646735 486.500040394 1087.00646735 483.67499832 1085.29699989 c 0,75,76
 443.588946022 1061.04044017 443.588946022 1061.04044017 400.852624751 1041.72831123 c 0,77,78
 378.931788576 1031.82249804 378.931788576 1031.82249804 356.287823052 1023.9324245 c 0,79,80
 333.643857529 1016.04235095 333.643857529 1016.04235095 310.334469596 1010.1915721 c 0,81,82
 286.321677028 1004.16423498 286.321677028 1004.16423498 261.696855953 1001.14398801 c 0,83,84
 237.072034878 998.123741041 237.072034878 998.123741041 212 998.123741041 c 2,85,-1
 178 998.123741041 l 1,86,-1
 171.11356943 998.123741041 l 1,87,-1
 164.623606193 1000.28509879 l 2,88,89
 143.664962625 1007.26497294 143.664962625 1007.26497294 126.986517373 1018.82603839 c 0,90,91
 110.308072122 1030.38710384 110.308072122 1030.38710384 99.7707206568 1046.74321308 c 0,92,93
 90.0351049082 1061.85486567 90.0351049082 1061.85486567 85.5175524541 1079.63453508 c 0,94,95
 81 1097.41420449 81 1097.41420449 81 1117.31849728 c 0,96,97
 81 1154.86015279 81 1154.86015279 104 1183.95493581 c 0,98,99
 113.8338047 1196.26084609 113.8338047 1196.26084609 126.36721232 1206.81758474 c 0,100,101
 138.900619939 1217.37432338 138.900619939 1217.37432338 153.8000424 1226.11415128 c 0,102,103
 180.978954802 1242.05698513 180.978954802 1242.05698513 213.971671837 1254.12809869 c 0,104,105
 244.126889154 1265.16105036 244.126889154 1265.16105036 274.785983011 1275.23215365 c 0,106,107
 289.475919596 1280.05764336 289.475919596 1280.05764336 303.406838927 1284.87465508 c 0,108,109
 317.337758258 1289.69166681 317.337758258 1289.69166681 330.502149554 1294.49651584 c 0,110,111
 336.198332858 1296.5755562 336.198332858 1296.5755562 341.490007398 1298.81706608 c 0,112,113
 346.781681938 1301.05857597 346.781681938 1301.05857597 351.271027517 1303.27142383 c 0,114,115
 355.760373095 1305.48427169 355.760373095 1305.48427169 359.546298466 1307.64001911 c 0,116,117
 363.332223837 1309.79576653 363.332223837 1309.79576653 366.425671591 1311.89261507 c 0,118,119
 420.846318059 1349.52758385 420.846318059 1349.52758385 469.715728753 1395.39354838 c 0,120,121
 520.421132889 1442.98266875 520.421132889 1442.98266875 567.132737019 1488.68900735 c 2,122,-1
 568.955744017 1490.58958911 l 1,123,-1
 571.012198098 1492.23475238 l 2,124,125
 579.229042181 1498.80822764 579.229042181 1498.80822764 588.689661843 1503.53842714 c 0,126,127
 598.150281505 1508.26862663 598.150281505 1508.26862663 608.298574999 1510.80570001 c 2,128,-1
 609.84832735 1511.19313809 l 1,129,-1
 611.424040508 1511.45575695 l 2,130,131
 619.105470585 1512.7359953 619.105470585 1512.7359953 627.005490544 1513.36799765 c 0,132,133
 634.905510502 1514 634.905510502 1514 643 1514 c 0,134,135
 700.909498226 1514 700.909498226 1514 737.837506465 1474.77037228 c 0,136,137
 773 1437.41629885 773 1437.41629885 773 1384.05461886 c 2,138,-1
 773 1375.50230506 l 1,0,-1
EndSplineSet
Validated: 1
EndChar

StartChar: two
Encoding: 50 50 21
Width: 1315
GlyphClass: 2
Flags: W
LayerCount: 2
Fore
SplineSet
114.178413231 36.8250529367 m 0,0,1
 75 70.0607964189 75 70.0607964189 75 122.398605363 c 0,2,3
 75 162.727664386 75 162.727664386 118.695957833 214.284937264 c 0,4,5
 155.330959848 257.51092176 155.330959848 257.51092176 214.720686038 311.313179781 c 0,6,7
 272.744568484 363.878094539 272.744568484 363.878094539 346.286506621 425.810443544 c 0,8,9
 418.829589791 486.901620341 418.829589791 486.901620341 494.885468946 555.019050836 c 0,10,11
 570.508073438 622.748430373 570.508073438 622.748430373 643.214680175 696.092732945 c 0,12,13
 714.834363995 768.342457056 714.834363995 768.342457056 770.74949773 843.183428682 c 0,14,15
 798.3297789 880.098927271 798.3297789 880.098927271 820.405694828 917.170343069 c 0,16,17
 842.481610755 954.241758866 842.481610755 954.241758866 859.109683896 991.474447522 c 0,18,19
 869.842219411 1015.50616484 869.842219411 1015.50616484 876.942300064 1039.21136398 c 0,20,21
 884.042380718 1062.91656313 884.042380718 1062.91656313 887.521190359 1086.08138299 c 0,22,23
 891 1109.24620284 891 1109.24620284 891 1132.29381645 c 0,24,25
 891 1149.18021675 891 1149.18021675 886.557153171 1162.00708158 c 0,26,27
 882.114306341 1174.8339464 882.114306341 1174.8339464 873.128674815 1185.49528116 c 0,28,29
 851.959403638 1210.61234565 851.959403638 1210.61234565 819.087313422 1226.60997511 c 0,30,31
 783.757330669 1243.80376987 783.757330669 1243.80376987 742.477109168 1251.22286111 c 0,32,33
 727.935376116 1253.83637529 727.935376116 1253.83637529 714.04986207 1255.57145172 c 0,34,35
 700.164348024 1257.30652816 700.164348024 1257.30652816 687.212832859 1258.15326408 c 0,36,37
 674.261317693 1259 674.261317693 1259 662 1259 c 0,38,39
 609.687747138 1259 609.687747138 1259 565.951133723 1236.85414212 c 0,40,41
 517.932778892 1212.54024173 517.932778892 1212.54024173 477.905674286 1175.7203321 c 0,42,43
 436.151619346 1137.31184503 436.151619346 1137.31184503 401.989154074 1093.47599902 c 0,44,45
 383.795755251 1070.13099089 383.795755251 1070.13099089 367.075048199 1048.94132551 c 0,46,47
 350.354341148 1027.75166013 350.354341148 1027.75166013 334.454431363 1007.89487074 c 0,48,49
 329.341811941 1001.78977586 329.341811941 1001.78977586 323.819826704 996.638681697 c 0,50,51
 318.297841466 991.487587534 318.297841466 991.487587534 311.98619481 987.016305037 c 0,52,53
 305.674548153 982.54502254 305.674548153 982.54502254 298.487024404 979.043898842 c 0,54,55
 291.299500654 975.542775144 291.299500654 975.542775144 283.472972973 973.181722263 c 0,56,57
 275.223026745 970.692935396 275.223026745 970.692935396 266.318581393 969.07785706 c 0,58,59
 257.41413604 967.462778724 257.41413604 967.462778724 248.495946591 966.731389362 c 0,60,61
 239.577757142 966 239.577757142 966 230 966 c 0,62,63
 180.846765364 966 180.846765364 966 143.535919901 996.603865303 c 0,64,65
 105 1028.04767117 105 1028.04767117 105 1074.4857174 c 2,66,-1
 105 1079.12185917 l 1,67,-1
 105 1080.80426002 l 1,68,-1
 105.164271741 1082.4797516 l 2,69,70
 106 1091.00377191 106 1091.00377191 106 1097.20281207 c 0,71,72
 106 1101.76235282 106 1101.76235282 106.635401225 1106.2505534 c 0,73,74
 107.270802449 1110.73875398 107.270802449 1110.73875398 108.477401461 1114.93841312 c 0,75,76
 109.684000473 1119.13807227 109.684000473 1119.13807227 111.162553669 1122.90169126 c 0,77,78
 112.641106864 1126.66531025 112.641106864 1126.66531025 114.585340901 1130.63135788 c 2,79,-1
 116.249796912 1134.02668566 l 1,80,-1
 118.610006289 1137.04675088 l 2,81,82
 168.681120752 1201.11650359 168.681120752 1201.11650359 219.751177645 1265.64738328 c 0,83,84
 273.075233909 1333.02637535 273.075233909 1333.02637535 335.971014859 1386.48523083 c 0,85,86
 400.434300088 1441.27640119 400.434300088 1441.27640119 478.908496489 1475.66463062 c 0,87,88
 560.023915761 1514 560.023915761 1514 662 1514 c 0,89,90
 747.249610884 1514 747.249610884 1514 832.821445103 1491.14541074 c 0,91,92
 919.803340907 1469.12838321 919.803340907 1469.12838321 989.865666731 1424.34660556 c 0,93,94
 1061.71055865 1378.42546409 1061.71055865 1378.42546409 1106.27695596 1308.20617661 c 0,95,96
 1129.25035823 1272.00904073 1129.25035823 1272.00904073 1140.62517912 1229.56295223 c 0,97,98
 1152 1187.11686373 1152 1187.11686373 1152 1139.39765795 c 0,99,100
 1152 1108.95631769 1152 1108.95631769 1148.54141078 1078.53375305 c 0,101,102
 1145.08282155 1048.11118842 1145.08282155 1048.11118842 1138.20816976 1017.88828848 c 0,103,104
 1131.33351797 987.66538854 1131.33351797 987.66538854 1121.05228343 957.59371897 c 0,105,106
 1105.92316521 913.34243353 1105.92316521 913.34243353 1085.73458964 870.014449571 c 0,107,108
 1065.54601407 826.686465612 1065.54601407 826.686465612 1040.34136116 784.329516555 c 0,109,110
 1027.84455358 763.328368728 1027.84455358 763.328368728 1014.41637186 742.636649003 c 0,111,112
 1000.98819013 721.944929279 1000.98819013 721.944929279 986.640149218 701.579087159 c 0,113,114
 972.292108306 681.213245038 972.292108306 681.213245038 957.027286129 661.172274965 c 0,115,116
 941.762463952 641.131304892 941.762463952 641.131304892 925.574088695 621.405489281 c 0,117,118
 861.523545111 543.358792654 861.523545111 543.358792654 792.361488303 472.509818985 c 0,119,120
 757.981440267 437.291214587 757.981440267 437.291214587 723.703869395 404.085887481 c 0,121,122
 689.426298524 370.880560375 689.426298524 370.880560375 655.245667483 339.686141687 c 0,123,124
 633.160382297 319.530351347 633.160382297 319.530351347 611.673190248 300.213977347 c 1,125,126
 625.648040322 300.958919149 625.648040322 300.958919149 639.127056548 301.557725935 c 0,127,128
 699.06988559 304.220692743 699.06988559 304.220692743 761.29178107 304.427362993 c 0,129,130
 772.167607654 307.285720121 772.167607654 307.285720121 788 307.285720121 c 0,131,132
 797.762390193 307.285720121 797.762390193 307.285720121 811.45321604 306.537026795 c 0,133,134
 825.144041887 305.788333469 825.144041887 305.788333469 843.100182806 304.329675556 c 0,135,136
 863.354175445 302.990459389 863.354175445 302.990459389 886.122459509 302.294882678 c 0,137,138
 908.890743572 301.599305967 908.890743572 301.599305967 933 301.599305967 c 0,139,140
 986.847563722 301.599305967 986.847563722 301.599305967 1042.1245822 291.426878126 c 0,141,142
 1055.82915166 288.904876259 1055.82915166 288.904876259 1068.86262333 285.96728929 c 0,143,144
 1081.896095 283.029702322 1081.896095 283.029702322 1094.37898722 279.644348626 c 0,145,146
 1106.86187944 276.25899493 1106.86187944 276.25899493 1118.76708914 272.410008573 c 0,147,148
 1130.67229883 268.561022216 1130.67229883 268.561022216 1141.93361735 264.265889707 c 0,149,150
 1190.69045928 245.669746071 1190.69045928 245.669746071 1223.04736354 214.42535314 c 0,151,152
 1241.73566325 196.379603939 1241.73566325 196.379603939 1251.36783162 172.965760626 c 0,153,154
 1261 149.551917313 1261 149.551917313 1261 123.424995816 c 0,155,156
 1261 70.9971099427 1261 70.9971099427 1224.98738582 40.4640814279 c 0,157,158
 1190.32234972 8 1190.32234972 8 1146 8 c 0,159,160
 1138.82022198 8 1138.82022198 8 1129.66347699 9.46507919863 c 0,161,162
 1089.7034423 14 1089.7034423 14 1047.5 14 c 0,163,164
 998.164621282 14 998.164621282 14 947.899123737 23.7288059764 c 0,165,166
 926.372699092 27.8952107464 926.372699092 27.8952107464 903.93265368 30.7700749088 c 0,167,168
 881.492608268 33.6449390712 881.492608268 33.6449390712 860.018986105 35.0449171545 c 0,169,170
 804.01452434 37 804.01452434 37 782 37 c 2,171,-1
 773.008442377 37 l 2,172,173
 763.989790312 36.3684970108 763.989790312 36.3684970108 733.542971099 36.1861455799 c 0,174,175
 703.096151887 36.003794149 703.096151887 36.003794149 634.978427754 36.0000007691 c 0,176,177
 573.432957431 33 573.432957431 33 501 33 c 0,178,179
 467.519435286 33 467.519435286 33 436.108615081 30.6203789828 c 0,180,181
 404.697794876 28.2407579655 404.697794876 28.2407579655 375.369297553 23.5103551715 c 2,182,-1
 374.29792674 23.3375534275 l 1,183,-1
 373.218762481 23.2230966121 l 2,184,185
 308.929883856 16.4045791822 308.929883856 16.4045791822 243.619098734 3.7323372929 c 2,186,-1
 239.844744994 3 l 1,187,-1
 236 3 l 1,188,-1
 206 3 l 2,189,190
 151.601876055 3 151.601876055 3 114.178413231 36.8250529367 c 0,0,1
EndSplineSet
Validated: 1
EndChar

StartChar: three
Encoding: 51 51 22
Width: 1306
GlyphClass: 2
Flags: W
LayerCount: 2
Fore
SplineSet
69.2557455483 242.662738254 m 0,0,1
 38 283.431102012 38 283.431102012 38 330 c 0,2,3
 38 338.599243251 38 338.599243251 39.1427717366 347.114097997 c 0,4,5
 40.2855434733 355.628952742 40.2855434733 355.628952742 42.5538140146 363.921785537 c 0,6,7
 44.8220845558 372.214618333 44.8220845558 372.214618333 48.176728725 380.121993874 c 0,8,9
 57.878673243 402.990863095 57.878673243 402.990863095 74.0627595295 420.582261233 c 0,10,11
 91.2591671087 439.274008601 91.2591671087 439.274008601 114.967246639 449.646293396 c 0,12,13
 138.632861734 460 138.632861734 460 165 460 c 0,14,15
 213.491106407 460 213.491106407 460 263.149110641 443.447331922 c 0,16,17
 285.964207037 435.84229979 285.964207037 435.84229979 309.324603169 426.576438106 c 0,18,19
 332.684999302 417.310576422 332.684999302 417.310576422 356.611693984 406.387520155 c 0,20,21
 403.70491823 384.88843952 403.70491823 384.88843952 452.766209038 358.824628778 c 0,22,23
 475.93250243 346.517535414 475.93250243 346.517535414 499.70370335 335.295597994 c 0,24,25
 523.47490427 324.073660574 523.47490427 324.073660574 547.858645991 313.933886789 c 0,26,27
 571.935960097 303.921538349 571.935960097 303.921538349 596.605368702 295.460050546 c 0,28,29
 621.274777307 286.998562743 621.274777307 286.998562743 646.555491396 280.082140964 c 0,30,31
 694.372972162 267 694.372972162 267 745 267 c 0,32,33
 769.946602041 267 769.946602041 267 801.903998181 270.032721647 c 0,34,35
 817.637635597 271.525826484 817.637635597 271.525826484 833.524330902 273.984568542 c 0,36,37
 849.411026208 276.443310601 849.411026208 276.443310601 865.464380719 279.875005949 c 0,38,39
 897.300699187 286.83928015 897.300699187 286.83928015 926.854686171 297.90298151 c 0,40,41
 954.471090198 308.31797479 954.471090198 308.31797479 975.437723527 323.856665361 c 0,42,43
 994.81131501 338.214728412 994.81131501 338.214728412 1006.50427168 357.687273186 c 0,44,45
 1017 375.16604656 1017 375.16604656 1017 399.75 c 0,46,47
 1017 432.83451656 1017 432.83451656 1002.44638747 460.755573023 c 0,48,49
 999.798263679 465.835989577 999.798263679 465.835989577 996.867796239 470.801975915 c 0,50,51
 993.937328798 475.767962254 993.937328798 475.767962254 990.70312976 480.652804469 c 0,52,53
 987.468930721 485.537646683 987.468930721 485.537646683 983.934171944 490.324263995 c 0,54,55
 980.399413167 495.110881307 980.399413167 495.110881307 976.558002407 499.810582903 c 0,56,57
 972.716591648 504.5102845 972.716591648 504.5102845 968.555385342 509.129431634 c 0,58,59
 964.394179037 513.748578768 964.394179037 513.748578768 959.922380651 518.276503722 c 0,60,61
 932.370390901 546.174304819 932.370390901 546.174304819 896.949129557 569.199543813 c 0,62,63
 888.949468696 574.399643872 888.949468696 574.399643872 867.060817443 582.224364861 c 0,64,65
 845.172166189 590.04908585 845.172166189 590.04908585 805.955665294 600.698032779 c 0,66,67
 766.739164399 611.346979708 766.739164399 611.346979708 719.431006108 621.499329866 c 0,68,69
 638.832184443 638.795870028 638.832184443 638.795870028 590.901165461 651.202550047 c 0,70,71
 542.970146479 663.609230067 542.970146479 663.609230067 518.181559489 674.199171384 c 0,72,73
 477.314496988 691.658004106 477.314496988 691.658004106 444.447882228 705.430236144 c 2,74,-1
 440.258829797 707.185591921 l 1,75,-1
 436.611569566 709.771990402 l 2,76,77
 420.556567175 721.157148347 420.556567175 721.157148347 410.506485785 731.657389632 c 0,78,79
 399.555533646 743.09885317 399.555533646 743.09885317 392.72291236 755.696498666 c 0,80,81
 391.000587188 758.872035703 391.000587188 758.872035703 389.590292201 762.226460784 c 0,82,83
 388.179997215 765.580885866 388.179997215 765.580885866 387.132946724 768.926142384 c 0,84,85
 386.085896234 772.271398902 386.085896234 772.271398902 385.332475479 775.738101812 c 0,86,87
 384.579054725 779.204804721 384.579054725 779.204804721 384.140211277 782.60993152 c 0,88,89
 383.701367828 786.015058319 383.701367828 786.015058319 383.537753666 789.484189855 c 0,90,91
 383 800.88624805 383 800.88624805 383 816.4375 c 2,92,-1
 383 830.265625 l 2,93,94
 383 837.636038529 383 837.636038529 383.698512392 844.075449639 c 0,95,96
 384.735105612 853.631543388 384.735105612 853.631543388 390.263121353 865.279862272 c 0,97,98
 393.187711998 871.943098145 393.187711998 871.943098145 395.294568184 875.810409095 c 0,99,100
 397.401424369 879.677720045 397.401424369 879.677720045 401.323333806 884.297064094 c 0,101,102
 405.245243243 888.916408143 405.245243243 888.916408143 410.783291198 893.000718509 c 2,103,-1
 847.449250639 1226.00599883 l 1,104,105
 805.096163923 1224.41324869 805.096163923 1224.41324869 763.188209171 1221.59043308 c 0,106,107
 665.301591557 1214.99703397 665.301591557 1214.99703397 564 1215 c 0,108,109
 558.917763948 1215 558.917763948 1215 552.612298406 1214.87948324 c 0,110,111
 546.306832863 1214.75896648 546.306832863 1214.75896648 538.808727504 1214.51825529 c 0,112,113
 531.310622145 1214.2775441 531.310622145 1214.2775441 522.546208239 1213.90833251 c 0,114,115
 513.781794332 1213.53912093 513.781794332 1213.53912093 503.997504678 1213.04990644 c 0,116,117
 490.286746755 1212.36436855 490.286746755 1212.36436855 475.752679404 1211.90846754 c 0,118,119
 461.218612053 1211.45256653 461.218612053 1211.45256653 445.927446437 1211.22628327 c 0,120,121
 430.636280821 1211 430.636280821 1211 414.5 1211 c 0,122,123
 406.20018314 1211 406.20018314 1211 397.845243396 1211.16009989 c 0,124,125
 389.490303652 1211.32019978 389.490303652 1211.32019978 381.089144327 1211.64011546 c 0,126,127
 372.687985002 1211.96003114 372.687985002 1211.96003114 364.236209328 1212.4391479 c 0,128,129
 355.784433653 1212.91826466 355.784433653 1212.91826466 347.282224863 1213.55678735 c 0,130,131
 338.780016073 1214.19531005 338.780016073 1214.19531005 330.232278805 1214.99210241 c 0,132,133
 321.684541537 1215.78889477 321.684541537 1215.78889477 313.082738957 1216.74465061 c 0,134,135
 259.148401682 1222.73735475 259.148401682 1222.73735475 214.431608918 1238.19501151 c 0,136,137
 202.430550811 1242.34352543 202.430550811 1242.34352543 191.366535779 1247.47169501 c 0,138,139
 180.302520746 1252.59986459 180.302520746 1252.59986459 170.047506614 1258.78917994 c 0,140,141
 159.792492482 1264.97849529 159.792492482 1264.97849529 150.456021654 1272.31636647 c 0,142,143
 141.119550826 1279.65423764 141.119550826 1279.65423764 132.942470056 1287.99165332 c 0,144,145
 96 1325.65848554 96 1325.65848554 96 1384 c 0,146,147
 96 1435.63935338 96 1435.63935338 130.647997044 1473.17468351 c 0,148,149
 168.557219501 1514 168.557219501 1514 226 1514 c 2,150,-1
 236 1514 l 1,151,-1
 244 1514 l 2,152,153
 268.774279923 1514 268.774279923 1514 315.712863699 1509.82768144 c 0,154,155
 336.697285108 1507.78042082 336.697285108 1507.78042082 358.554419192 1505.54500404 c 0,156,157
 380.411553275 1503.30958726 380.411553275 1503.30958726 404.425843975 1500.75487549 c 0,158,159
 447.593832613 1495.73534192 447.593832613 1495.73534192 491.067626905 1490.73835407 c 0,160,161
 532.291307343 1486 532.291307343 1486 574 1486 c 0,162,163
 706.329912653 1486 706.329912653 1486 836.165637915 1496.8607831 c 0,164,165
 969.329912653 1508 969.329912653 1508 1105 1508 c 0,166,167
 1132.05409125 1508 1132.05409125 1508 1159.72630514 1503.74954795 c 0,168,169
 1172.35723759 1502.56378694 1172.35723759 1502.56378694 1184.79976127 1498.87409571 c 0,170,171
 1197.24228495 1495.18440448 1197.24228495 1495.18440448 1214.93173138 1488.1086259 c 0,172,173
 1219.92246725 1486.08856615 1219.92246725 1486.08856615 1233.45672563 1481.64499307 c 0,174,175
 1246.99098401 1477.20141999 1246.99098401 1477.20141999 1253.21826446 1474.22946622 c 0,176,177
 1259.44554492 1471.41147767 1259.44554492 1471.41147767 1268.03026361 1463.59733411 c 0,178,179
 1276.61498231 1455.78319055 1276.61498231 1455.78319055 1281.84537883 1444.2111866 c 0,180,181
 1295 1414.27566969 1295 1414.27566969 1295 1348.85028802 c 0,182,183
 1295 1328.12843522 1295 1328.12843522 1277.45661497 1303.3926711 c 2,184,-1
 1267.91993216 1288.92447139 l 1,185,-1
 1265.06221052 1284.58899246 l 1,186,-1
 1261.09579499 1281.12574118 l 1,187,-1
 786.03047303 866.325382673 l 1,188,189
 884.791492942 839.289773287 884.791492942 839.289773287 947.008690739 817.356117869 c 0,190,191
 1081.68830055 769.340019417 1081.68830055 769.340019417 1160.38757237 682.280818283 c 0,192,193
 1216.62612823 619.900562095 1216.62612823 619.900562095 1252.33001163 551.686863896 c 0,194,195
 1271.17340063 515.685815039 1271.17340063 515.685815039 1280.58670032 475.854612862 c 0,196,197
 1290 436.023410685 1290 436.023410685 1290 393.070799265 c 0,198,199
 1290 323.154105589 1290 323.154105589 1265.61509741 265.618919605 c 0,200,201
 1241.508528 208.740449454 1241.508528 208.740449454 1199.85664631 164.443055925 c 0,202,203
 1158.86354463 120.846284709 1158.86354463 120.846284709 1104.23206864 89.4515972473 c 0,204,205
 1051.13076978 58.9362459465 1051.13076978 58.9362459465 991.153905882 39.1334044277 c 0,206,207
 931.831797313 19.5467465355 931.831797313 19.5467465355 869.358775173 10.0086594517 c 0,208,209
 807.199732262 0 807.199732262 0 748 0 c 0,210,211
 718.655144628 0 718.655144628 0 673.826350097 5.27397582708 c 0,212,213
 651.768117711 7.86906199023 651.768117711 7.86906199023 627.34089163 11.726031108 c 0,214,215
 602.91366555 15.5830002258 602.91366555 15.5830002258 576.015515684 20.7064573431 c 0,216,217
 549.067981214 25.8393210518 549.067981214 25.8393210518 520.919898415 32.2366161864 c 0,218,219
 492.771815616 38.6339113211 492.771815616 38.6339113211 463.403124114 46.2953091041 c 0,220,221
 404.510786387 61.6585276416 404.510786387 61.6585276416 347.14814621 81.1208519874 c 0,222,223
 289.472910596 100.689235499 289.472910596 100.689235499 236.854391737 123.903287937 c 0,224,225
 182.366236522 147.942179944 182.366236522 147.942179944 140.231600847 177.112312334 c 0,226,227
 96.0730969316 207.683584276 96.0730969316 207.683584276 69.2557455483 242.662738254 c 0,0,1
EndSplineSet
Validated: 1
EndChar

StartChar: four
Encoding: 52 52 23
Width: 1045
GlyphClass: 2
Flags: W
LayerCount: 2
Fore
SplineSet
671.255842301 33.7125304735 m 0,0,1
 637 63.9107764184 637 63.9107764184 637 114.536608744 c 0,2,3
 637 173.493748843 637 173.493748843 655.83605645 240.814879543 c 0,4,5
 661.7325269 261.889198304 661.7325269 261.889198304 668.075922788 283.487669196 c 256,6,7
 674.419318675 305.086140087 674.419318675 305.086140087 681.202720334 327.186932135 c 256,8,9
 687.986121993 349.287724183 687.986121993 349.287724183 695.2167571 371.916020944 c 0,10,11
 702.262042746 393.964265948 702.262042746 393.964265948 708.8712923 416.32590013 c 256,12,13
 715.480541855 438.687534312 715.480541855 438.687534312 721.657075557 461.375398395 c 256,14,15
 727.833609259 484.063262478 727.833609259 484.063262478 733.573686261 507.065332484 c 0,16,17
 741.800781434 540.033569506 741.800781434 540.033569506 745.900390717 572.890031053 c 256,18,19
 750 605.746492599 750 605.746492599 750 638.596186681 c 2,20,-1
 750 642.172042745 l 1,21,22
 739.932759541 646.291718406 739.932759541 646.291718406 728.802376575 649.709868981 c 256,23,24
 717.671993608 653.128019556 717.671993608 653.128019556 704.087711968 656.244729878 c 0,25,26
 681.204132943 661.49502495 681.204132943 661.49502495 655.85807796 666.207024839 c 256,27,28
 630.512022977 670.919024727 630.512022977 670.919024727 602.761497061 675.071379033 c 0,29,30
 546.686389083 683.461984559 546.686389083 683.461984559 484.117101311 689.998421226 c 0,31,32
 420.256650927 696.669742003 420.256650927 696.669742003 357.881146495 704.296849226 c 0,33,34
 345.270437286 705.838881063 345.270437286 705.838881063 332.901637316 707.477528462 c 256,35,36
 320.532837345 709.116175862 320.532837345 709.116175862 308.38755105 710.854171847 c 256,37,38
 296.242264755 712.592167833 296.242264755 712.592167833 284.337443544 714.427388075 c 256,39,40
 272.432622333 716.262608317 272.432622333 716.262608317 260.751560778 718.197882617 c 256,41,42
 249.070499223 720.133156917 249.070499223 720.133156917 237.628458598 722.166264166 c 0,43,44
 178.185316805 732.728565635 178.185316805 732.728565635 132.406809648 749.060898035 c 0,45,46
 83.0382931625 766.674032919 83.0382931625 766.674032919 52.0351345165 792.598140303 c 0,47,48
 33.5092417971 808.089053269 33.5092417971 808.089053269 23.2546208986 828.859092339 c 256,49,50
 13 849.629131408 13 849.629131408 13 872.669813717 c 2,51,-1
 13 896.361476372 l 1,52,-1
 13 902.488352822 l 1,53,-1
 15.0367473035 908.303256795 l 1,54,-1
 94.1946873864 1134.29880347 l 2,55,56
 98.0122892803 1144.34828527 98.0122892803 1144.34828527 101.312013367 1158.29952724 c 256,57,58
 104.611737453 1172.2507692 104.611737453 1172.2507692 107.402020254 1190.76057207 c 0,59,60
 113.285710101 1229.79100268 113.285710101 1229.79100268 117.702964319 1271.18672097 c 0,61,62
 119.171070552 1284.94488589 119.171070552 1284.94488589 120.366615369 1298.23324299 c 256,63,64
 121.562160187 1311.52160009 121.562160187 1311.52160009 122.481856096 1324.28841299 c 256,65,66
 123.401552006 1337.05522588 123.401552006 1337.05522588 124.049906445 1349.34370161 c 0,67,68
 124.539305502 1358.6194435 124.539305502 1358.6194435 124.908147764 1366.97164059 c 256,69,70
 125.276990027 1375.32383768 125.276990027 1375.32383768 125.517962164 1382.54850911 c 256,71,72
 125.758934301 1389.77318053 125.758934301 1389.77318053 125.879467151 1395.92942963 c 256,73,74
 126 1402.08567874 126 1402.08567874 126 1407.15372322 c 2,75,-1
 126 1408.41587773 l 1,76,-1
 126.088593686 1409.67523675 l 2,77,78
 127.689069895 1432.42600222 127.689069895 1432.42600222 139.099759362 1451.73587405 c 0,79,80
 149.572281079 1469.45812059 149.572281079 1469.45812059 165.468345062 1482.37026409 c 0,81,82
 181.399487103 1496.0255287 181.399487103 1496.0255287 201.607425767 1503.50995043 c 0,83,84
 206.575573291 1505.35000507 206.575573291 1505.35000507 211.676376267 1506.74818854 c 256,85,86
 216.777179243 1508.14637201 216.777179243 1508.14637201 221.968412949 1509.09242025 c 256,87,88
 227.159646655 1510.03846849 227.159646655 1510.03846849 232.442143224 1510.51923424 c 256,89,90
 237.724639794 1511 237.724639794 1511 243 1511 c 0,91,92
 299.568542495 1511 299.568542495 1511 334.784271247 1475.78427125 c 256,93,94
 370 1440.56854249 370 1440.56854249 370 1383 c 0,95,96
 370 1259.70375969 370 1259.70375969 350.460404252 1141.95198532 c 0,97,98
 342.069954321 1091.38848442 342.069954321 1091.38848442 329.26519753 1040.27890685 c 256,99,100
 316.460440738 989.169329289 316.460440738 989.169329289 299.832376225 939.531305419 c 1,101,102
 346.870553648 932.330503832 346.870553648 932.330503832 402.040479755 924.614430251 c 0,103,104
 474.162752935 914.527399037 474.162752935 914.527399037 547.751057256 901.926174376 c 0,105,106
 584.865881064 895.570896327 584.865881064 895.570896327 621.113103178 888.194268727 c 256,107,108
 657.360325292 880.817641127 657.360325292 880.817641127 692.739584228 872.418248718 c 0,109,110
 732.887829525 862.886650914 732.887829525 862.886650914 768.518559871 851.754175447 c 1,111,-1
 784 1414.55005778 l 2,112,113
 784 1442.56854249 784 1442.56854249 804.715728753 1463.28427125 c 0,114,115
 817.628212744 1476.19675524 817.628212744 1476.19675524 834.955865243 1485.90024064 c 0,116,117
 851.962098488 1495.42373126 851.962098488 1495.42373126 870.461513649 1500.21987593 c 256,118,119
 888.899135074 1505 888.899135074 1505 904 1505 c 0,120,121
 951.97100726 1505 951.97100726 1505 983.549978477 1474.99997734 c 0,122,123
 1012.23240025 1449.15622826 1012.23240025 1449.15622826 1021.95364839 1409.64128739 c 2,124,-1
 1023 1405.38807614 l 1,125,-1
 1023 1401.02061745 l 2,126,127
 1023 1390.95238389 1023 1390.95238389 1023.4926056 1366.6572788 c 0,128,129
 1023.99345834 1341.95542815 1023.99345834 1341.95542815 1024.49405602 1314.41689429 c 256,130,131
 1024.99354364 1286.93992599 1024.99354364 1286.93992599 1025.49288193 1261.83939701 c 0,132,133
 1026 1236.34756492 1026 1236.34756492 1026 1226.50515367 c 0,134,135
 1026 1218.20928255 1026 1218.20928255 1025.87363167 1206.94602806 c 256,136,137
 1025.74726335 1195.68277357 1025.74726335 1195.68277357 1025.4944456 1181.29561951 c 0,138,139
 1024.99435305 1152.83674429 1024.99435305 1152.83674429 1024.49425576 1124.85191742 c 256,140,141
 1023.99263288 1096.78172159 1023.99263288 1096.78172159 1023.49055155 1074.87648262 c 0,142,143
 1023 1053.47427468 1023 1053.47427468 1023 1051.04123628 c 2,144,-1
 1023 1050.09337472 l 1,145,-1
 1022.95009356 1049.14669576 l 2,146,147
 1022.61891776 1042.86459814 1022.61891776 1042.86459814 1022.17600123 1034.14774689 c 256,148,149
 1021.73308471 1025.43089565 1021.73308471 1025.43089565 1021.17769806 1014.26388468 c 256,150,151
 1020.62231142 1003.09687371 1020.62231142 1003.09687371 1019.95680344 989.525999737 c 256,152,153
 1019.28697594 975.867042971 1019.28697594 975.867042971 1018.50598078 960.999406232 c 256,154,155
 1017.72498563 946.131769493 1017.72498563 946.131769493 1016.83364757 930.069520999 c 256,156,157
 1015.94230951 914.007272504 1015.94230951 914.007272504 1014.93953641 896.729250771 c 0,158,159
 1011.92496401 844.787443247 1011.92496401 844.787443247 1007.90991614 788.146001432 c 0,160,161
 1003.91359462 731.764908776 1003.91359462 731.764908776 1000.41776963 680.135623823 c 0,162,163
 998.664487129 654.241784546 998.664487129 654.241784546 997.035968708 631.073167902 c 256,164,165
 995.407450287 607.904551258 995.407450287 607.904551258 993.903004033 587.4523541 c 0,166,167
 992.332558946 566.102935673 992.332558946 566.102935673 991.107420346 551.459492986 c 256,168,169
 989.882281745 536.816050299 989.882281745 536.816050299 988.736042335 525.944501256 c 0,170,171
 986.568820588 510.528181626 986.568820588 510.528181626 980.470272739 475.341027573 c 0,172,173
 974.527424301 441.052221661 974.527424301 441.052221661 968.578442565 402.496278211 c 0,174,175
 962.520988227 363.237313013 962.520988227 363.237313013 956.455756953 328.72177012 c 0,176,177
 955.694624053 324.390374648 955.694624053 324.390374648 955.014220793 320.491429572 c 256,178,179
 954.333817533 316.592484496 954.333817533 316.592484496 953.713040295 313.004104029 c 256,180,181
 953.092263057 309.415723563 953.092263057 309.415723563 952.544461119 306.21339147 c 256,182,183
 951.99665918 303.011059378 951.99665918 303.011059378 951.505344003 300.098726572 c 256,184,185
 951.014028825 297.186393765 951.014028825 297.186393765 950.587626933 294.611984864 c 256,186,187
 950.161225041 292.037575964 950.161225041 292.037575964 949.78817065 289.732601025 c 256,188,189
 949.415116259 287.427626087 949.415116259 287.427626087 949.098913139 285.412450586 c 256,190,191
 948.782710019 283.397275085 948.782710019 283.397275085 948.516407468 281.629245776 c 0,192,193
 947.578661891 276.47067836 947.578661891 276.47067836 946.543441858 271.146127635 c 256,194,195
 945.508221825 265.82157691 945.508221825 265.82157691 944.353028066 260.222719865 c 256,196,197
 943.197834308 254.623862821 943.197834308 254.623862821 941.933647074 248.785497871 c 256,198,199
 940.669459839 242.947132922 940.669459839 242.947132922 939.246869495 236.647378875 c 256,200,201
 937.824279151 230.347624829 937.824279151 230.347624829 936.282970335 223.742408827 c 256,202,203
 934.741661518 217.137192824 934.741661518 217.137192824 933.005314232 209.891075494 c 0,204,205
 927.61845179 187.410643385 927.61845179 187.410643385 920.20251598 165.542321272 c 256,206,207
 912.786580169 143.673999158 912.786580169 143.673999158 903.357050868 122.465196304 c 0,208,209
 893.393276079 100.05477385 893.393276079 100.05477385 880.482742851 80.3802485057 c 256,210,211
 867.572209622 60.7057231609 867.572209622 60.7057231609 851.73176585 44.0124720049 c 0,212,213
 812.814496188 3 812.814496188 3 756 3 c 0,214,215
 704.27181256 3 704.27181256 3 671.255842301 33.7125304735 c 0,0,1
EndSplineSet
Validated: 1
EndChar

StartChar: five
Encoding: 53 53 24
Width: 1380
GlyphClass: 2
Flags: W
LayerCount: 2
Fore
SplineSet
113.61125561 187.825657177 m 0,0,1
 65 235.105097564 65 235.105097564 65 295 c 0,2,3
 65 358.150729064 65 358.150729064 106.659815685 394.603067788 c 0,4,5
 145.970595356 429 145.970595356 429 206 429 c 0,6,7
 267.641582538 429 267.641582538 429 332.745028811 403.183116133 c 0,8,9
 391.501700594 379.883056633 391.501700594 379.883056633 455.245538642 351.552461945 c 0,10,11
 516.521075637 324.318889947 516.521075637 324.318889947 583.232115896 301.919562561 c 0,12,13
 645.53603048 281 645.53603048 281 713 281 c 0,14,15
 743.936540344 281 743.936540344 281 785.384033957 285.019116 c 0,16,17
 806.01927971 287.020092154 806.01927971 287.020092154 827.596560489 290.260685257 c 256,18,19
 849.173841269 293.50127836 849.173841269 293.50127836 871.675694221 297.989036416 c 0,20,21
 886.292609358 300.904226503 886.292609358 300.904226503 900.69303119 304.545636436 c 256,22,23
 915.093453022 308.187046369 915.093453022 308.187046369 929.294716019 312.55970158 c 256,24,25
 943.495979016 316.93235679 943.495979016 316.93235679 957.502149554 322.038041069 c 0,26,27
 997.904668946 336.766014539 997.904668946 336.766014539 1029.87930637 357.996128187 c 0,28,29
 1059.2676278 377.509012593 1059.2676278 377.509012593 1076.99960374 404.329818079 c 0,30,31
 1093 428.531492903 1093 428.531492903 1093 460.974194951 c 0,32,33
 1093 488.899109053 1093 488.899109053 1085.24228633 510.447879117 c 256,34,35
 1077.48457265 531.996649181 1077.48457265 531.996649181 1061.92834066 549.278873435 c 0,36,37
 1026.98892099 588.094885337 1026.98892099 588.094885337 968.770816551 614.140444761 c 0,38,39
 956.519644554 619.621362276 956.519644554 619.621362276 943.54009428 624.66595344 c 256,40,41
 930.560544006 629.710544603 930.560544006 629.710544603 916.744648581 634.351009182 c 256,42,43
 902.928753155 638.991473761 902.928753155 638.991473761 888.387489559 643.182702912 c 256,44,45
 873.846225963 647.373932063 873.846225963 647.373932063 858.453346537 651.143278709 c 256,46,47
 843.060467111 654.912625355 843.060467111 654.912625355 826.945229622 658.219827496 c 0,48,49
 799.198744251 663.914018219 799.198744251 663.914018219 771.065358671 669.095962992 c 256,50,51
 742.93197309 674.277907764 742.93197309 674.277907764 714.395387455 678.950074921 c 256,52,53
 685.858801821 683.622242077 685.858801821 683.622242077 656.934593997 687.781554857 c 0,54,55
 569.145970675 700.405594388 569.145970675 700.405594388 484.875954623 711.623269345 c 0,56,57
 463.182040276 714.511098317 463.182040276 714.511098317 442.667994448 717.790499188 c 256,58,59
 422.153948619 721.06990006 422.153948619 721.06990006 402.692066621 724.764594038 c 256,60,61
 383.230184624 728.459288017 383.230184624 728.459288017 364.847263544 732.578071246 c 256,62,63
 346.464342465 736.696854474 346.464342465 736.696854474 329.203980545 741.231952738 c 0,64,65
 293.276437235 750.671786044 293.276437235 750.671786044 263.688082703 762.909828944 c 256,66,67
 234.09972817 775.147871845 234.09972817 775.147871845 210.480263753 790.7279235 c 0,68,69
 153 828.643494429 153 828.643494429 153 892.162370356 c 2,70,-1
 153 923.095435113 l 1,71,-1
 153 929.179974957 l 1,72,-1
 155.052668078 934.952276282 l 2,73,74
 161.403761566 952.812165931 161.403761566 952.812165931 172.312739981 978.619887714 c 0,75,76
 182.622621992 1003.01030782 182.622621992 1003.01030782 193.444947365 1030.6770592 c 0,77,78
 203.819058498 1057.19797254 203.819058498 1057.19797254 211.350602416 1083.67226069 c 0,79,80
 218.185336069 1107.69717645 218.185336069 1107.69717645 220.075146998 1127.03785743 c 2,81,-1
 233.002689274 1396.42661545 l 2,82,83
 233.579521549 1437.36553647 233.579521549 1437.36553647 265.065778234 1468.28510526 c 0,84,85
 270.439798807 1473.56240451 270.439798807 1473.56240451 276.130549287 1478.2533679 c 0,86,87
 281.821299767 1483.25777963 281.821299767 1483.25777963 287.975703006 1487.71925801 c 256,88,89
 294.130106246 1492.1807364 294.130106246 1492.1807364 300.5495076 1495.92271897 c 256,90,91
 306.968908954 1499.66470154 306.968908954 1499.66470154 313.8445075 1502.74661534 c 256,92,93
 320.720106047 1505.82852913 320.720106047 1505.82852913 327.808970916 1508.09696589 c 2,94,-1
 333.755952516 1510 l 1,95,-1
 340 1510 l 1,96,-1
 417 1510 l 1,97,-1
 495.740486889 1510 l 2,98,99
 510.329483828 1509.45966678 510.329483828 1509.45966678 530.62065773 1508.73064598 c 256,100,101
 550.911831632 1508.00162518 550.911831632 1508.00162518 579.915042932 1506.97496283 c 0,102,103
 636.404125872 1504.97534928 636.404125872 1504.97534928 707.897747249 1502.47557132 c 256,104,105
 779.464119257 1499.97325062 779.464119257 1499.97325062 858.517893277 1496.97118962 c 256,106,107
 937.597376103 1493.96817129 937.597376103 1493.96817129 1009.1768463 1490.96483688 c 256,108,109
 1080.56728172 1487.96943399 1080.56728172 1487.96943399 1137.40264561 1485.97539975 c 0,110,111
 1165.92557283 1484.97459529 1165.92557283 1484.97459529 1186.93657247 1484.22420347 c 256,112,113
 1207.94757212 1483.47381166 1207.94757212 1483.47381166 1221.48046642 1482.97259335 c 2,114,-1
 1226.82564028 1482.77462395 l 1,115,-1
 1231.93099973 1481.17919912 l 2,116,117
 1253.74747498 1474.36155061 1253.74747498 1474.36155061 1271.84595999 1461.38106159 c 256,118,119
 1289.944445 1448.40057258 1289.944445 1448.40057258 1302.48053411 1430.13369988 c 0,120,121
 1314.62971964 1412.43060096 1314.62971964 1412.43060096 1320.81485982 1391.75615221 c 256,122,123
 1327 1371.08170347 1327 1371.08170347 1327 1349 c 0,124,125
 1327 1323.25050895 1327 1323.25050895 1318.43052423 1300.14707082 c 256,126,127
 1309.86104846 1277.0436327 1309.86104846 1277.0436327 1292.8795282 1259.32378547 c 0,128,129
 1261.59103954 1226.67492773 1261.59103954 1226.67492773 1214.91299206 1216.00565974 c 2,130,-1
 1210.51323071 1215 l 1,131,-1
 1206 1215 l 1,132,-1
 1035 1215 l 2,133,134
 906.89412655 1215 906.89412655 1215 779.289942353 1222.0611011 c 0,135,136
 653.894126551 1229 653.894126551 1229 528 1229 c 2,137,-1
 505.084249473 1229 l 1,138,139
 502.91042765 1208.12546216 502.91042765 1208.12546216 499.588384074 1186.56470012 c 0,140,141
 493.487062768 1146.96584063 493.487062768 1146.96584063 485.862362201 1107.37782208 c 0,142,143
 478.524022791 1069.2759282 478.524022791 1069.2759282 473.144880898 1031.64923062 c 0,144,145
 471.455107817 1019.82939356 471.455107817 1019.82939356 470.282370155 1007.9143882 c 256,146,147
 469.109632493 995.999382836 469.109632493 995.999382836 468.556943569 985.474819963 c 1,148,149
 509.179029992 974.517000914 509.179029992 974.517000914 556.021583023 964.932955803 c 0,150,151
 622.654428932 951.299791945 622.654428932 951.299791945 696.261533692 935.794482352 c 0,152,153
 770.406337841 920.175984485 770.406337841 920.175984485 846.502877639 901.733019736 c 0,154,155
 924.027766889 882.944578562 924.027766889 882.944578562 996.987078254 857.392267452 c 0,156,157
 1070.97886765 831.478354793 1070.97886765 831.478354793 1136.2555956 796.687215733 c 0,158,159
 1153.04443889 787.739111256 1153.04443889 787.739111256 1168.84276032 777.937933219 c 256,160,161
 1184.64108174 768.136755182 1184.64108174 768.136755182 1199.46353696 757.470883655 c 256,162,163
 1214.28599218 746.805012128 1214.28599218 746.805012128 1228.11771914 735.262782081 c 256,164,165
 1241.9494461 723.720552035 1241.9494461 723.720552035 1254.72498375 711.350116168 c 0,166,167
 1280.73673637 686.163174823 1280.73673637 686.163174823 1301.30137548 657.087785719 c 256,168,169
 1321.86601459 628.012396615 1321.86601459 628.012396615 1336.7658012 595.389781739 c 0,170,171
 1367 529.192952937 1367 529.192952937 1367 444.544680114 c 0,172,173
 1367 418.376332824 1367 418.376332824 1363.54470284 393.592593896 c 256,174,175
 1360.08940568 368.808854969 1360.08940568 368.808854969 1353.05371703 345.180764452 c 256,176,177
 1346.01802838 321.552673935 1346.01802838 321.552673935 1335.45482399 299.604859654 c 0,178,179
 1304.5835509 235.461731965 1304.5835509 235.461731965 1253.22960891 185.719644616 c 0,180,181
 1202.70312772 136.779046414 1202.70312772 136.779046414 1135.66377472 101.26762107 c 0,182,183
 1070.22941215 66.6063754344 1070.22941215 66.6063754344 997.982554913 44.3388046446 c 0,184,185
 926.407238705 22.2782129257 926.407238705 22.2782129257 853.20951336 11.4849149838 c 0,186,187
 816.742585462 5.7543977427 816.742585462 5.7543977427 781.693193701 2.87719887135 c 256,188,189
 746.64380194 4.4408920985e-16 746.64380194 4.4408920985e-16 713 0 c 0,190,191
 695.630448863 0 695.630448863 0 672.758794407 1.8215910341 c 256,192,193
 649.887139951 3.6431820682 649.887139951 3.6431820682 620.124347939 7.29826178893 c 0,194,195
 561.489447209 14.4990390715 561.489447209 14.4990390715 492.376589737 28.8335576585 c 256,196,197
 423.083525682 43.2054524252 423.083525682 43.2054524252 350.831941879 65.2396233723 c 0,198,199
 277.253007263 87.6785892482 277.253007263 87.6785892482 217.363844814 117.097826943 c 0,200,201
 154.663781457 147.897858065 154.663781457 147.897858065 113.61125561 187.825657177 c 0,0,1
EndSplineSet
Validated: 1
EndChar

StartChar: six
Encoding: 54 54 25
Width: 1205
GlyphClass: 2
Flags: W
LayerCount: 2
Fore
SplineSet
59 876.452470739 m 1,0,-1
 59.3780053293 879.042407562 l 2,1,2
 78.2070950376 1008.05157489 78.2070950376 1008.05157489 135.26858087 1123.76743815 c 0,3,4
 192.621445854 1240.07419366 192.621445854 1240.07419366 283.313453813 1328.61311716 c 0,5,6
 328.908270523 1373.12548467 328.908270523 1373.12548467 382.30746822 1408.53630523 c 256,7,8
 435.706665916 1443.94712579 435.706665916 1443.94712579 496.519549512 1470.03396737 c 0,9,10
 537.548263729 1487.63401368 537.548263729 1487.63401368 581.485385993 1499.36806832 c 0,11,12
 625.422508257 1511.73687227 625.422508257 1511.73687227 671.754766463 1517.86843613 c 256,13,14
 718.087024669 1524 718.087024669 1524 767 1524 c 0,15,16
 775.901077719 1524 775.901077719 1524 787.381471769 1524.58546605 c 256,17,18
 798.861865818 1525.1709321 798.861865818 1525.1709321 812.564466314 1526.35219076 c 0,19,20
 842.64590001 1528.9454178 842.64590001 1528.9454178 875.230798127 1529.97985901 c 0,21,22
 908.925935416 1531.04954591 908.925935416 1531.04954591 943.115506692 1528.37848565 c 0,23,24
 980.483094292 1525.45914287 980.483094292 1525.45914287 1010.54877873 1514.63549647 c 0,25,26
 1021.85665768 1510.56466005 1021.85665768 1510.56466005 1032.07341294 1504.86177646 c 256,27,28
 1042.29016819 1499.15889286 1042.29016819 1499.15889286 1051.47277118 1491.65289961 c 256,29,30
 1060.65537417 1484.14690637 1060.65537417 1484.14690637 1068.16081925 1475.1887945 c 0,31,32
 1080.82214719 1460.07688695 1080.82214719 1460.07688695 1086.9110736 1441.02562796 c 256,33,34
 1093 1421.97436896 1093 1421.97436896 1093 1401 c 0,35,36
 1093 1344.52845081 1093 1344.52845081 1051.93865822 1309.55027078 c 0,37,38
 1013.72747079 1277 1013.72747079 1277 963 1277 c 0,39,40
 916.490309932 1277 916.490309932 1277 870.961389384 1271.30888493 c 0,41,42
 820.490309932 1265 820.490309932 1265 767 1265 c 0,43,44
 682.966416426 1265 682.966416426 1265 602.324969925 1236.81950883 c 0,45,46
 575.09972859 1227.30553424 575.09972859 1227.30553424 549.991220926 1215.49905168 c 256,47,48
 524.882713262 1203.69256912 524.882713262 1203.69256912 501.844392011 1189.58194815 c 256,49,50
 478.80607076 1175.47132719 478.80607076 1175.47132719 457.693395752 1158.98186569 c 0,51,52
 426.110474446 1134.31491255 426.110474446 1134.31491255 400.721043418 1105.47076189 c 0,53,54
 375.331612391 1075.95906779 375.331612391 1075.95906779 355.902173057 1041.86384481 c 0,55,56
 332.48454572 994.192246306 332.48454572 994.192246306 323.51088096 942.423917719 c 1,57,58
 332.260147794 948.082498031 332.260147794 948.082498031 340.8000424 953.41993216 c 0,59,60
 387.455923224 982.579857675 387.455923224 982.579857675 437.337793436 1003.80618543 c 256,61,62
 487.41412358 1025.11526208 487.41412358 1025.11526208 540.665081901 1037.89549208 c 0,63,64
 595.267198238 1051 595.267198238 1051 653 1051 c 0,65,66
 773.250103695 1051 773.250103695 1051 869.561080135 1005.67571081 c 0,67,68
 964.946811411 960.786845289 964.946811411 960.786845289 1032.31075209 885.444744737 c 0,69,70
 1099.28422131 810.539360632 1099.28422131 810.539360632 1134.78523451 712.111091963 c 0,71,72
 1170 614.476458869 1170 614.476458869 1170 507.814039321 c 0,73,74
 1170 440.223712724 1170 440.223712724 1144.50264874 374.028230074 c 0,75,76
 1139.52226178 361.09829415 1139.52226178 361.09829415 1133.79885356 348.427981972 c 256,77,78
 1128.07544533 335.757669793 1128.07544533 335.757669793 1121.62924873 323.385151745 c 256,79,80
 1115.18305213 311.012633696 1115.18305213 311.012633696 1108.00690965 298.916396906 c 256,81,82
 1100.83076717 286.820160117 1100.83076717 286.820160117 1092.94289494 275.028744536 c 256,83,84
 1085.05502271 263.237328956 1085.05502271 263.237328956 1076.45028 251.738852148 c 0,85,86
 1033.86441528 194.83156345 1033.86441528 194.83156345 977.057197732 146.256566954 c 0,87,88
 948.723764974 122.029075161 948.723764974 122.029075161 918.208995905 101.07369982 c 256,89,90
 887.694226836 80.1183244783 887.694226836 80.1183244783 855.070038971 62.492350641 c 0,91,92
 789.611200472 27.1266955757 789.611200472 27.1266955757 718.755399537 7.11620157853 c 0,93,94
 646.743737744 -14 646.743737744 -14 576 -14 c 0,95,96
 519.031938619 -14 519.031938619 -14 469.254442666 -5.47912878039 c 256,97,98
 419.476946713 3.04174243921 419.476946713 3.04174243921 376.854686171 20.4781217518 c 0,99,100
 334.792961135 36.8021489241 334.792961135 36.8021489241 298.784441618 59.4008322865 c 256,101,102
 262.7759221 81.9995156488 262.7759221 81.9995156488 233.323855987 110.730916397 c 0,103,104
 175.201790775 167.43078735 175.201790775 167.43078735 140.285718562 244.030567794 c 0,105,106
 106.642557564 317.837802756 106.642557564 317.837802756 88.3124255878 402.79771562 c 0,107,108
 70.239969586 486.563303837 70.239969586 486.563303837 64.5705216084 577.019895168 c 0,109,110
 59 665.8981067 59 665.8981067 59 755.252646188 c 2,111,-1
 59 873.837825166 l 1,112,-1
 59 876.452470739 l 1,0,-1
330.972175638 648.627126243 m 0,113,114
 318 631.821564095 318 631.821564095 318 615.879045997 c 0,115,116
 318 540.417879995 318 540.417879995 329.546370589 469.584076436 c 0,117,118
 340.518975709 402.270166012 340.518975709 402.270166012 369.802124463 351.053244272 c 0,119,120
 397.525618982 302.564194783 397.525618982 302.564194783 445.050290617 273.303674303 c 0,121,122
 491.020861382 245 491.020861382 245 567 245 c 2,123,-1
 619.198611677 245 l 1,124,125
 647.814672455 251.768765633 647.814672455 251.768765633 679.665357598 265.046785948 c 0,126,127
 715.187775465 279.8554905 715.187775465 279.8554905 749.882635155 299.952918087 c 0,128,129
 784.329429834 319.906650941 784.329429834 319.906650941 816.042135757 345.112515961 c 0,130,131
 846.999253305 369.717824893 846.999253305 369.717824893 870.030473677 397.071101451 c 0,132,133
 892.233184696 423.440389967 892.233184696 423.440389967 905.154151348 451.93622085 c 0,134,135
 917 478.060992235 917 478.060992235 917 504.988074957 c 0,136,137
 917 534.931991326 917 534.931991326 912.562007826 563.245000092 c 256,138,139
 908.124015652 591.558008857 908.124015652 591.558008857 899.262335582 618.448851158 c 0,140,141
 882.001103519 670.828204242 882.001103519 670.828204242 848.765247622 709.542031277 c 0,142,143
 832.507433988 728.479476034 832.507433988 728.479476034 812.304834137 743.440983916 c 256,144,145
 792.102234287 758.402491798 792.102234287 758.402491798 767.363844814 769.726595124 c 0,146,147
 718.705849661 792 718.705849661 792 653 792 c 0,148,149
 649.046524489 792 649.046524489 792 644.509695654 791.741106301 c 256,150,151
 639.972866818 791.482212603 639.972866818 791.482212603 634.66277829 790.932861265 c 256,152,153
 629.352689761 790.383509928 629.352689761 790.383509928 623.56854668 789.562655824 c 256,154,155
 617.784403598 788.741801719 617.784403598 788.741801719 611.221718834 787.581946245 c 256,156,157
 604.659034069 786.42209077 604.659034069 786.42209077 597.731593524 784.97812346 c 0,158,159
 580.170749873 781.317711797 580.170749873 781.317711797 561.600043118 776.093509515 c 256,160,161
 543.029336363 770.869307232 543.029336363 770.869307232 523.49544967 764.07067591 c 256,162,163
 503.90480762 757.252291286 503.90480762 757.252291286 484.25681554 749.090395862 c 256,164,165
 464.60882346 740.928500437 464.60882346 740.928500437 444.900195049 731.413780935 c 0,166,167
 425.663013231 722.126661345 425.663013231 722.126661345 408.555093082 712.069188669 c 256,168,169
 391.447172933 702.011715993 391.447172933 702.011715993 376.457900043 691.218371669 c 0,170,171
 362.067757824 680.85644411 362.067757824 680.85644411 350.719871988 670.182797601 c 256,172,173
 339.371986152 659.509151091 339.371986152 659.509151091 330.972175638 648.627126243 c 0,113,114
EndSplineSet
Validated: 1
EndChar

StartChar: seven
Encoding: 55 55 26
Width: 1338
GlyphClass: 2
Flags: W
LayerCount: 2
Fore
SplineSet
418 96.2025397364 m 1,0,-1
 418 164.589274694 l 2,1,2
 418 265.936981955 418 265.936981955 440.866011875 367.199819401 c 0,3,4
 452.163529591 417.231224365 452.163529591 417.231224365 467.433830353 466.878991766 c 0,5,6
 482.704131114 516.526759167 482.704131114 516.526759167 501.935085915 565.769526809 c 0,7,8
 540.197984077 663.745473554 540.197984077 663.745473554 590.686991807 758.819902722 c 0,9,10
 607.396561088 790.285222253 607.396561088 790.285222253 624.838530039 821.27798745 c 0,11,12
 642.28049899 852.270752647 642.28049899 852.270752647 660.456858889 882.79412981 c 0,13,14
 678.633218788 913.317506974 678.633218788 913.317506974 697.541294978 943.36663895 c 0,15,16
 754.05991069 1033.18727039 754.05991069 1033.18727039 813.6604695 1117.41461418 c 0,17,18
 832.825813637 1144.49804176 832.825813637 1144.49804176 851.971897232 1171.3528703 c 0,19,20
 871.117980826 1198.64397471 871.117980826 1198.64397471 889.344894816 1224.42527941 c 1,21,22
 843.323258546 1223.68435914 843.323258546 1223.68435914 797.444839649 1222.02610304 c 0,23,24
 713.732058254 1219.00033985 713.732058254 1219.00033985 631 1219 c 0,25,26
 605.131170133 1219 605.131170133 1219 553.260532481 1216.06392617 c 0,27,28
 535.579589526 1215.06311808 535.579589526 1215.06311808 516.124719654 1214.26692576 c 0,29,30
 496.669849782 1213.47073343 496.669849782 1213.47073343 476.478816035 1212.91011472 c 0,31,32
 456.287782287 1212.349496 456.287782287 1212.349496 435.475087454 1212.0182521 c 0,33,34
 426.356817324 1211.49808233 426.356817324 1211.49808233 417.386653419 1211.24904116 c 0,35,36
 408.416489513 1211 408.416489513 1211 399 1211 c 0,37,38
 343.573246095 1211 343.573246095 1211 300.150118 1214.10165201 c 0,39,40
 226.584152663 1219.35636382 226.584152663 1219.35636382 172.132828775 1233.23611304 c 0,41,42
 156.760373731 1237.1491016 156.760373731 1237.1491016 142.671055621 1242.00933149 c 0,43,44
 128.581737511 1246.86956138 128.581737511 1246.86956138 115.44588535 1252.82433115 c 0,45,46
 102.310033189 1258.77910091 102.310033189 1258.77910091 90.2845659795 1265.93014252 c 0,47,48
 78.2590987702 1273.08118414 78.2590987702 1273.08118414 67.5678618283 1281.32870978 c 0,49,50
 17 1320.33820319 17 1320.33820319 17 1386 c 0,51,52
 17 1400.39088915 17 1400.39088915 20.9525175926 1418.17721831 c 0,53,54
 25.0907064296 1436.79906808 25.0907064296 1436.79906808 34.0113279506 1453.95410947 c 0,55,56
 44.3555974325 1473.84693539 44.3555974325 1473.84693539 61.3320708533 1487.58979483 c 0,57,58
 82.8387948889 1505 82.8387948889 1505 112 1505 c 2,59,-1
 185 1505 l 1,60,-1
 187.459798444 1505 l 1,61,-1
 189.90106288 1504.69860933 l 2,62,63
 270.508954303 1494.7470178 270.508954303 1494.7470178 328.115966043 1488.78767175 c 0,64,65
 356.78294801 1485.82212189 356.78294801 1485.82212189 383.810831146 1483.47723863 c 0,66,67
 410.838714283 1481.13235536 410.838714283 1481.13235536 436.212190394 1479.40794436 c 0,68,69
 453.057255104 1478.26313414 453.057255104 1478.26313414 469.901780094 1477.39092571 c 0,70,71
 486.746305083 1476.51871729 486.746305083 1476.51871729 503.589692694 1475.91911818 c 0,72,73
 520.433080304 1475.31951908 520.433080304 1475.31951908 537.276552648 1474.99246136 c 0,74,75
 588.388312916 1474 588.388312916 1474 655 1474 c 0,76,77
 717.099537805 1474 717.099537805 1474 778.207636295 1479.8198189 c 0,78,79
 841.065955292 1485.80632547 841.065955292 1485.80632547 904.426795763 1492.29207217 c 0,80,81
 968.065963029 1498.80631763 968.065963029 1498.80631763 1031.20763629 1504.8198189 c 0,82,83
 1096.09953781 1511 1096.09953781 1511 1162 1511 c 0,84,85
 1211.00735254 1511 1211.00735254 1511 1249.02686791 1483.34944337 c 0,86,87
 1293 1453.0460154 1293 1453.0460154 1293 1393.94761526 c 0,88,89
 1293 1388.96080928 1293 1388.96080928 1292.59112181 1383.97542133 c 0,90,91
 1292.18224363 1378.99003338 1292.18224363 1378.99003338 1291.37866765 1374.10286796 c 0,92,93
 1290.57509167 1369.21570255 1290.57509167 1369.21570255 1289.39054824 1364.37043771 c 0,94,95
 1288.20600482 1359.52517288 1288.20600482 1359.52517288 1286.64780522 1354.78377342 c 0,96,97
 1285.08960562 1350.04237395 1285.08960562 1350.04237395 1283.17880725 1345.38568028 c 0,98,99
 1281.26800888 1340.72898661 1281.26800888 1340.72898661 1279.00459596 1336.18180116 c 0,100,101
 1276.74118304 1331.6346157 1276.74118304 1331.6346157 1274.15354003 1327.21494124 c 0,102,103
 1271.56589702 1322.79526679 1271.56589702 1322.79526679 1268.64713902 1318.49306603 c 2,104,-1
 1268.00816775 1317.55123301 l 1,105,-1
 1267.31163791 1316.64678264 l 2,106,107
 1186.69656399 1211.96737085 1186.69656399 1211.96737085 1109.05825341 1103.97504731 c 0,108,109
 1031.79081843 996.49831929 1031.79081843 996.49831929 961.951401156 884.325870575 c 0,110,111
 892.22236693 772.330648432 892.22236693 772.330648432 831.892119286 656.123186671 c 0,112,113
 771.888134974 540.544169764 771.888134974 540.544169764 725.715894744 418.599887626 c 0,114,115
 723.832947596 413.470293112 723.832947596 413.470293112 722.00231314 406.200664578 c 0,116,117
 720.171678683 398.931036043 720.171678683 398.931036043 718.379643022 388.914253558 c 0,118,119
 716.58760736 378.897471073 716.58760736 378.897471073 715.242925888 367.713113075 c 0,120,121
 710.753304771 330.370790083 710.753304771 330.370790083 705.76064888 287.320518478 c 0,122,123
 700.680104042 243.511982691 700.680104042 243.511982691 693.572600034 197.811610187 c 0,124,125
 685.967806788 148.913729333 685.967806788 148.913729333 670.533724673 109.218033003 c 0,126,127
 653.883632702 66.3948194301 653.883632702 66.3948194301 626.761948461 37.7749850553 c 0,128,129
 592.841553718 7.1054273576e-15 592.841553718 7.1054273576e-15 540 0 c 0,130,131
 498.587818107 0 498.587818107 0 465.386676433 25.0853070431 c 0,132,133
 432.979350456 48.0234687528 432.979350456 48.0234687528 420.052668078 84.3527948483 c 2,134,-1
 418 90.1216414704 l 1,135,-1
 418 96.2025397364 l 1,0,-1
EndSplineSet
Validated: 1
EndChar

StartChar: eight
Encoding: 56 56 27
Width: 1059
GlyphClass: 2
Flags: W
LayerCount: 2
Fore
SplineSet
1066.43692122 454.105852096 m 256,0,1
 1069 436.594384393 1069 436.594384393 1069 418.794098157 c 0,2,3
 1069 358.066409884 1069 358.066409884 1045.56266047 303.118872258 c 0,4,5
 1022.89374762 249.972868202 1022.89374762 249.972868202 984.304042167 203.803014082 c 0,6,7
 946.150617143 158.155138652 946.150617143 158.155138652 895.108519758 121.463981095 c 0,8,9
 844.866064007 85.3476388116 844.866064007 85.3476388116 788.697343216 59.8923725023 c 256,10,11
 732.430373315 34.3925803923 732.430373315 34.3925803923 672.37430778 20.6139825432 c 0,12,13
 611.753343156 6 611.753343156 6 554 6 c 0,14,15
 505.085655238 6 505.085655238 6 455.874679625 14.5816833008 c 256,16,17
 406.663704011 23.1633666016 406.663704011 23.1633666016 357.422595762 40.1981283744 c 0,18,19
 308.152129873 56.4051617625 308.152129873 56.4051617625 263.323745382 79.4352759024 c 256,20,21
 218.495360891 102.465390042 218.495360891 102.465390042 178.398728052 132.203346335 c 0,22,23
 97.1605617622 192.45421698 97.1605617622 192.45421698 46.2443790096 277.434963056 c 0,24,25
 -6 364.63251139 -6 364.63251139 -6 469.790576324 c 0,26,27
 -6 544.303581396 -6 544.303581396 11.9757817404 596.648254991 c 0,28,29
 30.029740903 649.220577749 30.029740903 649.220577749 59.5 686.582679863 c 0,30,31
 88.6088230524 723.486556945 88.6088230524 723.486556945 126.473132093 749.670554412 c 0,32,33
 159.910286363 772.793077572 159.910286363 772.793077572 193.859739892 794.955940912 c 0,34,35
 204.594235798 801.963605327 204.594235798 801.963605327 215.113646586 809.224152563 c 256,36,37
 225.633057374 816.484699799 225.633057374 816.484699799 235.937014172 823.997785996 c 256,38,39
 246.24097097 831.510872194 246.24097097 831.510872194 256.332070853 839.278291388 c 0,40,41
 271.744193806 851.141460025 271.744193806 851.141460025 285.182660367 867.060575312 c 1,42,43
 267.577478599 884.834296009 267.577478599 884.834296009 249.455416058 900.120063075 c 0,44,45
 218.620955552 926.128602654 218.620955552 926.128602654 188.802778463 950.700534489 c 0,46,47
 157.865999461 976.194406464 157.865999461 976.194406464 129.981291341 1002.21737431 c 0,48,49
 100.126605369 1030.07879318 100.126605369 1030.07879318 76.8832523805 1062.70373825 c 0,50,51
 52.6127149246 1096.77046485 52.6127149246 1096.77046485 38.8566933946 1138.18986546 c 0,52,53
 31.8260689306 1159.35908583 31.8260689306 1159.35908583 28.4130344653 1182.88936412 c 256,54,55
 25 1206.41964241 25 1206.41964241 25 1232.36630895 c 0,56,57
 25 1319.43352469 25 1319.43352469 63.3300236905 1391.25322452 c 0,58,59
 75.8256056844 1414.66643593 75.8256056844 1414.66643593 91.1212467292 1435.88558876 c 256,60,61
 106.416887774 1457.10474158 106.416887774 1457.10474158 124.495148529 1476.07345972 c 256,62,63
 142.573409285 1495.04217786 142.573409285 1495.04217786 163.28515005 1511.57073886 c 0,64,65
 175.582557555 1521.38442147 175.582557555 1521.38442147 188.610278814 1530.33544066 c 256,66,67
 201.638000073 1539.28645984 201.638000073 1539.28645984 215.324660174 1547.33331099 c 256,68,69
 229.011320276 1555.38016213 229.011320276 1555.38016213 243.385061865 1562.54939391 c 256,70,71
 257.758803454 1569.71862569 257.758803454 1569.71862569 272.762659712 1575.98399423 c 256,72,73
 287.76651597 1582.24936276 287.76651597 1582.24936276 303.414221449 1587.62215599 c 0,74,75
 381.999020252 1616 381.999020252 1616 465 1616 c 0,76,77
 530.330008276 1616 530.330008276 1616 599.974043442 1597.10433154 c 0,78,79
 668.447608517 1579.42345953 668.447608517 1579.42345953 734.118246908 1547.66989322 c 256,80,81
 799.700859414 1515.95888985 799.700859414 1515.95888985 858.349810512 1471.70796528 c 0,82,83
 887.811468013 1449.47899853 887.811468013 1449.47899853 913.803683214 1424.99577125 c 256,84,85
 939.795898415 1400.51254397 939.795898415 1400.51254397 962.234752378 1373.81857868 c 0,86,87
 1007.8087704 1319.60229572 1007.8087704 1319.60229572 1034.48712394 1257.9410476 c 0,88,89
 1062 1194.35098103 1062 1194.35098103 1062 1126.86270862 c 0,90,91
 1062 1060.73007302 1062 1060.73007302 1036.55246194 1006.23833035 c 0,92,93
 1011.97015173 953.599331662 1011.97015173 953.599331662 971.213518599 910.560262952 c 0,94,95
 931.656990406 868.788506947 931.656990406 868.788506947 881.414827674 835.368915189 c 0,96,97
 864.931708025 824.404834433 864.931708025 824.404834433 847.839506818 813.944761858 c 256,98,99
 830.747305611 803.484689283 830.747305611 803.484689283 814.030798114 794.095389693 c 1,100,101
 823.457133404 783.284074207 823.457133404 783.284074207 834.925977336 771.476968636 c 256,102,103
 846.394821268 759.669863065 846.394821268 759.669863065 860.784271247 745.975349823 c 0,104,105
 890.386011914 717.803221623 890.386011914 717.803221623 924.987018019 684.39602118 c 0,106,107
 943.195493023 666.815775901 943.195493023 666.815775901 960.089853196 648.099456454 c 256,108,109
 976.984213368 629.383137007 976.984213368 629.383137007 992.548615611 609.54915421 c 0,110,111
 1000.59314448 599.297874093 1000.59314448 599.297874093 1007.9696284 588.700730083 c 256,112,113
 1015.34611231 578.103586074 1015.34611231 578.103586074 1022.04854291 567.169502382 c 256,114,115
 1028.7509735 556.235418689 1028.7509735 556.235418689 1034.77678151 544.963189905 c 256,116,117
 1040.80258952 533.690961121 1040.80258952 533.690961121 1046.13683933 522.105824573 c 0,118,119
 1053.70336143 505.672550036 1053.70336143 505.672550036 1058.78860193 488.644934917 c 256,120,121
 1063.87384244 471.617319799 1063.87384244 471.617319799 1066.43692122 454.105852096 c 256,0,1
800.22291236 401.88854382 m 0,122,123
 810 421.4427191 810 421.4427191 810 443 c 0,124,125
 810 450.795482635 810 450.795482635 808.760799791 457.302021493 c 256,126,127
 807.521599582 463.808560351 807.521599582 463.808560351 805.134584994 469.477719998 c 0,128,129
 799.557704972 482.72281005 799.557704972 482.72281005 789.468295487 496.970692363 c 0,130,131
 780.364216047 506.139800943 780.364216047 506.139800943 761.399733239 525.535294723 c 0,132,133
 739.915333449 547.507976327 739.915333449 547.507976327 710.450021523 575.500022656 c 256,134,135
 681.073023728 603.408170562 681.073023728 603.408170562 646.720868761 633.34361989 c 256,136,137
 612.383980395 663.265765466 612.383980395 663.265765466 581.071851798 688.217617942 c 0,138,139
 565.967409814 700.253970148 565.967409814 700.253970148 552.184151996 710.065575065 c 256,140,141
 538.400894178 719.877179981 538.400894178 719.877179981 526.141999622 727.368726654 c 0,142,143
 520.768365845 730.652613962 520.768365845 730.652613962 515.544799228 733.228293015 c 256,144,145
 510.321232611 735.803972068 510.321232611 735.803972068 507.760509548 736.794197033 c 256,146,147
 505.199786486 737.784421998 505.199786486 737.784421998 504.229408693 737.998684248 c 0,148,149
 481.435684877 737.707502288 481.435684877 737.707502288 455.483620789 728.023896285 c 0,150,151
 426.191417405 717.09396965 426.191417405 717.09396965 397.946257659 698.558083567 c 0,152,153
 383.500280561 689.077911095 383.500280561 689.077911095 369.402230515 677.822212822 c 256,154,155
 355.304180469 666.566514549 355.304180469 666.566514549 341.549978477 653.500022656 c 0,156,157
 334.706484219 646.998703112 334.706484219 646.998703112 328.340090416 640.377131208 c 256,158,159
 321.973696613 633.755559304 321.973696613 633.755559304 316.114174385 627.047874433 c 256,160,161
 310.254652157 620.340189561 310.254652157 620.340189561 304.889505878 613.550297573 c 256,162,163
 299.524359599 606.760405585 299.524359599 606.760405585 294.620285789 599.850119762 c 0,164,165
 275.281098478 572.599446732 275.281098478 572.599446732 263.521878248 543.854686171 c 0,166,167
 259.897326405 534.994670554 259.897326405 534.994670554 257.536921797 526.497745574 c 256,168,169
 255.176517189 518.000820595 255.176517189 518.000820595 254.088258595 510.263166695 c 256,170,171
 253 502.525512795 253 502.525512795 253 495 c 0,172,173
 253 444.910541371 253 444.910541371 279.484623809 404.381041301 c 0,174,175
 308.337890764 360.226799444 308.337890764 360.226799444 352.156876763 329.115319385 c 0,176,177
 397.008657781 297.270554862 397.008657781 297.270554862 451.484862486 280.162325285 c 256,178,179
 506.133319316 263 506.133319316 263 554 263 c 0,180,181
 577.149320288 263 577.149320288 263 604.939238115 269.840595157 c 0,182,183
 614.691432842 272.241135398 614.691432842 272.241135398 624.513828216 275.247242829 c 256,184,185
 634.33622359 278.253350261 634.33622359 278.253350261 644.324539628 281.903278852 c 256,186,187
 654.312855666 285.553207444 654.312855666 285.553207444 664.378006126 289.823271275 c 0,188,189
 694.070351455 302.420023839 694.070351455 302.420023839 721.565721511 320.449774695 c 0,190,191
 730.588412383 326.3662933 730.588412383 326.3662933 738.931908926 332.698269565 c 256,192,193
 747.275405469 339.030245831 747.275405469 339.030245831 754.870762211 345.70845553 c 256,194,195
 762.466118952 352.386665229 762.466118952 352.386665229 769.425656745 359.491193393 c 0,196,197
 789.031267778 379.505254655 789.031267778 379.505254655 800.22291236 401.88854382 c 0,122,123
790.08006784 1078.1999576 m 0,198,199
 799 1092.47184906 799 1092.47184906 799 1106 c 0,200,201
 799 1133.5572809 799 1133.5572809 785.22291236 1161.11145618 c 0,202,203
 769.759964665 1192.03735157 769.759964665 1192.03735157 743.607862215 1220.36879589 c 0,204,205
 716.483853854 1249.75313828 716.483853854 1249.75313828 680.949129557 1274.80967464 c 0,206,207
 644.653432912 1300.40279407 644.653432912 1300.40279407 606.134323122 1318.96622048 c 256,208,209
 567.806689409 1337.43736926 567.806689409 1337.43736926 530.197382754 1347.98632112 c 0,210,211
 494.496440671 1358 494.496440671 1358 465 1358 c 0,212,213
 459.373478949 1358 459.373478949 1358 453.80447493 1357.71012411 c 256,214,215
 448.235470911 1357.42024821 448.235470911 1357.42024821 442.697915391 1356.83799983 c 256,216,217
 437.160359871 1356.25575145 437.160359871 1356.25575145 431.662787623 1355.38010376 c 256,218,219
 426.165215375 1354.50445607 426.165215375 1354.50445607 420.687737987 1353.33268337 c 256,220,221
 415.210260598 1352.16091066 415.210260598 1352.16091066 409.754820713 1350.69223051 c 256,222,223
 404.299380828 1349.22355035 404.299380828 1349.22355035 398.852270154 1347.45500792 c 0,224,225
 367.133003481 1337.15654472 367.133003481 1337.15654472 342.235614454 1317.56515663 c 0,226,227
 330.104043835 1308.0190027 330.104043835 1308.0190027 320.54345731 1296.70215616 c 256,228,229
 310.982870785 1285.38530962 310.982870785 1285.38530962 303.635550725 1271.88212681 c 0,230,231
 290 1246.82219575 290 1246.82219575 290 1214 c 0,232,233
 290 1182.92309363 290 1182.92309363 302.448298508 1161.83014338 c 0,234,235
 316.797916195 1137.51551341 316.797916195 1137.51551341 343.106113661 1116.14010297 c 2,236,-1
 555.644840363 946.109121609 l 1,237,238
 573.170305915 947.223129605 573.170305915 947.223129605 594.351492465 952.691184976 c 0,239,240
 621.82951126 959.898534168 621.82951126 959.898534168 650.967246639 972.646293396 c 0,241,242
 680.310994481 985.484183077 680.310994481 985.484183077 708.350094803 1002.95116361 c 0,243,244
 722.086528668 1011.50828634 722.086528668 1011.50828634 734.350016339 1020.76164583 c 256,245,246
 746.613504011 1030.01500533 746.613504011 1030.01500533 757.443800017 1039.96119554 c 0,247,248
 777.952304694 1058.79553657 777.952304694 1058.79553657 790.08006784 1078.1999576 c 0,198,199
EndSplineSet
Validated: 1
EndChar

StartChar: nine
Encoding: 57 57 28
Width: 1205
GlyphClass: 2
Flags: W
LayerCount: 2
Fore
SplineSet
1170 657.713158615 m 1,0,-1
 1169.62199467 655.12069201 l 2,1,2
 1163.33396427 611.99561532 1163.33396427 611.99561532 1152.36479241 570.176347842 c 256,3,4
 1141.39562054 528.357080365 1141.39562054 528.357080365 1125.76436089 487.915799262 c 256,5,6
 1110.13310123 447.474518159 1110.13310123 447.474518159 1089.86819719 408.489402647 c 0,7,8
 1059.44486872 349.961764322 1059.44486872 349.961764322 1020.47071075 298.322633167 c 256,9,10
 981.496552783 246.683502012 981.496552783 246.683502012 934.125819659 202.199689267 c 256,11,12
 886.560879598 157.533505163 886.560879598 157.533505163 831.365103133 121.962087382 c 256,13,14
 776.169326668 86.3906696019 776.169326668 86.3906696019 713.702575091 60.1101301335 c 0,15,16
 587.464020924 7 587.464020924 7 440 7 c 0,17,18
 431.098922281 7 431.098922281 7 419.618528231 6.41453395222 c 256,19,20
 408.138134182 5.82906790444 408.138134182 5.82906790444 394.435533686 4.647809241 c 0,21,22
 379.371229749 3.34916234991 379.371229749 3.34916234991 363.706773166 2.44295507713 c 256,23,24
 348.042316583 1.53674780436 348.042316583 1.53674780436 331.769201873 1.02014098819 c 0,25,26
 320.529970127 0.663058800624 320.529970127 0.663058800624 309.233913823 0.722869977455 c 256,27,28
 297.937857518 0.782681154287 297.937857518 0.782681154287 286.603869297 1.25735604046 c 256,29,30
 275.269881076 1.73203092664 275.269881076 1.73203092664 263.884493308 2.62151434603 c 0,31,32
 251.64116427 3.57802442712 251.64116427 3.57802442712 240.221035336 5.3678015278 c 256,33,34
 228.800906402 7.15757862849 228.800906402 7.15757862849 217.748784845 9.9168615135 c 256,35,36
 206.696663288 12.6761443985 206.696663288 12.6761443985 196.451221269 16.3645035253 c 0,37,38
 161.55350234 28.9276823398 161.55350234 28.9276823398 139.189247906 54.8990745856 c 0,39,40
 114 84.1511044118 114 84.1511044118 114 130 c 0,41,42
 114 186.471549188 114 186.471549188 155.061341776 221.449729219 c 0,43,44
 193.272529214 254 193.272529214 254 244 254 c 0,45,46
 259.513769365 254 259.513769365 254 274.913412187 254.632859035 c 256,47,48
 290.31305501 255.265718069 290.31305501 255.265718069 305.589532061 256.530128975 c 256,49,50
 320.866009112 257.794539881 320.866009112 257.794539881 336.038610616 259.691115069 c 0,51,52
 361.304699242 262.849376147 361.304699242 262.849376147 387.297345566 264.424688073 c 256,53,54
 413.28999189 266 413.28999189 266 440 266 c 0,55,56
 495.615499666 266 495.615499666 266 552.4226662 279.161250261 c 0,57,58
 571.595912516 283.603363967 571.595912516 283.603363967 590.172101288 289.254808343 c 256,59,60
 608.748290061 294.906252718 608.748290061 294.906252718 626.763528949 301.778829026 c 256,61,62
 644.778767837 308.651405333 644.778767837 308.651405333 662.258999615 316.755364059 c 0,63,64
 715.002600083 341.207669195 715.002600083 341.207669195 761.267958125 375.166753549 c 0,65,66
 806.904786234 408.6644927 806.904786234 408.6644927 840.010845926 449.45894287 c 0,67,68
 873.002800004 494.614365128 873.002800004 494.614365128 892.245665745 546.214016989 c 0,69,70
 900.447152749 569.646836999 900.447152749 569.646836999 905.197993144 594.65787506 c 1,71,72
 892.966633271 587.430799457 892.966633271 587.430799457 880.276749991 580.451363653 c 0,73,74
 827.623267126 551.491948077 827.623267126 551.491948077 770.280308121 530.448660369 c 0,75,76
 741.700906804 519.960806674 741.700906804 519.960806674 712.576706728 511.564641045 c 256,77,78
 683.452506653 503.168475416 683.452506653 503.168475416 653.810208955 496.872766171 c 0,79,80
 623.619133726 490.460502405 623.619133726 490.460502405 594.412371627 487.230251203 c 256,81,82
 565.205609529 484 565.205609529 484 537 484 c 0,83,84
 477.172846859 484 477.172846859 484 424.119768302 495.383972384 c 256,85,86
 371.066689744 506.767944769 371.066689744 506.767944769 325.423579425 529.81943 c 0,87,88
 235.503826996 575.232282689 235.503826996 575.232282689 175.606625198 651.442220323 c 0,89,90
 116.576017759 726.549550487 116.576017759 726.549550487 87.5237957962 824.997862175 c 0,91,92
 59 921.655513444 59 921.655513444 59 1027.18551727 c 0,93,94
 59 1095.6493901 59 1095.6493901 83.9350859152 1161.28999047 c 0,95,96
 92.0578603367 1182.67286405 92.0578603367 1182.67286405 102.238018916 1203.37834354 c 256,97,98
 112.418177496 1224.08382304 112.418177496 1224.08382304 124.583430732 1243.99660084 c 256,99,100
 136.748683968 1263.90937863 136.748683968 1263.90937863 150.911033641 1283.07400155 c 0,101,102
 192.99063448 1340.01650766 192.99063448 1340.01650766 249.303571878 1388.62308037 c 0,103,104
 268.022538735 1404.78037682 268.022538735 1404.78037682 287.710108526 1419.4831469 c 256,105,106
 307.397678317 1434.18591699 307.397678317 1434.18591699 328.058292638 1447.43349584 c 256,107,108
 348.718906958 1460.68107469 348.718906958 1460.68107469 370.308306586 1472.44084674 c 0,109,110
 402.754463819 1490.11430776 402.754463819 1490.11430776 436.618132626 1503.98164081 c 256,111,112
 470.481801434 1517.84897387 470.481801434 1517.84897387 505.666154359 1527.86070832 c 0,113,114
 577.214526191 1549 577.214526191 1549 648 1549 c 0,115,116
 676.344854336 1549 676.344854336 1549 702.841200811 1546.90660623 c 256,117,118
 729.337547285 1544.81321246 729.337547285 1544.81321246 754.324620279 1540.57100747 c 256,119,120
 779.311693273 1536.32880247 779.311693273 1536.32880247 802.675538858 1529.81627807 c 256,121,122
 826.039384443 1523.30375366 826.039384443 1523.30375366 847.561494296 1514.55605739 c 0,123,124
 932.739191327 1481.68004423 932.739191327 1481.68004423 992.04493904 1424.31016882 c 0,125,126
 1050.59563417 1367.6706994 1050.59563417 1367.6706994 1086.53207544 1291.14677254 c 0,127,128
 1121.31149684 1217.08663176 1121.31149684 1217.08663176 1139.68757441 1131.83056711 c 0,129,130
 1157.73972939 1048.07734576 1157.73972939 1048.07734576 1163.91701236 957.154379734 c 0,131,132
 1170 867.619339535 1170 867.619339535 1170 779.031367934 c 2,133,-1
 1170 660.330358104 l 1,134,-1
 1170 657.713158615 l 1,0,-1
896.638425347 888.320533272 m 0,135,136
 911 904.550898131 911 904.550898131 911 919.120954003 c 0,137,138
 911 994.350548259 911 994.350548259 898.530823259 1064.96128532 c 0,139,140
 892.530535388 1098.93985166 892.530535388 1098.93985166 882.076325977 1128.58883395 c 256,141,142
 871.622116566 1158.23781624 871.622116566 1158.23781624 856.818262156 1183.73780127 c 0,143,144
 828.669438358 1232.22480781 828.669438358 1232.22480781 780.221159661 1261.5306661 c 0,145,146
 733.155818344 1290 733.155818344 1290 657 1290 c 2,147,-1
 604.794901316 1290 l 1,148,149
 560.566027767 1279.58822747 560.566027767 1279.58822747 509.855090847 1254.33106489 c 0,150,151
 502.147164621 1250.492044 502.147164621 1250.492044 494.627668072 1246.44559549 c 256,152,153
 487.108171523 1242.39914698 487.108171523 1242.39914698 479.777050479 1238.14551773 c 256,154,155
 472.445929434 1233.89188849 472.445929434 1233.89188849 465.298545918 1229.42824194 c 256,156,157
 458.151162401 1224.96459539 458.151162401 1224.96459539 451.18939975 1220.29282983 c 256,158,159
 444.2276371 1215.62106426 444.2276371 1215.62106426 437.44479066 1210.73658163 c 256,160,161
 430.66194422 1205.852099 430.66194422 1205.852099 424.061964008 1200.75855906 c 256,162,163
 417.461983795 1195.66501912 417.461983795 1195.66501912 411.036227644 1190.35617245 c 0,164,165
 406.103446717 1186.28079563 406.103446717 1186.28079563 401.36602868 1182.11926917 c 256,166,167
 396.628610642 1177.9577427 396.628610642 1177.9577427 392.094851518 1173.71844294 c 256,168,169
 387.561092395 1169.47914317 387.561092395 1169.47914317 383.218960254 1165.15131685 c 256,170,171
 378.876828114 1160.82349052 378.876828114 1160.82349052 374.734954162 1156.41741904 c 256,172,173
 370.593080211 1152.01134757 370.593080211 1152.01134757 366.63907499 1147.51424562 c 256,174,175
 362.68506977 1143.01714367 362.68506977 1143.01714367 358.927922014 1138.44132472 c 256,176,177
 355.170774258 1133.86550577 355.170774258 1133.86550577 351.597736982 1129.19615242 c 256,178,179
 348.024699706 1124.52679908 348.024699706 1124.52679908 344.645119169 1119.77825689 c 256,180,181
 341.265538632 1115.0297147 341.265538632 1115.0297147 338.066332668 1110.1852612 c 0,182,183
 312 1070.7138618 312 1070.7138618 312 1030.01192504 c 0,184,185
 312 998.801417072 312 998.801417072 315.16295977 969.545522003 c 256,186,187
 318.32591954 940.289626934 318.32591954 940.289626934 324.612096563 912.95314559 c 0,188,189
 326.641726593 904.126963437 326.641726593 904.126963437 329.082510136 895.70643923 c 256,190,191
 331.523293679 887.285915022 331.523293679 887.285915022 334.355051406 879.33221655 c 256,192,193
 337.186809132 871.378518077 337.186809132 871.378518077 340.404208193 863.841030354 c 256,194,195
 343.621607253 856.303542631 343.621607253 856.303542631 347.234527128 849.175317488 c 256,196,197
 350.847447003 842.047092345 350.847447003 842.047092345 354.818492111 835.35017182 c 256,198,199
 358.78953722 828.653251294 358.78953722 828.653251294 363.158645852 822.312571257 c 0,200,201
 388.16425212 786.023121438 388.16425212 786.023121438 430.250352488 764.491548026 c 256,202,203
 472.25821833 743 472.25821833 743 537 743 c 0,204,205
 547.199965236 743 547.199965236 743 562.23592371 744.774893382 c 256,206,207
 577.271882185 746.549786765 577.271882185 746.549786765 595.879981976 750.144682679 c 0,208,209
 634.515598439 757.608691436 634.515598439 757.608691436 678.227350175 771.33397427 c 0,210,211
 700.140559249 778.214618042 700.140559249 778.214618042 722.098326383 786.443698395 c 256,212,213
 744.056093518 794.672778748 744.056093518 794.672778748 766.06302143 804.257716001 c 0,214,215
 787.688345811 813.676448961 787.688345811 813.676448961 807.175153257 823.897652241 c 256,216,217
 826.661960703 834.118855521 826.661960703 834.118855521 844.007599144 845.110139464 c 0,218,219
 876.777469029 865.875183421 876.777469029 865.875183421 896.638425347 888.320533272 c 0,135,136
EndSplineSet
Validated: 1
EndChar

StartChar: colon
Encoding: 58 58 29
Width: 613
GlyphClass: 2
Flags: W
LayerCount: 2
Fore
SplineSet
198.12890625 151 m 256,0,1
 198.12890625 189.163691067 198.12890625 189.163691067 212.82794709 223.674482605 c 0,2,3
 217.575385117 234.82064145 217.575385117 234.82064145 223.503491884 245.137053328 c 256,4,5
 229.431598652 255.453465205 229.431598652 255.453465205 236.58744166 264.9602143 c 256,6,7
 243.743284667 274.466963396 243.743284667 274.466963396 251.988900665 282.924005445 c 0,8,9
 264.516455329 295.77277946 264.516455329 295.77277946 279.498622744 305.92211403 c 256,10,11
 294.480790158 316.0714486 294.480790158 316.0714486 311.454423645 323.30095916 c 256,12,13
 328.62291411 330.613464358 328.62291411 330.613464358 346.928356246 334.306732179 c 256,14,15
 365.233798383 338 365.233798383 338 384.12890625 338 c 0,16,17
 422.292597317 338 422.292597317 338 456.803388855 323.30095916 c 0,18,19
 490.933306256 308.764142489 490.933306256 308.764142489 516.413177497 283.284271247 c 256,20,21
 541.893048739 257.804400006 541.893048739 257.804400006 556.42986541 223.674482605 c 0,22,23
 571.12890625 189.163691067 571.12890625 189.163691067 571.12890625 151 c 256,24,25
 571.12890625 112.836308933 571.12890625 112.836308933 556.42986541 78.325517395 c 256,26,27
 541.789997112 43.9536526968 541.789997112 43.9536526968 516.052911695 18.8599944152 c 0,28,29
 507.595979016 10.6144850529 507.595979016 10.6144850529 498.089200949 3.45862532932 c 256,30,31
 488.582422883 -3.69723439428 488.582422883 -3.69723439428 478.265939332 -9.6253973388 c 256,32,33
 467.949455782 -15.5535602833 467.949455782 -15.5535602833 456.803388855 -20.3009591596 c 0,34,35
 439.63489839 -27.6134643577 439.63489839 -27.6134643577 421.329456254 -31.3067321789 c 256,36,37
 403.024014117 -35 403.024014117 -35 384.12890625 -35 c 0,38,39
 345.965215183 -35 345.965215183 -35 311.454423645 -20.3009591596 c 0,40,41
 277.324506244 -5.76414248869 277.324506244 -5.76414248869 252.344635003 19.2157287525 c 256,42,43
 227.364763761 44.1955999938 227.364763761 44.1955999938 212.82794709 78.325517395 c 0,44,45
 198.12890625 112.836308933 198.12890625 112.836308933 198.12890625 151 c 256,0,1
190.12890625 979 m 0,46,47
 190.12890625 1017.16369107 190.12890625 1017.16369107 204.82794709 1051.67448261 c 0,48,49
 209.575385117 1062.82064145 209.575385117 1062.82064145 215.503491884 1073.13705333 c 256,50,51
 221.431598652 1083.45346521 221.431598652 1083.45346521 228.58744166 1092.9602143 c 256,52,53
 235.743284667 1102.4669634 235.743284667 1102.4669634 243.988900665 1110.92400545 c 0,54,55
 269.082558947 1136.66109086 269.082558947 1136.66109086 303.454423645 1151.30095916 c 0,56,57
 312.041060988 1154.95823062 312.041060988 1154.95823062 320.952141183 1157.71942065 c 256,58,59
 329.863221379 1160.48061069 329.863221379 1160.48061069 338.974587425 1162.31664526 c 256,60,61
 348.08595347 1164.15267984 348.08595347 1164.15267984 357.393688958 1165.07633992 c 256,62,63
 366.701424446 1166 366.701424446 1166 376.12890625 1166 c 0,64,65
 414.292597317 1166 414.292597317 1166 448.803388855 1151.30095916 c 0,66,67
 465.690399038 1144.10834371 465.690399038 1144.10834371 480.698352892 1134.04974286 c 256,68,69
 495.706306746 1123.991142 495.706306746 1123.991142 508.413177497 1111.28427125 c 256,70,71
 521.119922832 1098.57752591 521.119922832 1098.57752591 531.178606786 1083.56946148 c 256,72,73
 541.237290739 1068.56139705 541.237290739 1068.56139705 548.42986541 1051.67448261 c 0,74,75
 563.12890625 1017.16369107 563.12890625 1017.16369107 563.12890625 979 c 256,76,77
 563.12890625 940.836308933 563.12890625 940.836308933 548.42986541 906.325517395 c 256,78,79
 533.789997112 871.953652697 533.789997112 871.953652697 508.052911695 846.859994415 c 0,80,81
 495.381090044 834.504968305 495.381090044 834.504968305 480.471768786 824.671063364 c 256,82,83
 465.562447528 814.837158423 465.562447528 814.837158423 448.803388855 807.69904084 c 0,84,85
 431.63489839 800.386535642 431.63489839 800.386535642 413.329456254 796.693267821 c 256,86,87
 395.024014117 793 395.024014117 793 376.12890625 793 c 0,88,89
 337.965215183 793 337.965215183 793 303.454423645 807.69904084 c 0,90,91
 269.324506244 822.235857511 269.324506244 822.235857511 244.344635003 847.215728753 c 256,92,93
 219.364763761 872.195599994 219.364763761 872.195599994 204.82794709 906.325517395 c 0,94,95
 197.515441892 923.49400786 197.515441892 923.49400786 193.822174071 941.799449996 c 256,96,97
 190.12890625 960.104892133 190.12890625 960.104892133 190.12890625 979 c 0,46,47
EndSplineSet
Validated: 1
EndChar

StartChar: semicolon
Encoding: 59 59 30
Width: 513
GlyphClass: 2
Flags: W
LayerCount: 2
Fore
SplineSet
46.0733500019 -158.455040009 m 0,0,1
 88.4842548959 -109.446883242 88.4842548959 -109.446883242 116.700282971 -62.4201697829 c 256,2,3
 144.803660767 -15.5812067908 144.803660767 -15.5812067908 162.516715407 31.9643609269 c 0,4,5
 180.440462901 80.0754726229 180.440462901 80.0754726229 190.819592492 130.555784721 c 0,6,7
 196.218981914 156.816451457 196.218981914 156.816451457 200.831248404 183.888778901 c 256,8,9
 205.443514894 210.961106345 205.443514894 210.961106345 209.424155865 239.820753386 c 0,10,11
 213.160460844 263.733105255 213.160460844 263.733105255 225.442612134 283.55802966 c 256,12,13
 237.724763424 303.382954065 237.724763424 303.382954065 257.231600847 316.887687666 c 0,14,15
 293.504940885 342 293.504940885 342 336 342 c 0,16,17
 356.742962985 342 356.742962985 342 375.474759428 337.44889153 c 256,18,19
 394.206555871 332.89778306 394.206555871 332.89778306 410.196773556 323.229279343 c 0,20,21
 418.837610966 318.004586956 418.837610966 318.004586956 426.424567697 311.150439678 c 256,22,23
 434.011524427 304.296292401 434.011524427 304.296292401 440.170051596 296.283693386 c 256,24,25
 446.328578765 288.271094371 446.328578765 288.271094371 451.268541669 279.476564541 c 256,26,27
 456.208504573 270.682034711 456.208504573 270.682034711 460.139067635 260.855627054 c 2,28,-1
 463 253.703296143 l 1,29,-1
 463 246 l 1,30,-1
 463 187 l 2,31,32
 463 174.892758076 463 174.892758076 462.080558825 161.276080223 c 256,33,34
 461.161117651 147.65940237 461.161117651 147.65940237 459.40277214 132.963191144 c 256,35,36
 457.64442663 118.266979919 457.64442663 118.266979919 455.000244125 101.696769554 c 0,37,38
 447.105206007 52.2211973488 447.105206007 52.2211973488 431.404173319 -1.6856815491 c 256,39,40
 415.690511977 -55.6359188211 415.690511977 -55.6359188211 392.671247913 -108.47559315 c 0,41,42
 387.975618482 -119.254197071 387.975618482 -119.254197071 382.995542824 -129.621345394 c 256,43,44
 378.015467165 -139.988493718 378.015467165 -139.988493718 372.716877215 -150.004946127 c 256,45,46
 367.418287265 -160.021398537 367.418287265 -160.021398537 361.83105777 -169.621715882 c 256,47,48
 356.243828275 -179.222033226 356.243828275 -179.222033226 350.330915394 -188.461539078 c 256,49,50
 344.418002514 -197.701044929 344.418002514 -197.701044929 338.212256772 -206.519736247 c 0,51,52
 322.166418905 -229.321716374 322.166418905 -229.321716374 303.925067488 -248.13760321 c 256,53,54
 285.683716072 -266.953490046 285.683716072 -266.953490046 265.249527749 -281.549338848 c 0,55,56
 219.818602136 -314 219.818602136 -314 166 -314 c 0,57,58
 158.538435465 -314 158.538435465 -314 151.04677429 -313.054570772 c 256,59,60
 143.555113115 -312.109141543 143.555113115 -312.109141543 136.290182234 -310.277751077 c 256,61,62
 129.025251354 -308.44636061 129.025251354 -308.44636061 121.987842294 -305.821468388 c 256,63,64
 114.950433233 -303.196576167 114.950433233 -303.196576167 108.11145618 -299.77708764 c 0,65,66
 82.6272501696 -287.034984635 82.6272501696 -287.034984635 63.716219452 -268.776058425 c 0,67,68
 53.5835517561 -258.992793063 53.5835517561 -258.992793063 46.0145451661 -248.018659349 c 256,69,70
 38.4455385761 -237.044525634 38.4455385761 -237.044525634 33.9449473645 -224.770185966 c 0,71,72
 20.1037850457 -187.02156146 20.1037850457 -187.02156146 46.0733500019 -158.455040009 c 0,0,1
129 978 m 0,73,74
 129 1016.16369107 129 1016.16369107 143.69904084 1050.67448261 c 0,75,76
 150.837214015 1067.4336718 150.837214015 1067.4336718 160.671021212 1082.34285605 c 256,77,78
 170.504828409 1097.25204031 170.504828409 1097.25204031 182.859994415 1109.92400545 c 256,79,80
 195.387549079 1122.77277946 195.387549079 1122.77277946 210.369716494 1132.92211403 c 256,81,82
 225.351883908 1143.0714486 225.351883908 1143.0714486 242.325517395 1150.30095916 c 0,83,84
 253.770979143 1155.17587805 253.770979143 1155.17587805 265.770264924 1158.45213361 c 256,85,86
 277.769550706 1161.72838917 277.769550706 1161.72838917 290.09663416 1163.36419458 c 256,87,88
 302.423717615 1165 302.423717615 1165 315 1165 c 0,89,90
 353.163691067 1165 353.163691067 1165 387.674482605 1150.30095916 c 0,91,92
 404.561492788 1143.10834371 404.561492788 1143.10834371 419.569446642 1133.04974286 c 256,93,94
 434.577400496 1122.991142 434.577400496 1122.991142 447.284271247 1110.28427125 c 0,95,96
 455.760460203 1101.80808229 455.760460203 1101.80808229 463.089082358 1092.26037178 c 256,97,98
 470.417704513 1082.71266127 470.417704513 1082.71266127 476.466721918 1072.31100392 c 256,99,100
 482.515739324 1061.90934657 482.515739324 1061.90934657 487.30095916 1050.67448261 c 0,101,102
 492.175878052 1039.22902086 492.175878052 1039.22902086 495.452133609 1027.22973508 c 256,103,104
 498.728389167 1015.23044929 498.728389167 1015.23044929 500.364194583 1002.90336584 c 256,105,106
 502 990.576282385 502 990.576282385 502 978 c 0,107,108
 502 939.836308933 502 939.836308933 487.30095916 905.325517395 c 256,109,110
 472.661090862 870.953652697 472.661090862 870.953652697 446.924005445 845.859994415 c 0,111,112
 438.467072766 837.614485053 438.467072766 837.614485053 428.960294699 830.458625329 c 256,113,114
 419.453516633 823.302765606 419.453516633 823.302765606 409.137033082 817.374602661 c 256,115,116
 398.820549532 811.446439717 398.820549532 811.446439717 387.674482605 806.69904084 c 0,117,118
 370.50599214 799.386535642 370.50599214 799.386535642 352.200550004 795.693267821 c 256,119,120
 333.895107867 792 333.895107867 792 315 792 c 0,121,122
 276.836308933 792 276.836308933 792 242.325517395 806.69904084 c 0,123,124
 208.195599994 821.235857511 208.195599994 821.235857511 183.215728753 846.215728753 c 256,125,126
 158.235857511 871.195599994 158.235857511 871.195599994 143.69904084 905.325517395 c 0,127,128
 136.386535642 922.49400786 136.386535642 922.49400786 132.693267821 940.799449996 c 256,129,130
 129 959.104892133 129 959.104892133 129 978 c 0,73,74
EndSplineSet
Validated: 1
EndChar

StartChar: less
Encoding: 60 60 31
Width: 1038
GlyphClass: 2
Flags: W
LayerCount: 2
Fore
SplineSet
885 1268 m 0,0,1
 932.329280499 1268 932.329280499 1268 966.681488166 1231.35764516 c 0,2,3
 1000 1195.8178992 1000 1195.8178992 1000 1145 c 0,4,5
 1000 1136.20319757 1000 1136.20319757 998.749985542 1127.34223093 c 0,6,7
 997.499971083 1118.48126428 997.499971083 1118.48126428 995.062506167 1109.85452486 c 0,8,9
 992.625041252 1101.22778543 992.625041252 1101.22778543 989.235508836 1092.7233507 c 0,10,11
 985.84597642 1084.21891597 985.84597642 1084.21891597 981.355801584 1075.66190973 c 0,12,13
 976.865626748 1067.10490349 976.865626748 1067.10490349 971.735407299 1058.88822203 c 0,14,15
 966.60518785 1050.67154056 966.60518785 1050.67154056 960.475209946 1042.14704004 c 0,16,17
 943.152808398 1018.05807539 943.152808398 1018.05807539 921.242459827 993.757914149 c 0,18,19
 899.332111256 969.457752911 899.332111256 969.457752911 872.751385666 944.719255827 c 0,20,21
 820.660470718 896.238602312 820.660470718 896.238602312 755.918497632 847.939035089 c 0,22,23
 724.044169988 824.159774783 724.044169988 824.159774783 692.157235328 801.50992829 c 0,24,25
 660.270300667 778.860081797 660.270300667 778.860081797 628.369873437 757.339952316 c 0,26,27
 617.78343324 750.198306151 617.78343324 750.198306151 607.392324623 743.266213107 c 0,28,29
 597.001216007 736.334120062 597.001216007 736.334120062 586.796633195 729.605753786 c 0,30,31
 576.592050383 722.877387509 576.592050383 722.877387509 566.57883834 716.356214966 c 0,32,33
 556.565626297 709.835042423 556.565626297 709.835042423 546.741919717 703.519772933 c 0,34,35
 536.918213137 697.204503444 536.918213137 697.204503444 527.281453817 691.093765922 c 0,36,37
 517.644694497 684.9830284 517.644694497 684.9830284 508.1999576 679.08006784 c 0,38,39
 503.567295274 676.184653886 503.567295274 676.184653886 499.025940472 673.342690651 c 0,40,41
 494.484585669 670.500727416 494.484585669 670.500727416 490.126799432 667.770067155 c 0,42,43
 485.769013196 665.039406894 485.769013196 665.039406894 481.50898042 662.366393472 c 0,44,45
 477.248947644 659.693380051 477.248947644 659.693380051 473.171421909 657.131293814 c 0,46,47
 469.093896173 654.569207577 469.093896173 654.569207577 465.120569836 652.068964301 c 1,48,49
 487.323818881 635.506746022 487.323818881 635.506746022 510.030466757 619.022479543 c 0,50,51
 532.737114634 602.538213063 532.737114634 602.538213063 556.602199944 585.654071075 c 0,52,53
 593.663946355 559.433515791 593.663946355 559.433515791 642.955878012 523.31109415 c 0,54,55
 692.247809669 487.18867251 692.247809669 487.18867251 753.958313024 441.031222847 c 0,56,57
 796.008425214 409.579106412 796.008425214 409.579106412 829.796427578 381.915192252 c 0,58,59
 863.584429943 354.251278092 863.584429943 354.251278092 890.611610468 328.969747611 c 0,60,61
 917.638790993 303.68821713 917.638790993 303.68821713 937.163263836 281.271229792 c 0,62,63
 944.008085436 273.412360547 944.008085436 273.412360547 960.595414805 255.689098892 c 0,64,65
 977.182744174 237.965837237 977.182744174 237.965837237 982.781793062 230.686149782 c 0,66,67
 988.380841949 223.406462326 988.380841949 223.406462326 994.442714553 209.845305793 c 0,68,69
 1000.50458716 196.284149261 1000.50458716 196.284149261 1000.50458716 182.20612743 c 2,70,-1
 1000.50458716 181.19229561 l 1,71,-1
 1000.45874161 180.183693563 l 2,72,73
 1000.24277586 175.432447144 1000.24277586 175.432447144 1000.12138793 167.332970472 c 0,74,75
 1000 159.233493799 1000 159.233493799 1000 148.5 c 0,76,77
 1000 110.233472775 1000 110.233472775 968.24221073 76.2072699856 c 0,78,79
 935.382092076 41 935.382092076 41 886.5 41 c 0,80,81
 842 41 842 41 787 82 c 0,82,83
 741.833364938 115.874976296 741.833364938 115.874976296 682.73354094 167.332581674 c 0,84,85
 624.809334338 217.766589147 624.809334338 217.766589147 555.360876855 277.722182357 c 0,86,87
 487.163080537 336.597977739 487.163080537 336.597977739 362.056997841 427.089729255 c 0,88,89
 302.289824686 470.32053039 302.289824686 470.32053039 253.128496587 494.994629905 c 0,90,91
 203.967168488 519.66872942 203.967168488 519.66872942 168.885737065 525.550646066 c 0,92,93
 117.714886787 534.130189825 117.714886787 534.130189825 88.4343215852 545.144264871 c 0,94,95
 59.153756383 556.158339916 59.153756383 556.158339916 42.7179882265 580.811992151 c 0,96,97
 18.1649760374 617.641510435 18.1649760374 617.641510435 23.9363928847 656.392452124 c 0,98,99
 29.6244423887 694.58364165 29.6244423887 694.58364165 66.3706697381 726.286269167 c 0,100,101
 94.5021640928 750.556578022 94.5021640928 750.556578022 135.985789915 775.339003838 c 0,102,103
 175.696292909 799.062161471 175.696292909 799.062161471 222.454712694 822.698285758 c 0,104,105
 268.003567234 845.72298146 268.003567234 845.72298146 342.515603687 883.229000675 c 0,106,107
 410.783071465 917.591820027 410.783071465 917.591820027 426.408147426 928.57084145 c 2,108,-1
 805.472421577 1242.79517397 l 1,109,-1
 807.077402439 1244.12561863 l 1,110,-1
 808.811992151 1245.28201177 l 2,111,112
 842.888974491 1268 842.888974491 1268 885 1268 c 0,0,1
EndSplineSet
Validated: 1
EndChar

StartChar: equal
Encoding: 61 61 32
Width: 1187
GlyphClass: 2
Flags: W
LayerCount: 2
Fore
SplineSet
1033 326 m 1,0,-1
 136 326 l 1,1,-1
 87.5157331514 326 l 1,2,-1
 96.7288059764 373.600876263 l 1,3,-1
 132.728805976 559.600876263 l 1,4,-1
 138.999604119 592 l 1,5,-1
 172 592 l 1,6,-1
 1069 592 l 1,7,-1
 1117.48426685 592 l 1,8,-1
 1108.27119402 544.399123737 l 1,9,-1
 1072.27119402 358.399123737 l 1,10,-1
 1066.00039588 326 l 1,11,-1
 1033 326 l 1,0,-1
1033 768 m 1,12,-1
 136 768 l 1,13,-1
 86.6423616748 768 l 1,14,-1
 96.867805418 816.286817676 l 1,15,-1
 132.867805418 986.286817676 l 1,16,-1
 139.583538145 1018 l 1,17,-1
 172 1018 l 1,18,-1
 1069 1018 l 1,19,-1
 1118.35763833 1018 l 1,20,-1
 1108.13219458 969.713182324 l 1,21,-1
 1072.13219458 799.713182324 l 1,22,-1
 1065.41646185 768 l 1,23,-1
 1033 768 l 1,12,-1
EndSplineSet
Validated: 1
EndChar

